<?xml version="1.0" standalone="no"?>
<!DOCTYPE svg PUBLIC "-//W3C//DTD SVG 1.1//EN" "http://www.w3.org/Graphics/SVG/1.1/DTD/svg11.dtd" >
<svg xmlns="http://www.w3.org/2000/svg" xmlns:xlink="http://www.w3.org/1999/xlink" version="1.1">
<metadata>
Created by FontForge 20170731 at Tue Mar 12 17:14:33 2019
 By Aleksey,,,
Copyright 2012 The B612 Project Authors (https://github.com/polarsys/b612)
</metadata>
<defs>
<font id="B612Mono-Italic" horiz-adv-x="1300" >
  <font-face 
    font-family="B612 Mono"
    font-weight="400"
    font-style="italic"
    font-stretch="normal"
    units-per-em="2000"
    panose-1="2 11 6 9 5 0 0 2 0 4"
    ascent="1600"
    descent="-400"
    x-height="1100"
    cap-height="1500"
    bbox="-395.667 -710.667 2841 1920"
    underline-thickness="100"
    underline-position="-400"
    slope="-10"
    unicode-range="U+0020-FB06"
  />
<missing-glyph 
d="M272 1500h1020l-265 -1500h-1019zM125 100h820l229 1300h-820z" />
    <glyph glyph-name=".notdef" 
d="M272 1500h1020l-265 -1500h-1019zM125 100h820l229 1300h-820z" />
    <glyph glyph-name=".null" horiz-adv-x="0" 
 />
    <glyph glyph-name="nonmarkingreturn" horiz-adv-x="666" 
 />
    <glyph glyph-name="NULL" horiz-adv-x="0" 
 />
    <glyph glyph-name="NULL" horiz-adv-x="0" 
 />
    <glyph glyph-name="space" unicode=" " 
 />
    <glyph glyph-name="exclam" unicode="!" 
d="M664 1500l-185 -1050l-204 -21l189 1071h200zM196 106q0 30 13 54t34 40t46.5 23.5t49.5 3.5t42 -16t30.5 -29.5t19 -37t7.5 -38.5q1 -30 -10.5 -54.5t-31 -41t-45.5 -24t-54 -3.5q-47 6 -74 39t-27 84z" />
    <glyph glyph-name="quotedbl" unicode="&#x22;" 
d="M589 1500l-18 -100q-6 -38 -23 -94t-35 -110q-21 -62 -44 -129h-87q-1 67 0 129q2 54 5 110t9 94l18 100h175zM890 1500l-18 -100q-6 -38 -23 -94t-35 -110q-21 -62 -44 -129h-87q-1 67 0 129q2 54 5 110t9 94l18 100h175z" />
    <glyph glyph-name="numbersign" unicode="#" 
d="M1038 950l-121 -400h272l-46 -150h-269l-121 -400l-204 -20l128 420h-273l-119 -400l-203 -20l125 420h-168v150h211l122 400h-262l46 150h259l57 185l38 215l229 20l-127 -420h273l119 400l204 20l-125 -420h177v-150h-222zM840 950h-271l-120 -400h271z" />
    <glyph glyph-name="dollar" unicode="$" 
d="M1090 1252q-54 43 -105.5 67t-109.5 29l-90 -512q54 -29 105.5 -63t92 -81t65.5 -110.5t25 -149.5q0 -92 -34.5 -167.5t-94 -132t-139 -93t-170.5 -49.5l-33 -189h-146l32 182h-11q-118 8 -212.5 50t-164.5 101l118 150q24 -22 53 -44t63 -41t73.5 -32.5t84.5 -18.5
q6 -1 12 -1.5t13 -0.5l99 561q-57 31 -113 66.5t-100.5 83t-72 110.5t-27.5 149q0 91 37 161.5t99.5 120t145 78.5t173.5 37l33 188l150 20l-37 -209q49 -7 93 -21.5t82 -33.5t69.5 -41.5t57.5 -44.5zM679 896l79 446q-52 -10 -98.5 -31t-81 -52t-54.5 -71t-18 -87
q1 -38 14.5 -67.5t36.5 -54.5t54 -46t66 -40zM869 433q0 37 -11.5 67.5t-31.5 56t-47 47.5t-58 42l-86 -489q45 11 87.5 33t75 56t52 80.5t19.5 106.5z" />
    <glyph glyph-name="percent" unicode="%" 
d="M272 0h-186l941 1500h186zM327 800q-70 0 -114.5 27.5t-67 76t-25 115t11.5 143.5q13 76 38 141.5t64 112.5t93 74t127 27q70 0 114 -27t66.5 -74t25 -112.5t-10.5 -141.5q-14 -77 -39 -143.5t-64 -115t-93 -76t-126 -27.5zM509 1210q6 35 8.5 67t-4 56t-26 38.5
t-57.5 14.5q-37 0 -60.5 -13t-38 -35t-22.5 -51.5t-14 -62.5l-18 -101q-6 -36 -9 -68.5t4 -57t27 -39t58 -14.5q36 0 59.5 13t38 35t22 51.5t13.5 61.5zM846 -17q-70 0 -114.5 27.5t-67 76t-25 115t11.5 143.5q13 76 38 141.5t64 112.5t93 74t127 27q70 0 114 -27t66.5 -74
t25 -112.5t-10.5 -141.5q-14 -77 -39 -143.5t-64 -115t-93 -76t-126 -27.5zM1028 393q6 35 8.5 67t-4 56t-26 38.5t-57.5 14.5q-37 0 -60.5 -13t-38 -35t-22.5 -51.5t-14 -62.5l-18 -101q-6 -36 -9 -68.5t4 -57t27 -39t58 -14.5q36 0 59.5 13t38 35t22 51.5t13.5 61.5z" />
    <glyph glyph-name="ampersand" unicode="&#x26;" 
d="M1221 721q-14 -79 -35.5 -158.5t-56 -154.5t-84.5 -143t-120 -124h92l92 -161h-222l-59 97q-85 -50 -176.5 -72t-187.5 -22q-103 0 -179.5 37.5t-123.5 101.5t-64 148t-1 177q17 95 55.5 168.5t87.5 127t102.5 87.5t100.5 51q-14 28 -27 64.5t-22 75.5t-11.5 79t3.5 76
q13 72 43.5 134t81.5 108t123.5 72.5t168.5 26.5q66 0 115.5 -17.5t86 -44t62.5 -58t44 -59.5l-104 -138q-11 26 -29 54t-46.5 51.5t-69 38.5t-95.5 15q-48 0 -83.5 -19t-60.5 -47t-39.5 -60t-18.5 -58q-2 -14 -2.5 -29.5t1.5 -33.5q1 -15 8.5 -38t22.5 -60.5t39.5 -93
t59.5 -135t83 -186.5t110 -247q30 34 51 71t36.5 79t27 90.5t22.5 107.5zM466 700q-68 -29 -115 -88t-64 -155q-13 -72 3.5 -126t51 -90t81.5 -53.5t97 -17.5q43 0 76.5 5t60.5 13.5t48.5 20t40.5 25.5l-262 566z" />
    <glyph glyph-name="quotesingle" unicode="'" 
d="M414 1500h175l-18 -100q-13 -74 -63.5 -159.5t-135.5 -173.5h-44q15 76 30 142q6 28 11.5 57t11 54.5t9.5 46.5t6 33z" />
    <glyph glyph-name="parenleft" unicode="(" 
d="M408 1180q21 120 45 201t63 129.5t100.5 69t159.5 20.5q19 0 39.5 -1.5t38.5 -5t33 -8t23 -10.5l-91 -126l-14 2q-6 1 -15 2t-20 1q-55 0 -84 -21t-44 -57t-22 -83t-16 -99l-213 -1208q-9 -52 -18 -99t-6 -82.5t24.5 -57t73.5 -21.5q11 0 20 0.5t17 1.5l14 3l47 -126
q-11 -6 -27.5 -11t-36 -9t-40.5 -5.5t-40 0.5q-69 5 -114.5 24t-72.5 49t-38.5 69.5t-13 84.5t4.5 94.5t15 98.5z" />
    <glyph glyph-name="parenright" unicode=")" 
d="M650 0q-12 -67 -22.5 -124.5t-26 -104.5t-39 -83t-60.5 -60t-91 -36.5t-130 -11.5q-20 0 -40 2t-38 5t-33 7.5t-23 10.5l91 126l14 -3q6 -1 15 -1.5t20 -0.5q51 0 80 21.5t45 57t24 82.5t17 99l213 1208q9 52 15.5 98.5t1.5 81.5t-25.5 56.5t-65.5 23.5q-11 1 -20 -0.5
t-17 -2.5l-14 -2l-47 126q10 6 26.5 10.5t36 8t40.5 5t41 1.5q93 0 145 -33.5t73.5 -91t19 -134t-17.5 -161.5z" />
    <glyph glyph-name="asterisk" unicode="*" 
d="M706 994l106 -192l-115 -90l-113 206l-11 72l-37 -72l-173 -192l-105 67l184 203l73 45l-80 4l-210 73l50 131l224 -77l57 -52l-8 82l42 234l135 14l-44 -252l-40 -80l74 50l238 72l33 -122l-256 -78l-80 -3z" />
    <glyph glyph-name="plus" unicode="+" 
d="M223 700h373l75 423h155l-75 -423h372l-27 -155h-372l-75 -423h-155l75 423h-373z" />
    <glyph glyph-name="comma" unicode="," 
d="M127 127q5 29 21.5 55.5t40 45.5t52.5 31t59 12q29 0 54 -10.5t42 -30.5t24 -50.5t0 -69.5q-9 -53 -24.5 -102.5t-45 -100.5t-76.5 -104t-119 -110l-48 23q30 44 57 91q22 39 42.5 85.5t28.5 90.5q-25 1 -47.5 11t-38 27.5t-22 44.5t-0.5 61z" />
    <glyph glyph-name="hyphen" unicode="-" 
d="M300 600h500l-27 -155h-500z" />
    <glyph glyph-name="period" unicode="." 
d="M107 150q6 34 24 64t44.5 52.5t58.5 35.5t66 13t61.5 -13t46 -35.5t26.5 -52.5t2 -64t-24.5 -64.5t-44.5 -53t-58 -36t-66 -13.5t-62 13.5t-46.5 36t-26 53t-1.5 64.5z" />
    <glyph glyph-name="slash" unicode="/" 
d="M257 -100h-210l1010 1700h200z" />
    <glyph glyph-name="zero" unicode="0" 
d="M509 -17q-85 10 -147 46.5t-105.5 92.5t-70 128t-39 153.5t-13 170t7.5 176.5q8 91 33 186t65 183t95 165t123 132t148.5 82.5t172.5 18.5q83 -9 145 -44.5t106.5 -91.5t71.5 -129t40.5 -155.5t13.5 -171t-10 -175.5q-11 -92 -37.5 -187t-68 -184t-97 -166t-122.5 -132
t-145.5 -82t-166.5 -16zM348 793q-8 -58 -15 -125.5t-7.5 -136t8.5 -132.5t34 -115.5t68 -85t111 -40.5q58 -6 108.5 15t92.5 61t75.5 95.5t57.5 118.5t38.5 129.5t19.5 129.5q4 58 9.5 126t5.5 136.5t-8.5 132.5t-32 115t-65.5 84t-108 40q-61 6 -111 -14.5t-90.5 -60.5
t-72.5 -95.5t-55 -118.5t-38.5 -129.5t-24.5 -129.5z" />
    <glyph glyph-name="one" unicode="1" 
d="M268 0l28 160h245l170 966l98 227l-169 -186l-245 -188l-87 121l533 420l136 -20l-236 -1340h245l-28 -160h-690z" />
    <glyph glyph-name="two" unicode="2" 
d="M71 0l29 168q69 98 140.5 179t143.5 150t143 128.5t138 113.5q60 48 114 94.5t95 93t65 95t24 101.5q0 54 -14 97t-45.5 72t-81.5 44.5t-123 15.5q-48 0 -88.5 -16.5t-74.5 -43.5t-61.5 -61.5t-48.5 -70.5l-130 60q66 142 184 219.5t272 77.5h19q10 0 20 -1
q91 -6 157.5 -41t110 -89t64.5 -121t21 -137q0 -6 -0.5 -12t-0.5 -12q-4 -79 -41.5 -147.5t-91.5 -129.5t-117.5 -115t-120.5 -105q-72 -65 -136.5 -122t-120 -111t-101.5 -106.5t-81 -107.5h670l-28 -160h-904z" />
    <glyph glyph-name="three" unicode="3" 
d="M371 1340l43 160h730l-25 -140q-19 -40 -55 -83.5t-82.5 -87.5t-99.5 -87.5t-106 -82.5l-145 -71h71q67 0 132.5 -25t117.5 -71t84 -111t32 -144q0 -112 -40.5 -200t-110 -154.5t-162.5 -112.5t-198 -75t-217.5 -42t-219.5 -13l28 160q79 1 162.5 13t163 34.5t150 55
t124 74.5t84.5 93.5t31 112.5q0 63 -23 110t-65 77.5t-100.5 45.5t-128.5 15q-45 0 -88 -1t-85 -4l27 154q46 30 101 68t112 79.5t111.5 84t100 81t77.5 72t44 55.5l-159 -40h-416z" />
    <glyph glyph-name="four" unicode="4" 
d="M1107 300h-180l-52 -300h-200l52 300h-595l31 171l669 1049l185 -20l-574 -900l-117 -140h430l71 407l197 -17l-68 -390h195z" />
    <glyph glyph-name="five" unicode="5" 
d="M492 982l26 13q18 9 42 18t51.5 15.5t54.5 6.5q103 0 177.5 -29t122.5 -80t71 -120.5t23 -150.5q0 -116 -37.5 -209t-103 -166t-155 -126t-194 -87t-219 -50.5t-230.5 -16.5l28 160q96 0 186 15.5t169 43.5t145 68t113 91t73 111.5t26 129.5q0 49 -17 93.5t-49 78.5
t-77 54.5t-100 20.5q-82 0 -138.5 -17t-103.5 -49h-114l123 700h743l-28 -160h-545z" />
    <glyph glyph-name="six" unicode="6" 
d="M1065 1344q-6 2 -19.5 2.5t-24.5 0.5q-88 0 -165.5 -22.5t-144.5 -63.5t-123.5 -98t-102 -125.5t-80 -146.5t-57.5 -161l104 117q26 15 59 29.5t69 26t72.5 18.5t69.5 7q86 0 157.5 -22t122.5 -69t79.5 -120t28.5 -176q0 -112 -43 -213.5t-117 -178.5t-173.5 -122.5
t-211.5 -45.5q-11 0 -21 0.5t-21 1.5q-78 6 -137.5 33.5t-102.5 69t-71.5 95t-45.5 112.5t-24 119.5t-7 117.5q0 128 31.5 251t90 232.5t141.5 202t186 159.5t223 104.5t253 37.5q15 0 33 -0.5t27 -2.5zM328 597q-7 -38 -8 -68t-1 -60q0 -63 15 -117t45 -95.5t74 -68.5
t102 -35q21 -3 41 -3q63 0 120 28.5t100.5 79.5t69 120.5t25.5 151.5q0 60 -21.5 103.5t-57.5 71t-83 41t-98 13.5q-98 0 -180.5 -40.5t-142.5 -121.5z" />
    <glyph glyph-name="seven" unicode="7" 
d="M264 1500h893l-23 -130q-8 -42 -51.5 -104.5t-107.5 -141t-140 -171t-147.5 -194.5t-130 -210.5t-88.5 -219.5q-11 -41 -21.5 -85t-19.5 -86.5t-16.5 -83t-13.5 -74.5h-198q5 30 15 80t22.5 106t26.5 111t27 95q35 109 91 213.5t121.5 200t133 179.5t125.5 153
t99.5 120.5t53.5 81.5h-679z" />
    <glyph glyph-name="eight" unicode="8" 
d="M798 1517q81 -3 146.5 -25.5t111 -62.5t70 -98t24.5 -132q0 -72 -21.5 -125.5t-57.5 -94.5t-84 -73t-101 -60q53 -23 95.5 -66.5t72.5 -97t46.5 -112.5t16.5 -112q0 -130 -43.5 -220.5t-117 -147t-170 -82t-203.5 -25.5q-94 0 -176.5 22.5t-144 70t-97 120t-35.5 172.5
q0 89 28 163.5t77.5 134.5t117 105.5t145.5 78.5q-74 53 -119 126t-45 156q0 69 18 124t49.5 98t74 73.5t91.5 50.5t102.5 29.5t106.5 9.5h22zM654 760q-68 -27 -128.5 -59t-107 -73t-73.5 -93.5t-27 -120.5q0 -69 22 -119.5t60.5 -84t90.5 -49.5t111 -16t117 19.5t104.5 55
t75 85t28.5 110.5q0 70 -22 123.5t-59.5 94t-87 71t-104.5 56.5zM723 923q50 21 94.5 45t77.5 53t52.5 64.5t19.5 77.5q0 55 -18.5 93t-48 62t-65.5 34.5t-72 10.5q-43 0 -86 -16.5t-77 -44t-55.5 -63t-21.5 -72.5q0 -47 14.5 -82.5t41 -64t63.5 -52t81 -45.5z" />
    <glyph glyph-name="nine" unicode="9" 
d="M814 663q-32 -22 -62.5 -39t-61 -28t-62.5 -17t-68 -6q-88 0 -160 29t-123 84.5t-79 136.5t-28 185q0 112 41 205.5t111 161t162.5 105t195.5 37.5q90 0 158 -20.5t117.5 -56.5t82.5 -84.5t52.5 -104.5t27.5 -117.5t8 -122.5q0 -142 -31.5 -273t-89.5 -245.5t-141 -208.5
t-186 -160.5t-223.5 -103.5t-254.5 -37v167q125 3 243.5 48.5t216 127.5t165 197t90.5 257zM934 953q1 13 1 25v26q0 72 -12.5 135t-42 109.5t-78.5 73.5t-123 27q-75 0 -134 -28.5t-99 -77.5t-61 -114.5t-21 -138.5q0 -56 15.5 -102t46.5 -78.5t78.5 -50.5t111.5 -18
q49 0 96.5 16t89.5 44t76 67t56 85z" />
    <glyph glyph-name="colon" unicode=":" 
d="M135 133q6 31 22.5 58t40 47t52 31.5t59.5 11.5t56 -11.5t41.5 -31.5t23.5 -47t1 -58q-5 -31 -21.5 -58.5t-40 -47.5t-52 -32t-58.5 -12q-31 0 -56.5 12t-42 32t-23.5 47.5t-2 58.5zM226 647q5 31 22 58t40.5 47t52 31.5t59.5 11.5t56 -11.5t41.5 -31.5t23 -47t1.5 -58
t-21.5 -58.5t-40 -47.5t-52 -32t-58.5 -12q-31 0 -56.5 12t-42 32t-23.5 47.5t-2 58.5z" />
    <glyph glyph-name="semicolon" unicode=";" 
d="M226 641q5 31 22 58t40.5 47t52 31.5t59.5 11.5t56 -11.5t41.5 -31.5t23 -47t1.5 -58t-21.5 -58.5t-40 -47.5t-52 -32t-58.5 -12q-31 0 -56.5 12t-42 32t-23.5 47.5t-2 58.5zM135 127q6 29 22 55.5t40 45.5t53 31t59 12q29 0 53.5 -10.5t41.5 -30.5t24 -50.5t0 -69.5
q-9 -53 -24 -102.5t-44.5 -100.5t-77 -104t-119.5 -110l-48 23q31 44 57 91q22 39 42.5 85.5t28.5 90.5q-25 1 -47 11t-38 27.5t-22.5 44.5t-0.5 61z" />
    <glyph glyph-name="less" unicode="&#x3c;" 
d="M1107 1187l-31 -175l-752 -366l-81 -20l73 -20l624 -364l-31 -175l-817 457l37 209z" />
    <glyph glyph-name="equal" unicode="=" 
d="M341 800h700l-28 -155h-700zM270 400h700l-27 -155h-700z" />
    <glyph glyph-name="greater" unicode="&#x3e;" 
d="M1127 733l-37 -209l-979 -457l31 175l752 364l81 20l-75 20l-622 366l31 175z" />
    <glyph glyph-name="question" unicode="?" 
d="M727 1517q88 0 158.5 -24t119.5 -68t75 -107.5t26 -141.5q0 -71 -20.5 -124.5t-55 -96.5t-78.5 -78t-91 -68.5t-93.5 -68.5t-84.5 -76.5t-64.5 -93.5t-34.5 -120l-214 -21q9 91 37 159t66.5 120.5t85 92.5t93.5 73.5t91.5 64t78.5 64.5t54.5 75t20.5 95q0 46 -16.5 80
t-46.5 55.5t-71 32t-90 10.5t-90.5 -8t-79.5 -26.5t-75.5 -49.5t-78.5 -77l-113 110q49 63 107 104.5t121 66.5t129.5 35.5t133.5 10.5zM297 105q0 23 10.5 44.5t27.5 38.5t40 27t47 10q54 0 83.5 -33.5t29.5 -86.5q0 -23 -9 -44.5t-25 -39t-38 -28t-47 -10.5
q-56 0 -87.5 34t-31.5 88z" />
    <glyph glyph-name="at" unicode="@" 
d="M749 700l55 138q-19 2 -35 -4t-31 -14q-19 -11 -47 -39.5t-57 -73.5t-55.5 -107t-42.5 -138q-25 -116 -21.5 -187t25.5 -105t55.5 -36t68.5 21zM838 -34q-45 0 -75 11.5t-48.5 28t-28 34t-13.5 29.5l-58 -86q-72 0 -126.5 33t-87 94t-41.5 146t8 190q16 100 59.5 196
t104.5 171.5t135.5 121.5t154.5 46q81 0 137 -23l-124 -778q-8 -39 1 -59.5t32 -20.5q20 0 38.5 24.5t35 62.5t30 85t24 91.5t18 81.5t10.5 56q8 47 17.5 108t16.5 128t9.5 137t-2.5 136t-20 124t-43 101.5t-71 69t-105 25.5q-52 0 -107.5 -28.5t-110.5 -79.5t-106 -121
t-94 -153t-75 -175.5t-49 -188.5q-17 -95 -26.5 -188.5t-9.5 -181.5q0 -99 14 -184.5t45.5 -148.5t82.5 -99t125 -36q30 0 59.5 7.5t56 19.5t48 26t35.5 28l-27 -177q-12 -11 -32.5 -22t-47.5 -19.5t-58.5 -13.5t-65.5 -5q-109 0 -185 43t-123.5 119.5t-69 182.5t-21.5 231
q0 88 9.5 181t26.5 193q23 131 62 252t91.5 226.5t117 191.5t139 147.5t157 95t171.5 33.5q77 0 134.5 -25t98.5 -68.5t67.5 -102.5t41 -128t19 -144.5t1.5 -151.5t-12 -149.5t-20 -138.5q-21 -120 -48.5 -230.5t-68 -195.5t-97.5 -135.5t-136 -50.5z" />
    <glyph glyph-name="A" unicode="A" 
d="M18 0l701 1300l70 200l182 20l279 -1520h-200l-68 450h-535l-246 -450h-183zM877 1400l-101 -320l-254 -480h437l-93 480z" />
    <glyph glyph-name="B" unicode="B" 
d="M519 1359l-17 -212l-46 -262h110q76 0 146 16t123.5 51t85.5 90.5t32 133.5q0 57 -23 95.5t-62 61.5t-89.5 32.5t-104.5 9.5q-17 0 -37.5 -1t-41.5 -3.5t-40.5 -5.5t-35.5 -6zM100 0l227 1290l7 200q30 4 68.5 8t79 6.5t80 4t71.5 1.5q106 0 198.5 -14t161.5 -48.5
t109 -93t40 -148.5q0 -69 -20 -125.5t-54 -100t-78 -74t-93 -46.5l-162 -44l145 -14q53 -17 96.5 -41.5t75 -59.5t49 -82.5t17.5 -108.5q0 -93 -24.5 -166.5t-68 -130.5t-102.5 -97t-128 -66t-145.5 -38t-153.5 -12h-396zM328 160h140q107 0 191.5 15.5t143.5 53.5t90 102
t31 162q0 64 -24 109t-66.5 73.5t-100.5 41.5t-125 13h-180z" />
    <glyph glyph-name="C" unicode="C" 
d="M998 95q-20 -14 -56 -33t-88 -36.5t-121 -30t-156 -12.5q-119 0 -207.5 47.5t-147 132t-87.5 200.5t-29 253q0 122 21.5 236.5t63.5 214.5t104 183t143 142t180.5 92t216.5 33q243 0 375 -132l-98 -122q-62 43 -128.5 60.5t-154.5 17.5q-94 0 -169 -29t-133 -80.5
t-100 -122t-68.5 -152t-39 -171.5t-12.5 -181q0 -87 12.5 -168.5t47.5 -144.5t99 -101t166 -38q45 0 86 6t80 18t78 29.5t80 40.5z" />
    <glyph glyph-name="D" unicode="D" 
d="M293 1500q31 3 72 5t84.5 3.5t85.5 2t75 0.5q145 0 259.5 -32t194 -101.5t121.5 -179t42 -265.5q0 -161 -33.5 -292.5t-94 -235t-144 -180t-182.5 -126.5t-210.5 -74.5t-227.5 -24.5h-276l227 1290zM461 1150q-12 -67 -35 -197q-10 -56 -23 -131t-30 -172.5t-38.5 -219
t-47.5 -270.5h20q143 0 253 33t191.5 90t136.5 133.5t88 163.5t47.5 181t14.5 185q0 90 -22.5 166t-76 130.5t-141.5 85t-219 30.5q-16 0 -34 -1t-35 -3l-38 -4z" />
    <glyph glyph-name="E" unicode="E" 
d="M1040 160l-48 -160h-920l51 200l192 1090l7 210h920l-28 -160h-725l-14 -190l-47 -265h635l-25 -145h-635l-71 -400l-42 -180h750z" />
    <glyph glyph-name="F" unicode="F" 
d="M300 0h-200l227 1290l7 210h875l-48 -160h-645l-14 -190l-46 -265h540l-26 -145h-540z" />
    <glyph glyph-name="G" unicode="G" 
d="M1092 197q-49 -45 -107 -84.5t-124 -68t-141 -45t-158 -16.5q-144 0 -240.5 62.5t-148 169.5t-61.5 250t19 305q18 101 48 195.5t74 177.5t102.5 151.5t133 118t166 77t201.5 27.5q115 0 211 -36.5t156 -105.5l-109 -107q-43 32 -110.5 56t-161.5 24q-122 0 -207.5 -46
t-143.5 -124.5t-93 -183t-56 -221.5q-12 -69 -18 -141.5t-0.5 -141.5t23 -130t52.5 -107t88.5 -73t130.5 -27q45 0 91 10t87.5 26t76 35.5t55.5 38.5l61 349l-310 20l23 130h490z" />
    <glyph glyph-name="H" unicode="H" 
d="M787 0l127 725h-542l-127 -725h-195l227 1290l8 210l228 20l-112 -635h542l108 615l199 20l-268 -1520h-195z" />
    <glyph glyph-name="I" unicode="I" 
d="M332 1500h900l-28 -160h-358l-209 -1180h378l-48 -160h-900l28 160h356l209 1180h-376z" />
    <glyph glyph-name="J" unicode="J" 
d="M473 1325l27 175h568l-196 -1085q-19 -106 -53.5 -187t-91 -135.5t-137 -82t-191.5 -27.5q-41 0 -81.5 13.5t-76.5 33.5t-65 43t-46 42l113 118q9 -10 26 -23.5t40.5 -25.5t52.5 -20t62 -8q69 0 113 19.5t71.5 58.5t43.5 98t30 138l120 678l73 226l-242 -49h-160z" />
    <glyph glyph-name="K" unicode="K" 
d="M50 0l227 1290l7 210l234 20l-118 -664l655 644h222l-643 -635l-180 -63l164 -58l422 -744h-237l-422 746l-131 -746h-200z" />
    <glyph glyph-name="L" unicode="L" 
d="M397 160h730l-49 -160h-905l56 200l192 1090l7 210l219 20l-209 -1180z" />
    <glyph glyph-name="M" unicode="M" 
d="M838 0l159 901l157 498l-5 1l-248 -479l-247 -421h-100l-98 420l-85 480l-6 -1l-13 -498l-159 -901h-180l228 1290l9 210l218 20l132 -570l32 -250l118 250l326 550l211 20l-269 -1520h-180z" />
    <glyph glyph-name="N" unicode="N" 
d="M817 0l-327 948l-87 413l-6 -1l-12 -440l-163 -920h-180l228 1290l7 210l205 20l326 -963l92 -417l6 1l-1 439l162 920l184 20l-269 -1520h-165z" />
    <glyph glyph-name="O" unicode="O" 
d="M514 -17q-90 0 -161 27.5t-123 78t-86 120.5t-50 155.5t-14.5 183t20.5 202.5q18 105 50.5 202.5t78 183t103 155.5t127.5 120.5t152 78t174 27.5q90 0 161 -27.5t123 -78t86 -120.5t50 -155.5t14.5 -183t-19.5 -202.5q-19 -105 -51.5 -202.5t-77.5 -183t-103 -155.5
t-128 -120.5t-152 -78t-174 -27.5zM986 719q12 70 20.5 143t7.5 142.5t-14.5 131t-44 107t-81 72.5t-126.5 27q-72 0 -129 -24t-102 -65.5t-78 -97t-57.5 -117.5t-40.5 -127t-27 -126q-13 -71 -21 -145t-7 -143.5t14 -131t43.5 -107.5t81 -73t126.5 -27q71 0 128 24.5
t102 67t78.5 98t58 118t41 127.5t27.5 126z" />
    <glyph glyph-name="P" unicode="P" 
d="M289 0h-190l228 1290v200q30 5 71.5 9t87.5 7t92 4.5t85 1.5q160 0 277 -30.5t190 -85t101.5 -130.5t12.5 -167q-87 -475 -845 -475zM491 1147l-67 -382q152 0 265.5 22t192 65t124 105t60.5 143q13 67 -11.5 117.5t-77 84.5t-128.5 51t-166 17q-17 0 -40.5 -0.5t-48 -2
t-47.5 -3.5t-38 -5z" />
    <glyph glyph-name="Q" unicode="Q" 
d="M626 0q-35 -8 -73 -12.5t-86 -4.5q-102 0 -177.5 43.5t-126 119t-75.5 177t-25 217.5q0 117 23 235t67 226.5t107 202.5t143.5 163.5t177 109.5t206.5 40q112 0 197 -42.5t142 -118t85.5 -179t28.5 -224.5q0 -116 -24.5 -235t-69.5 -229t-109.5 -204.5t-143.5 -160.5
q-8 -8 -19 -16.5t-20 -15.5q13 -32 25 -50t29.5 -27.5t44 -12t68.5 -2.5l-77 -145q-50 0 -90 8t-74 34t-62.5 75t-55.5 130l-12 35zM841 314q60 79 99 162t62.5 166t33 163.5t9.5 155.5t-15.5 143.5t-50.5 120t-91.5 82t-138.5 30.5q-84 0 -153 -39.5t-123 -104.5
t-94 -148.5t-66 -172.5t-38.5 -175.5t-12.5 -157.5q0 -83 16.5 -152.5t52.5 -119.5t92 -77.5t135 -27.5h21q9 0 17 1t17.5 3t22.5 6q-18 45 -31 78.5t-26.5 55.5t-31.5 33t-47 11l77 150q41 0 72.5 -20.5t59 -61t53.5 -101t55 -140.5z" />
    <glyph glyph-name="R" unicode="R" 
d="M408 619l-108 -619h-200l227 1290v200q34 4 78 9t92.5 9t98.5 6.5t97 2.5q126 0 218 -28t151.5 -78t88.5 -119.5t29 -152.5q0 -129 -45 -223t-117.5 -156.5t-164 -94.5t-185.5 -36l126 -36l339 -593h-223l-339 600q-8 14 -21.5 16.5t-21.5 2.5h-120zM502 1147l-68 -384
h148q91 0 167.5 23.5t132 68.5t86 111.5t30.5 152.5q0 58 -26.5 105.5t-69 81t-97 51.5t-111.5 18q-42 0 -90.5 -2t-83.5 -9z" />
    <glyph glyph-name="S" unicode="S" 
d="M1087 1252q-31 25 -60.5 43.5t-60.5 30.5t-65.5 18t-75.5 6q-62 0 -120 -18t-103 -51t-72 -79t-27 -101q0 -52 24.5 -89.5t64 -68t90.5 -56.5t104.5 -54.5t104.5 -63t90.5 -81t64 -109t24.5 -147.5q0 -105 -44.5 -188.5t-120 -141t-174.5 -88.5t-207 -31
q-116 0 -223.5 36.5t-203.5 114.5l118 150q26 -26 60.5 -49.5t75.5 -41t87 -28t94 -10.5q56 0 115 14.5t108 47.5t80 86t31 130q0 55 -24.5 96.5t-64.5 75t-90.5 62t-103.5 58.5t-104 64.5t-90.5 80.5t-64 106t-24.5 140q0 100 44.5 175.5t118 125.5t169.5 75t198 25
q62 0 117 -13t102 -34t85.5 -47t68.5 -52z" />
    <glyph glyph-name="T" unicode="T" 
d="M394 0l236 1340h-485l13 160h1140l-28 -160h-440l-236 -1340h-200z" />
    <glyph glyph-name="U" unicode="U" 
d="M1226 1500l-172 -977q-24 -136 -74 -237.5t-123.5 -168.5t-168.5 -100.5t-209 -33.5q-122 0 -199.5 42.5t-118 120t-46 186.5t17.5 241l126 717l7 210l224 20l-170 -966q-17 -95 -11.5 -169.5t31.5 -126t71 -78.5t108 -27q147 0 229 87.5t113 263.5l175 996h190z" />
    <glyph glyph-name="V" unicode="V" 
d="M469 500l24 -360l104 314l514 1046h189l-652 -1320l-61 -200l-232 20l-218 1500l189 20z" />
    <glyph glyph-name="W" unicode="W" 
d="M344 700l166 400h140l16 -400v-500h4l113 460l301 840h177l-537 -1500h-181l-16 450l29 500h-4l-146 -500l-178 -450h-160l2 1500l164 20l-1 -860l-50 -460h4z" />
    <glyph glyph-name="X" unicode="X" 
d="M847 0l-158 519l-41 181l-80 -160l-370 -540h-198l570 799l-249 701l216 20l146 -464l35 -196l59 160l330 480h193l-513 -724l280 -776h-220z" />
    <glyph glyph-name="Y" unicode="Y" 
d="M619 935l388 565h192l-586 -854l-113 -646h-200l113 645l-285 855l208 20l178 -566l35 -249z" />
    <glyph glyph-name="Z" unicode="Z" 
d="M1058 160l-8 -160h-1029l-12 50l858 1150l216 180l-272 -40h-485l8 160h946l11 -22l-869 -1178l-209 -180l272 40h573z" />
    <glyph glyph-name="bracketleft" unicode="[" 
d="M454 1320l14 200h566l-27 -150h-372l-15 -200l-219 -1240l-55 -200h372l-27 -150h-566l58 200z" />
    <glyph glyph-name="backslash" unicode="\" 
d="M303 1600h194l410 -1700h-204z" />
    <glyph glyph-name="bracketright" unicode="]" 
d="M633 -220l-14 -200h-566l27 150h372l15 200l219 1240l55 200h-372l27 150h566l-58 -200z" />
    <glyph glyph-name="asciicircum" unicode="^" 
d="M1273 912h-201l-320 327l-25 111l-64 -109l-424 -327h-216l658 586l132 17z" />
    <glyph glyph-name="underscore" unicode="_" 
d="M101 -300h1099l-28 -155h-1099z" />
    <glyph glyph-name="grave" unicode="`" 
d="M871 1200h-150l-172 300l208 20z" />
    <glyph glyph-name="a" unicode="a" 
d="M927 930q-18 8 -43.5 14t-48.5 9q-27 4 -56 5q-102 0 -178 -35t-129 -96t-84 -142t-42 -173q-6 -50 -6 -91q0 -69 14 -121t39 -86.5t58 -52t72 -17.5q52 0 96 14t80.5 37t67 52t54.5 59zM768 0l28 162l-115 -113q-21 -17 -41.5 -29.5t-45 -20.5t-56.5 -12t-76 -4
q-71 0 -127 32t-95 89.5t-59.5 137.5t-20.5 177q0 28 1.5 57.5t5.5 59.5q13 111 58 215.5t123.5 185.5t191 130.5t260.5 49.5q84 0 170 -14t163 -40l-152 -883l-11 -180h-202z" />
    <glyph glyph-name="b" unicode="b" 
d="M353 171q35 -13 86 -20.5t126 -7.5q103 0 171.5 41.5t112 107.5t66 147.5t33.5 161.5q6 45 6 85q0 63 -13.5 113t-37 85.5t-56 54t-71.5 18.5q-43 0 -80.5 -4.5t-73.5 -17t-73 -34.5t-78 -56zM391 1420l12 180l205 20l-114 -646l101 91q56 24 110 38t110 14q75 0 134 -32
t100.5 -90t63.5 -137.5t22 -173.5q0 -21 -1.5 -43t-3.5 -45q-15 -139 -61.5 -252t-124 -193.5t-184.5 -124t-243 -43.5q-25 0 -58 2t-69.5 6t-74 9t-70 10.5t-58.5 12t-40 12.5z" />
    <glyph glyph-name="c" unicode="c" 
d="M1044 885q-37 32 -100.5 52t-168.5 20q-84 0 -156 -31.5t-128 -85.5t-93 -125.5t-51 -150.5q-9 -48 -9 -95q0 -66 18.5 -124t56 -101t95.5 -67.5t136 -24.5q42 0 88 13t88.5 30t76 35t50.5 28l53 -143q-30 -22 -73.5 -45t-96 -42.5t-111 -32t-118.5 -12.5
q-110 0 -195 38.5t-143 104t-88.5 153t-30.5 185.5q0 28 2.5 56t7.5 57q18 104 73.5 201.5t141 172.5t196.5 120.5t240 45.5q122 0 208.5 -28.5t149.5 -88.5z" />
    <glyph glyph-name="d" unicode="d" 
d="M715 940q-113 0 -195 -42.5t-135 -114t-79 -164t-26 -192.5q0 -72 14 -125t39 -88.5t59 -52.5t74 -17q52 0 96 14t80.5 37t67 52t54.5 59l112 634h-161zM711 0l28 162l-115 -113q-21 -17 -41.5 -29.5t-45 -20.5t-56.5 -12t-76 -4q-73 0 -130 32.5t-96 92t-59 142
t-20 181.5q0 85 17.5 168t52.5 157t89 136.5t126.5 108.5t165 72t204.5 27h149l92 520l179 -20l-251 -1420l-11 -180h-202z" />
    <glyph glyph-name="e" unicode="e" 
d="M1017 139q-31 -27 -76.5 -55t-104.5 -50.5t-130.5 -36.5t-153.5 -14q-113 0 -193 38.5t-131.5 103.5t-75.5 150.5t-24 179.5q0 47 6 95q9 73 32.5 144t61 134t88 116t113.5 91.5t137.5 60t159.5 21.5q100 0 177.5 -28t130.5 -79t80.5 -122.5t27.5 -158.5q0 -42 -7 -83
q-5 -31 -12.5 -57t-15.5 -46q-9 -23 -18 -43h-781q-6 -23 -8.5 -44t-2.5 -41q0 -62 23 -114t61 -89.5t87 -58t102 -20.5q64 0 120.5 12.5t102 30.5t79.5 37t53 32zM959 650q2 3 5 16t5.5 29.5t4 32t1.5 24.5q0 36 -11 72.5t-40 66.5t-80 48.5t-131 18.5q-65 0 -119.5 -18.5
t-98 -50t-75.5 -72.5t-52 -85l-82 -109l193 27h480z" />
    <glyph glyph-name="f" unicode="f" 
d="M553 940h-150l28 160h150l28 155q17 93 46 161.5t73.5 113t104.5 66.5t140 22q8 0 15 -0.5t15 -0.5q45 -2 80 -9.5t63 -19.5t50 -27t40 -32l-95 -123q-29 25 -67 42t-77 17h-11q-38 -3 -69.5 -12t-56.5 -32.5t-44 -65.5t-31 -110l-27 -145h290l-48 -160h-265l-175 -1039
q-10 -57 -32.5 -114.5t-61.5 -103.5t-96 -75t-136 -29h-19q-9 0 -20 1q-60 5 -92.5 18.5t-43.5 19.5l65 144q11 -4 35 -12.5t54 -9.5h7q36 0 63 18t47 51.5t33.5 82t24.5 108.5z" />
    <glyph glyph-name="g" unicode="g" 
d="M813 135l-106 -110q-9 -5 -23.5 -12.5t-35.5 -14t-48 -11t-60 -4.5q-85 0 -152 34.5t-113 97t-70.5 150t-24.5 193.5q0 85 16 167t47 155t77 135t106.5 107t135 70t162.5 25q21 0 45.5 -3t48.5 -8.5t46 -14.5t39 -21l55 -112l30 163l177 -21l-202 -1146
q-19 -105 -62.5 -191.5t-109 -149t-151 -96.5t-187.5 -34q-77 0 -137.5 16t-104 37.5t-71.5 43.5t-40 34l117 110q7 -6 29 -19.5t55.5 -27t76 -24t90.5 -10.5q62 0 114.5 23.5t93 66.5t68 103t40.5 133zM937 834q-15 21 -37 43t-51.5 40t-67.5 29.5t-84 11.5
q-63 0 -112.5 -23t-87 -61.5t-64 -90t-43 -108t-24 -115.5t-7.5 -112q0 -136 46 -213t146 -90q21 -3 41 -3q42 0 77.5 11t65.5 29.5t55.5 42.5t47.5 50z" />
    <glyph glyph-name="h" unicode="h" 
d="M298 0h-190l247 1400l15 200l213 20l-118 -670l109 115q44 22 119.5 37t190.5 15q125 0 188.5 -68.5t63.5 -199.5q0 -27 -2.5 -57t-8.5 -62l-128 -730h-190l125 709q9 52 9 94q0 83 -34.5 118.5t-97.5 35.5q-60 0 -116.5 -12t-105 -30.5t-85.5 -40.5t-57 -41z" />
    <glyph glyph-name="i" unicode="i" 
d="M630 1500h202l-35 -200h-202zM575 980l-120 -40h-230l25 160h506q-25 -140 -43 -241t-30.5 -172t-20 -115t-12 -70t-6.5 -37.5t-3 -16t-1.5 -7t-1.5 -10.5q-2 -14 -5.5 -37t-7 -47t-6 -45.5t-2.5 -32.5q0 -76 43 -106t121 -30q26 0 58.5 12t64.5 28.5t59 35t43 32.5
l48 -121q-9 -8 -38.5 -30.5t-71.5 -46t-94 -42t-107 -18.5q-69 0 -127 19.5t-100 54t-66 82.5t-24 105q0 18 2 44t5 54.5t7 56t8 48.5l84 472z" />
    <glyph glyph-name="j" unicode="j" 
d="M923 1500h202l-35 -200h-202zM873 995l-120 -40h-229l26 145h499l-211 -1197q-16 -89 -41 -166t-68.5 -133.5t-110 -88.5t-164.5 -32q-66 0 -122.5 10.5t-98.5 23t-68 24.5t-31 15l66 154q5 -4 24 -14.5t49 -22t70 -20t88 -8.5q47 0 82.5 16t61.5 47t43 77.5t28 107.5
l184 1041z" />
    <glyph glyph-name="k" unicode="k" 
d="M160 0l250 1420l12 180l205 20l-164 -930l442 410h229l-442 -410l-179 -63l157 -60l382 -567h-236l-376 557l-98 -557h-182z" />
    <glyph glyph-name="l" unicode="l" 
d="M635 1475l-120 -40h-210l28 165h486l-216 -1224q-6 -32 -8 -58.5t-2 -48.5q0 -76 43 -106t121 -30q26 0 58.5 12t64.5 28.5t59 35t43 32.5l48 -121q-9 -8 -38.5 -30.5t-71.5 -46t-94 -42t-107 -18.5q-69 0 -127 19.5t-100 54t-66 82.5t-24 105q0 36 4 75t12 81l174 1014z
" />
    <glyph glyph-name="m" unicode="m" 
d="M200 0h-177l193 1100l181 21l-32 -184q28 40 43 62.5t22.5 33t9.5 13t3 2.5q11 9 26.5 21t37 22.5t51 18t68.5 7.5q56 0 89.5 -14.5t51.5 -40t25.5 -61.5t10.5 -78l84 120q11 9 32.5 22t49.5 24.5t59.5 19.5t63.5 8q76 0 116 -25.5t54 -73.5t8.5 -116t-20.5 -152
l-132 -750h-178l130 740q10 54 15.5 94.5t0 68t-25.5 41t-61 13.5q-20 0 -48 -12.5t-56.5 -32t-54 -44t-40.5 -49.5q-1 -6 -3 -19.5t-4 -28t-4 -27t-3 -17.5l-128 -727h-179l127 720q9 54 15 98t1 74.5t-25.5 47.5t-63.5 17q-16 0 -39.5 -9t-49.5 -26.5t-52 -42t-47 -55.5z
" />
    <glyph glyph-name="n" unicode="n" 
d="M292 0h-190l194 1100l193 21l-34 -194l82 117q20 12 49 25t69 23.5t91.5 17.5t116.5 7q137 0 208 -72.5t71 -200.5q0 -45 -9 -94l-132 -750h-190l132 750q2 14 3.5 27t1.5 25q0 49 -12.5 79.5t-36 47.5t-56.5 22.5t-73 5.5q-53 0 -100 -12t-88.5 -30.5t-77 -40
t-65.5 -40.5z" />
    <glyph glyph-name="o" unicode="o" 
d="M567 -17q-99 0 -180.5 35t-140 99t-90.5 154.5t-32 201.5q0 143 44.5 261.5t124 203.5t190 132t243.5 47q102 0 185 -33t142 -95.5t91 -153t32 -204.5q0 -149 -42.5 -269t-121.5 -204t-191.5 -129.5t-253.5 -45.5zM993 622q0 75 -18 137.5t-54 108t-89.5 70.5t-125.5 25
q-65 0 -120 -19.5t-99 -53.5t-78 -80.5t-56.5 -100t-34 -112.5t-11.5 -117q0 -75 17 -138t51.5 -108.5t87 -70.5t123.5 -25q64 0 119 19.5t100 54t80 81t59 100.5t36.5 112.5t12.5 116.5z" />
    <glyph glyph-name="p" unicode="p" 
d="M572 160q114 0 193.5 42t129.5 113.5t73 165t23 196.5q0 138 -59.5 210.5t-163.5 72.5q-75 0 -138 -37.5t-123 -95.5l-117 -667h182zM273 -500h-182l282 1600l186 21l-31 -177l95 103q20 13 41 25.5t45.5 22.5t55 16t69.5 6q73 0 135.5 -28t107.5 -82t70.5 -132.5
t25.5 -179.5q0 -142 -39 -268t-120.5 -221t-207 -150.5t-298.5 -55.5h-146z" />
    <glyph glyph-name="q" unicode="q" 
d="M933 935q-20 4 -46 8t-55.5 7t-60 5t-58.5 2q-75 0 -131.5 -25t-98 -66.5t-69 -95.5t-44 -113t-23.5 -119t-7 -113q0 -148 54 -216.5t151 -68.5q70 0 140 37t131 93zM792 136l-123 -107q-28 -12 -51 -20.5t-45.5 -14.5t-47 -8.5t-55.5 -2.5q-73 0 -131.5 30.5t-99 88
t-62.5 141t-22 189.5q0 145 42 270t117.5 217t181 145t231.5 53q66 0 118 -4t98.5 -11.5t93 -17t101.5 -19.5l-276 -1565h-182z" />
    <glyph glyph-name="r" unicode="r" 
d="M448 895l118 158q32 21 70 34t77.5 19.5t78.5 8.5t74 2q52 0 95 -7t76 -17t55 -21t33 -19v-253l-145 -21l-19 169q-14 5 -42 12.5t-73 7.5q-68 0 -130 -19t-116 -50t-99 -70t-79 -79l-132 -750h-190l194 1100l193 21z" />
    <glyph glyph-name="s" unicode="s" 
d="M1065 909q-17 9 -49.5 19.5t-69 19.5t-72.5 14.5t-61 5.5q-53 0 -112.5 -5.5t-110 -22t-83.5 -46t-33 -77.5q0 -33 24.5 -57t64 -42t90 -32t101.5 -26t98 -24t81 -26q37 -15 70 -37t57 -50.5t38 -63.5t14 -76q0 -78 -30.5 -138t-82 -104.5t-117.5 -74.5t-136.5 -48.5
t-141 -26.5t-129.5 -8q-34 0 -83.5 6.5t-100 18t-94.5 27.5t-67 34l91 142q22 -12 59 -24t78 -22t80.5 -16t66.5 -6q30 0 70 4t82 13.5t83.5 25t73.5 39.5t52 57t20 77q0 35 -22.5 59.5t-59 42t-83.5 30.5t-96.5 24.5t-97 23t-85.5 27.5q-45 19 -76 42.5t-50 50.5
t-27.5 57.5t-8.5 62.5q0 96 46 160.5t122.5 104t176.5 56.5t208 17q38 0 85 -6t92 -16t82 -22.5t55 -25.5z" />
    <glyph glyph-name="t" unicode="t" 
d="M533 376q-12 -69 -12 -115q0 -66 22 -92t64 -26q47 0 95 11t90.5 25.5t76 29t51.5 21.5l48 -121q-11 -8 -49 -28.5t-94.5 -42.5t-125 -38.5t-140.5 -16.5q-66 0 -110.5 18t-71 51t-37.5 78t-11 99q0 39 5 82t13 89l96 540h-301l28 160h301l37 209l204 111l-56 -320h440
l-48 -160h-415z" />
    <glyph glyph-name="u" unicode="u" 
d="M967 1100l194 21l-198 -1121h-190l29 163l-80 -107q-24 -14 -47 -27t-54.5 -23t-78 -16.5t-117.5 -6.5q-69 0 -125 26t-95.5 71.5t-61 106.5t-21.5 131q0 20 1.5 41t5.5 42l128 699l194 21l-132 -720q-4 -20 -5.5 -38.5t-1.5 -36.5q0 -40 10 -73.5t32.5 -58t58 -38
t85.5 -13.5q66 0 114.5 10t85.5 26.5t65.5 37t55.5 41.5z" />
    <glyph glyph-name="v" unicode="v" 
d="M1202 1121l-672 -1141l-202 20l-164 1100l187 21l109 -740l12 -232l91 232l420 719z" />
    <glyph glyph-name="w" unicode="w" 
d="M737 400l17 -250l69 330l240 620l166 21l-416 -1121h-147l-71 348l15 402l-125 -400l-192 -350h-147v1100l153 21l1 -641l-37 -330l295 735h153z" />
    <glyph glyph-name="x" unicode="x" 
d="M851 0l-201 382l-24 118l-66 -118l-335 -382h-199l515 588l-268 512l214 21l176 -340l20 -111l57 111l281 319l215 21l-469 -538l309 -583h-225z" />
    <glyph glyph-name="y" unicode="y" 
d="M666 364l398 736l193 21l-613 -1138q-64 -119 -114.5 -206t-99.5 -144t-102.5 -85t-123.5 -28h-4q-65 0 -111 20.5t-81 56.5l92 107q14 -12 41 -21.5t51 -10.5h4q36 0 64 14t57 46.5t63 86.5t82 134l-215 1147l173 21q11 -57 22 -119l22 -122q13 -67 27 -138
q31 -166 71 -378l11 -232z" />
    <glyph glyph-name="z" unicode="z" 
d="M1008 160l-8 -160h-819l-12 50l600 776l179 154l-212 -40h-423l8 160h804l12 -49l-585 -771l-179 -160l212 40h423z" />
    <glyph glyph-name="braceleft" unicode="{" 
d="M148 625h122q58 6 91.5 23.5t53 48t29.5 76t21 107.5l42 239q19 108 48 185.5t74.5 127t110.5 70.5t157 17q45 -2 76 -6t54.5 -9.5t43.5 -13.5t42 -18l-85 -123q-29 15 -67 20.5t-69 4.5q-52 -2 -84.5 -18t-53.5 -47t-33.5 -78.5t-23.5 -111.5l-42 -239q-12 -71 -24 -121
t-30 -87.5t-44.5 -66t-67.5 -55.5q18 -21 31 -59.5t19.5 -84.5t6 -95t-7.5 -91l-42 -240q-11 -62 -16.5 -110t3.5 -80t36.5 -48.5t81.5 -16.5q8 -2 16 -2h16q12 0 27.5 2t31 6t30 8.5t24.5 10.5l42 -123q-23 -10 -45 -19.5t-48.5 -16t-60 -10t-79.5 -1.5q-91 3 -146 39.5
t-82 93t-30 126.5t9 141l42 240q11 64 15.5 112t-5 79.5t-36.5 47.5t-79 16h-122z" />
    <glyph glyph-name="bar" unicode="|" 
d="M762 1520l-339 -1920h-194l335 1900z" />
    <glyph glyph-name="braceright" unicode="}" 
d="M1047 481h-122q-58 -6 -91.5 -23.5t-53 -48t-29.5 -76t-21 -107.5l-42 -239q-19 -108 -48 -185.5t-74.5 -127t-111 -71t-156.5 -16.5q-45 2 -76 6t-54.5 9.5t-43.5 13.5t-42 18l85 123q29 -15 67 -20.5t69 -4.5q52 2 84.5 18t53.5 47t33.5 78t23.5 112l42 239
q12 70 24 120.5t30 88t44.5 66t67.5 55.5q-18 21 -31 59.5t-19.5 84.5t-6.5 95t8 91l42 240q11 62 16.5 109.5t-3.5 80t-36.5 49t-81.5 16.5q-8 2 -16 2h-16q-12 0 -27.5 -2t-31 -6t-30 -8.5t-24.5 -10.5l-42 123q23 10 45 19.5t48.5 16t60 10t79.5 1.5q91 -3 146 -39.5
t82 -93t30 -126.5t-9 -141l-42 -240q-11 -64 -15.5 -112t5 -79.5t36.5 -47.5t79 -16h122z" />
    <glyph glyph-name="asciitilde" unicode="~" 
d="M78 484q19 66 58.5 127.5t92 107.5t115 70t128.5 16q45 -6 83.5 -24t73 -41t67 -47.5t64.5 -43.5t65 -29t70 -4q72 12 120.5 54t83.5 122l143 -16q-20 -73 -61 -142t-95.5 -120t-119 -77.5t-130.5 -14.5q-36 6 -71 24.5t-70 41.5t-70 47.5t-70 43t-70 28.5t-71 4
q-61 -11 -110 -44t-80 -99z" />
    <glyph glyph-name="nonbreakingspace" unicode="&#xa0;" 
 />
    <glyph glyph-name="exclamdown" unicode="&#xa1;" 
d="M196 -396l185 1050l204 21l-189 -1071h-200zM664 998q0 -30 -13 -54t-34 -40t-46.5 -23.5t-49.5 -3.5t-42 16t-30.5 29.5t-19 37t-7.5 38.5q-1 30 10.5 54.5t31 41t45.5 24t54 3.5q47 -6 74 -39t27 -84z" />
    <glyph glyph-name="cent" unicode="&#xa2;" 
d="M905 1320l-36 -207q51 -8 92 -25q68 -28 119 -97l-119 -113q-34 35 -83 57q-12 5 -24.5 9.5t-26.5 6.5l-141 -798q25 2 46.5 6t41.5 11q57 18 90 38l47 -141q-63 -39 -141 -61q-23 -7 -48 -12t-52 -7l-33 -187h-146l33 188q-38 5 -73 16t-64 28q-65 46 -105 108
t-60 135.5t-22.5 156t6.5 169.5q12 115 59 205t117.5 154t158.5 102t182 50l33 188zM377 574q-10 -78 -3.5 -147t29.5 -123.5t63.5 -92t99.5 -53.5l140 794q-72 -14 -129 -48t-98.5 -83.5t-67 -112.5t-34.5 -134z" />
    <glyph glyph-name="sterling" unicode="&#xa3;" 
d="M379 850h161l101 315q33 102 65.5 169.5t75 107.5t99.5 57t139 18q51 1 92 -7.5t74 -25.5q67 -33 90 -59l-108 -101q-8 5 -22.5 12.5t-32.5 14.5t-37 12t-36 6q-45 2 -77 -5.5t-57 -32t-46 -70t-45 -120.5l-93 -291h207l-46 -150h-208q-132 -437 -168 -476l-109 -120
l169 43h438l-25 -147h-946l45 147h138q35 0 83 50q47 48 193 503h-140z" />
    <glyph glyph-name="currency" unicode="&#xa4;" 
d="M1001 222l-119 -101l-128 157q-13 -18 -40.5 -33t-63.5 -24.5t-77.5 -13t-82.5 2.5t-78 22.5t-64 45.5l-184 -157l-83 101l184 156q-28 59 -34 119t5.5 114.5t38 99t62.5 73.5l-130 156l119 102l129 -157q20 24 53.5 38t73 19.5t82.5 4t81.5 -9.5t69 -21.5t46.5 -30.5
l183 157l83 -102l-183 -156q21 -24 32 -72.5t5 -106.5t-32 -118.5t-77 -108.5zM419 424q34 -38 75 -54.5t84.5 -15t86 19.5t78.5 50q33 28 56 68t31.5 83.5t-1 86t-40.5 76.5q-33 35 -75 47.5t-85.5 9t-84 -19.5t-69.5 -37q-40 -30 -62 -73.5t-28 -88.5t3 -86t31 -66z" />
    <glyph glyph-name="yen" unicode="&#xa5;" 
d="M56 550h395l17 95l-18 55h-367l26 150h290l-216 650l208 20l188 -566l35 -249l70 230l388 565h192l-446 -650h291l-26 -150h-368l-37 -54l-17 -96h395l-26 -150h-395l-70 -400h-210l70 400h-395z" />
    <glyph glyph-name="brokenbar" unicode="&#xa6;" 
d="M770 1520l-145 -820h-200l141 800zM565 362l-134 -762h-200l134 762h200z" />
    <glyph glyph-name="section" unicode="&#xa7;" 
d="M1010 1351q-44 26 -94.5 33t-107.5 9q-56 2 -106.5 -9.5t-88.5 -36t-60 -62t-22 -88.5q0 -50 20 -90t52 -74.5t72 -65.5t81.5 -64t80.5 -70t68 -83t44.5 -103.5t10.5 -131.5q-4 -53 -19.5 -95t-40 -73.5t-55 -53.5t-64.5 -36q-24 -11 -47.5 -22t-49.5 -19l27 -24
q63 -54 95.5 -122.5t27.5 -157.5q-4 -80 -39.5 -142.5t-96 -105.5t-143 -64.5t-179.5 -19.5q-83 2 -149 16.5t-125 55.5l77 97q44 -26 94.5 -34t107.5 -8q49 0 99 11t89.5 34.5t64.5 60.5t24 90q-1 50 -20.5 89.5t-51.5 73.5t-72 64t-81 62.5t-80 69.5t-68 83t-45 105
t-11 135q3 47 18.5 86t39.5 70.5t55 56.5t65 44q47 27 97 41l-27 24q-31 28 -56 58.5t-41 65.5t-23 74t-2 83q10 89 50 151.5t101.5 102t140.5 57.5t166 18q82 0 148.5 -14t125.5 -55zM520 767q-42 -30 -71 -75t-40 -105q-7 -38 0.5 -72t25.5 -65t44 -59.5t58 -54.5l54 -45
q43 16 78 41q42 31 71 76t40 105q7 37 -0.5 71.5t-25.5 65.5t-44.5 59t-57.5 54l-55 45q-21 -8 -40 -18t-37 -23z" />
    <glyph glyph-name="dieresis" unicode="&#xa8;" 
d="M564 1500h200l-35 -200h-200zM964 1500h200l-35 -200h-200z" />
    <glyph glyph-name="copyright" unicode="&#xa9;" 
d="M717 1517q98 -7 175.5 -42.5t129 -95.5t73.5 -144t9 -188q-13 -100 -59.5 -187t-119 -151t-166.5 -99.5t-202 -32.5q-97 2 -173.5 39t-127.5 100t-75.5 147.5t-16.5 183.5q5 67 28.5 129.5t61.5 116.5t88.5 97.5t110.5 73.5t126.5 44t137.5 9zM571 663q72 0 142 22
t130 68.5t104.5 119t65.5 174.5q19 90 -3.5 162.5t-70 123.5t-112.5 78.5t-131 27.5q-86 0 -164.5 -29.5t-139.5 -82t-99.5 -124t-42.5 -156.5q-4 -79 15 -148.5t60 -122t103 -83t143 -30.5zM831 1200q-19 15 -50.5 24t-84.5 9q-42 0 -78 -14.5t-64 -38.5t-46.5 -56.5
t-25.5 -67.5q-4 -22 -4 -43q0 -30 9 -56t28 -45.5t48 -30.5t68 -11q21 0 44 6t44 13.5t38 15.5l25 13l27 -64q-15 -10 -37 -20.5t-48 -19t-55.5 -14.5t-59.5 -6q-55 0 -97.5 17.5t-71.5 47t-44 69t-15 83.5q0 12 1 25t4 26q9 46 36.5 90t70.5 78t98.5 54.5t119.5 20.5
q61 0 104.5 -13t74.5 -40z" />
    <glyph glyph-name="ordfeminine" unicode="&#xaa;" 
d="M241 800h400l-18 -100h-400zM665 1427q-9 4 -21.5 7t-24.5 4q-13 2 -28 3q-51 0 -89 -17.5t-64.5 -48t-42 -71t-20.5 -86.5q-3 -25 -3 -46q0 -34 7 -60t19.5 -43.5t29 -26t35.5 -8.5q26 0 48 7t40.5 18.5t33.5 26t27 29.5zM586 962l14 81l-58 -57q-10 -8 -20.5 -14.5
t-22.5 -10.5t-28 -6t-38 -2q-36 0 -64 16t-47.5 45t-29.5 69t-10 88q0 14 0.5 29t2.5 30q7 55 29.5 107.5t61.5 93t95.5 65t130.5 24.5q42 0 85 -7t81 -20l-76 -441l-5 -90h-101z" />
    <glyph glyph-name="guillemotleft" unicode="&#xab;" 
d="M650 1026l28 -125l-376 -291l-149 -60l127 -60l277 -289l-78 -135l-395 412l24 139zM1150 1026l28 -125l-376 -291l-149 -60l127 -60l277 -289l-78 -135l-395 412l24 139z" />
    <glyph glyph-name="logicalnot" unicode="&#xac;" 
d="M1258 800l-55 -211l-54 -309h-200l30 169l49 191h-1004l29 160h1205z" />
    <glyph glyph-name="sfthyphen" unicode="&#xad;" horiz-adv-x="800" 
 />
    <glyph glyph-name="registered" unicode="&#xae;" 
d="M717 1517q98 -7 175.5 -42.5t129 -95.5t73.5 -144t9 -188q-13 -100 -59.5 -187t-119 -151t-166.5 -99.5t-202 -32.5q-97 2 -173.5 39t-127.5 100t-75.5 147.5t-16.5 183.5q5 67 28.5 129.5t61.5 116.5t88.5 97.5t110.5 73.5t126.5 44t137.5 9zM571 663q72 0 142 22
t130 68.5t104.5 119t65.5 174.5q19 90 -3.5 162.5t-70 123.5t-112.5 78.5t-131 27.5q-86 0 -164.5 -29.5t-139.5 -82t-99.5 -124t-42.5 -156.5q-4 -79 15 -148.5t60 -122t103 -83t143 -30.5zM541 1006l-36 -204h-66l75 426v66q11 1 25.5 2.5t30.5 3t32.5 2.5t32.5 1
q41 0 71.5 -9.5t50 -26t29 -39.5t9.5 -50q0 -43 -14.5 -74t-38.5 -51.5t-54.5 -31t-61.5 -11.5l42 -12l112 -196h-74l-112 198q-2 5 -6.5 5.5t-7.5 0.5h-39zM572 1181l-23 -127h49q30 0 55.5 7.5t43.5 22.5t28 37t10 50q0 19 -8.5 35t-22.5 27t-32 17t-37 6q-14 0 -30 -1
t-27 -3z" />
    <glyph glyph-name="macron" unicode="&#xaf;" 
d="M464 1500h700l-26 -150h-700z" />
    <glyph glyph-name="degree" unicode="&#xb0;" 
d="M568 1520q111 -15 169.5 -85.5t51.5 -184.5q-3 -56 -32.5 -107.5t-74 -90t-100 -58.5t-110.5 -14q-110 13 -166.5 85t-54.5 185q1 38 14.5 74t36.5 67.5t53.5 57.5t65.5 43.5t72.5 25t74.5 2.5zM492 1091q31 -3 63.5 6.5t59.5 30t44.5 51.5t19.5 71q3 67 -31 107t-100 52
q-34 6 -67.5 -3t-60 -30t-43 -53.5t-16.5 -72.5q1 -66 35.5 -109t95.5 -50z" />
    <glyph glyph-name="plusminus" unicode="&#xb1;" 
d="M223 862h373l75 338h155l-75 -338h372l-27 -124h-372l-75 -338h-155l75 338h-373zM98 290h900v-140h-900v140z" />
    <glyph glyph-name="twosuperior" unicode="&#xb2;" 
d="M135 720l15 84q34 49 70 89.5t72 75t71.5 64t68.5 56.5q30 24 57 47.5t47.5 46.5t32.5 47.5t12 50.5q0 27 -7 48.5t-22.5 36t-40.5 22.5t-62 8q-24 0 -44 -8.5t-37 -22t-31 -30.5t-24 -35l-65 30q33 71 92 109.5t136 38.5h19q46 -3 79 -20.5t55 -44.5t32.5 -60.5
t10.5 -68.5q0 -3 -0.5 -6t-0.5 -6q-2 -40 -20.5 -74t-45.5 -64.5t-59 -57.5t-60 -53q-36 -32 -68.5 -60.5t-60 -55.5t-50.5 -53.5t-41 -53.5h335l-14 -80h-452z" />
    <glyph glyph-name="threesuperior" unicode="&#xb3;" 
d="M285 1390l22 80h365l-13 -70q-9 -20 -27 -42t-41.5 -44t-50 -43.5t-52.5 -41.5l-73 -35h36q33 0 66 -12.5t59 -35.5t42 -55.5t16 -72.5q0 -56 -20.5 -100t-55 -77t-81 -56t-99 -37.5t-109 -21t-109.5 -6.5l14 80q39 0 81 6t81.5 17.5t75 27.5t62 37t42 47t15.5 56
q0 32 -11.5 55.5t-32.5 38.5t-50 22.5t-64 7.5q-23 0 -44.5 -0.5t-42.5 -1.5l14 77q23 15 50.5 34t56 39.5t55.5 42t50 40.5t39 36t22 28l-80 -20h-208z" />
    <glyph glyph-name="acute" unicode="&#xb4;" 
d="M864 1500l234 20l-297 -320h-150z" />
    <glyph glyph-name="mu" unicode="&#xb5;" 
d="M1237 36q-11 -9 -31 -18t-45.5 -17t-53.5 -13t-53 -5q-33 0 -67 11.5t-63.5 33.5t-51.5 54t-31 73l-37 -69q-21 -25 -53 -46.5t-71.5 -35.5t-84.5 -20t-91 -1q-19 2 -44 4t-50 6t-47 11.5t-35 20.5l11 -191l-59 -334h-180l282 1600l185 21l-137 -773q-9 -50 -6.5 -91.5
t20 -70.5t51 -43t86.5 -10q32 3 61.5 11.5t59 22t61 32.5t68.5 42l151 859l183 21l-136 -769q-14 -76 -15 -119.5t8 -66t28.5 -28t47.5 -5.5q24 0 47.5 4.5t46.5 12.5z" />
    <glyph glyph-name="paragraph" unicode="&#xb6;" 
d="M544 647q-37 2 -67 8t-55.5 14t-48 16.5t-43.5 16.5q-29 10 -62.5 48.5t-57.5 97t-32.5 134.5t12.5 162q24 102 69.5 173t110 113.5t146 59t178.5 10.5h472l-335 -1900h-169l308 1748h-134l-308 -1748h-169z" />
    <glyph glyph-name="periodcentered" unicode="&#xb7;" 
d="M307 650q6 34 24 64t44.5 52.5t58.5 35.5t66 13t61.5 -13t46 -35.5t26.5 -52.5t2 -64t-24.5 -64.5t-44.5 -53t-58 -36t-66 -13.5t-62 13.5t-46.5 36t-26 53t-1.5 64.5z" />
    <glyph glyph-name="cedilla" unicode="&#xb8;" 
d="M524 0q18 -27 30 -59q11 -27 17 -63t1 -76q-7 -50 -30 -89t-57.5 -65.5t-79 -40.5t-94.5 -14q-42 0 -85.5 13.5t-79.5 30.5q-42 19 -81 45l89 100q23 -17 49 -30q22 -11 49.5 -21t56.5 -10q43 -1 73 20t38 70q5 33 -5 67t-25 61q-18 32 -42 61h176z" />
    <glyph glyph-name="onesuperior" unicode="&#xb9;" 
d="M148 720l14 80h122l85 483l49 113l-84 -93l-123 -94l-43 61l266 210l68 -10l-118 -670h123l-14 -80h-345z" />
    <glyph glyph-name="ordmasculine" unicode="&#xba;" 
d="M241 800h400l-18 -100h-400zM426 950q-49 0 -90 17.5t-70 49.5t-45 77.5t-16 100.5q0 72 22 131t62 101.5t95 66t122 23.5q51 0 92.5 -16.5t71 -47.5t45.5 -76.5t16 -102.5q0 -74 -21.5 -134t-61 -102t-95.5 -65t-127 -23zM639 1270q0 37 -9 68.5t-27 54t-44.5 35
t-62.5 12.5q-33 0 -60.5 -9.5t-49.5 -26.5t-39 -40.5t-28 -50t-17 -56t-6 -58.5q0 -38 8.5 -69.5t26 -54t43.5 -35t62 -12.5q32 0 59.5 9.5t50 27t40 40.5t29.5 50t18 56.5t6 58.5z" />
    <glyph glyph-name="guillemotright" unicode="&#xbb;" 
d="M708 617l-24 -139l-541 -412l-30 135l379 289l147 60l-127 60l-274 291l72 125zM1208 617l-24 -139l-541 -412l-30 135l379 289l147 60l-127 60l-274 291l72 125z" />
    <glyph glyph-name="onequarter" unicode="&#xbc;" 
d="M354 0h-135l775 1500h126zM1206 150h-90l-26 -150h-100l26 150h-297l15 85l335 525l92 -10l-287 -450l-58 -70h215l35 203l99 -8l-34 -195h97zM46 720l14 80h122l85 483l49 113l-84 -93l-123 -94l-43 61l266 210l68 -10l-118 -670h123l-14 -80h-345z" />
    <glyph glyph-name="onehalf" unicode="&#xbd;" 
d="M354 0h-135l775 1500h126zM708 0l15 84q34 49 70 89.5t72 75t71.5 64t68.5 56.5q30 24 57 47.5t47.5 46.5t32.5 47.5t12 50.5q0 27 -7 48.5t-22.5 36t-40.5 22.5t-62 8q-24 0 -44 -8.5t-37 -22t-31 -30.5t-24 -35l-65 30q33 71 92 109.5t136 38.5h19q46 -3 79 -20.5
t55 -44.5t32.5 -60.5t10.5 -68.5q0 -3 -0.5 -6t-0.5 -6q-2 -40 -20.5 -74t-45.5 -64.5t-59 -57.5t-60 -53q-36 -32 -68.5 -60.5t-60 -55.5t-50.5 -53.5t-41 -53.5h335l-14 -80h-452zM46 720l14 80h122l85 483l49 113l-84 -93l-123 -94l-43 61l266 210l68 -10l-118 -670h123
l-14 -80h-345z" />
    <glyph glyph-name="threequarters" unicode="&#xbe;" 
d="M354 0h-135l775 1500h126zM1206 150h-90l-26 -150h-100l26 150h-297l15 85l335 525l92 -10l-287 -450l-58 -70h215l35 203l99 -8l-34 -195h97zM185 1390l22 80h365l-13 -70q-9 -20 -27 -42t-41.5 -44t-50 -43.5t-52.5 -41.5l-73 -35h36q33 0 66 -12.5t59 -35.5t42 -55.5
t16 -72.5q0 -56 -20.5 -100t-55 -77t-81 -56t-99 -37.5t-109 -21t-109.5 -6.5l14 80q39 0 81 6t81.5 17.5t75 27.5t62 37t42 47t15.5 56q0 32 -11.5 55.5t-32.5 38.5t-50 22.5t-64 7.5q-23 0 -44.5 -0.5t-42.5 -1.5l14 77q23 15 50.5 34t56 39.5t55.5 42t50 40.5t39 36
t22 28l-80 -20h-208z" />
    <glyph glyph-name="questiondown" unicode="&#xbf;" 
d="M573 -16q-88 0 -158.5 24t-119.5 68t-75 107.5t-26 141.5q0 71 20.5 124.5t55 96.5t78.5 78t91 68.5t93.5 68.5t84.5 76.5t64.5 93.5t34.5 120l214 21q-9 -91 -37 -159t-66.5 -120.5t-85 -92.5t-93.5 -73.5t-91.5 -64t-78.5 -64.5t-54.5 -75t-20.5 -95q0 -46 16.5 -80
t46.5 -55.5t71 -32t90 -10.5t90.5 8t79.5 26.5t75.5 49.5t78.5 77l113 -110q-49 -63 -107 -104.5t-121 -66.5t-129.5 -35.5t-133.5 -10.5zM1003 1396q0 -23 -10.5 -44.5t-27.5 -38.5t-40 -27t-47 -10q-54 0 -83.5 33.5t-29.5 86.5q0 23 9 44.5t25 39t38 28t47 10.5
q56 0 87.5 -34t31.5 -88z" />
    <glyph glyph-name="Agrave" unicode="&#xc0;" 
d="M18 0l701 1300l70 200l182 20l279 -1520h-200l-68 450h-535l-246 -450h-183zM877 1400l-101 -320l-254 -480h437l-93 480zM981 1600h-150l-172 300l208 20z" />
    <glyph glyph-name="Aacute" unicode="&#xc1;" 
d="M18 0l701 1300l70 200l182 20l279 -1520h-200l-68 450h-535l-246 -450h-183zM877 1400l-101 -320l-254 -480h437l-93 480zM1048 1900l234 20l-297 -320h-150z" />
    <glyph glyph-name="Acircumflex" unicode="&#xc2;" 
d="M18 0l701 1300l70 200l182 20l279 -1520h-200l-68 450h-535l-246 -450h-183zM877 1400l-101 -320l-254 -480h437l-93 480zM1173 1620h-150l-74 152l-14 88l-45 -87l-128 -153h-150l225 280l204 20z" />
    <glyph glyph-name="Atilde" unicode="&#xc3;" 
d="M18 0l701 1300l70 200l182 20l279 -1520h-200l-68 450h-535l-246 -450h-183zM877 1400l-101 -320l-254 -480h437l-93 480zM566 1616q12 55 36 96t54 67.5t63.5 38t65.5 7.5q39 -6 70 -20.5t59.5 -30t56 -27.5t58.5 -12q28 0 47.5 10.5t32.5 26.5t20 34.5t11 35.5l95 -3
q-6 -48 -29 -92.5t-55.5 -76.5t-72 -48.5t-78.5 -9.5q-28 5 -56 21.5t-57.5 33.5t-61.5 28t-68 6q-38 -5 -64.5 -24t-41.5 -64z" />
    <glyph glyph-name="Adieresis" unicode="&#xc4;" 
d="M18 0l701 1300l70 200l182 20l279 -1520h-200l-68 450h-535l-246 -450h-183zM877 1400l-101 -320l-254 -480h437l-93 480zM637 1800h200l-35 -200h-200zM1037 1800h200l-35 -200h-200z" />
    <glyph glyph-name="Aring" unicode="&#xc5;" 
d="M968 1881q48 -8 85.5 -29.5t62.5 -53t37 -71t10 -83.5q-3 -57 -27.5 -102.5t-63.5 -77.5q-37 -30 -83 -46l261 -1418h-200l-68 450h-535l-246 -450h-183l701 1300l51 147q-16 14 -30 31q-27 33 -41 76t-11 90q3 50 27.5 96.5t63.5 80.5t88.5 51t100.5 9zM877 1400
l-101 -320l-254 -480h437l-93 480zM905 1520q24 -5 49.5 2t47 23.5t34.5 41.5t11 56q-3 52 -26.5 81.5t-73.5 39.5q-26 5 -51.5 -3.5t-46 -26t-33 -41.5t-11.5 -50q3 -102 100 -123z" />
    <glyph glyph-name="AE" unicode="&#xc6;" 
d="M1300 160l-48 -160h-706l52 200l44 250h-295l-234 -450h-216l678 1300l80 200h745l-28 -160h-386l-12 -191l-47 -264h325l-25 -145h-325l-71 -400l-42 -180h511zM669 600l88 506l1 234l-96 -241l-247 -499h254z" />
    <glyph glyph-name="Ccedilla" unicode="&#xc7;" 
d="M998 95q-20 -14 -56 -33t-88 -36.5t-121 -29.5q-36 -7 -76 -10q12 -21 21 -45q11 -27 17 -63t1 -76q-7 -50 -30 -89t-57.5 -65.5t-79 -40.5t-94.5 -14q-42 0 -85.5 13.5t-79.5 30.5q-42 19 -81 45l89 100q23 -17 49 -30q22 -11 49.5 -21t56.5 -10q43 -1 73 20t38 70
q5 33 -5 67t-25 61q-16 28 -35 53q-60 11 -110 38q-88 48 -146.5 132.5t-87.5 200.5t-29 253q0 122 21.5 236.5t63.5 214.5t104 183t143 142t180.5 92t216.5 33q243 0 375 -132l-98 -122q-62 43 -128.5 60.5t-154.5 17.5q-94 0 -169 -29t-133 -80.5t-100 -122t-68.5 -152
t-39 -171.5t-12.5 -181q0 -87 12.5 -168.5t47.5 -144.5t99 -101t166 -38q45 0 86 6t80 18t78 29.5t80 40.5z" />
    <glyph glyph-name="Egrave" unicode="&#xc8;" 
d="M1040 160l-48 -160h-920l51 200l192 1090l7 210h920l-28 -160h-725l-14 -190l-47 -265h635l-25 -145h-635l-71 -400l-42 -180h750zM971 1600h-150l-172 300l208 20z" />
    <glyph glyph-name="Eacute" unicode="&#xc9;" 
d="M1040 160l-48 -160h-920l51 200l192 1090l7 210h920l-28 -160h-725l-14 -190l-47 -265h635l-25 -145h-635l-71 -400l-42 -180h750zM803 1900l234 20l-297 -320h-150z" />
    <glyph glyph-name="Ecircumflex" unicode="&#xca;" 
d="M1040 160l-48 -160h-920l51 200l192 1090l7 210h920l-28 -160h-725l-14 -190l-47 -265h635l-25 -145h-635l-71 -400l-42 -180h750zM1045 1620h-150l-74 152l-14 88l-45 -87l-128 -153h-150l225 280l204 20z" />
    <glyph glyph-name="Edieresis" unicode="&#xcb;" 
d="M1040 160l-48 -160h-920l51 200l192 1090l7 210h920l-28 -160h-725l-14 -190l-47 -265h635l-25 -145h-635l-71 -400l-42 -180h750zM714 1800h200l-35 -200h-200zM1114 1800h200l-35 -200h-200z" />
    <glyph glyph-name="Igrave" unicode="&#xcc;" 
d="M338 1500h900l-28 -160h-358l-209 -1180h378l-48 -160h-900l28 160h356l209 1180h-376zM929 1600h-150l-172 300l208 20z" />
    <glyph glyph-name="Iacute" unicode="&#xcd;" 
d="M338 1500h900l-28 -160h-358l-209 -1180h378l-48 -160h-900l28 160h356l209 1180h-376zM894 1900l234 20l-297 -320h-150z" />
    <glyph glyph-name="Icircumflex" unicode="&#xce;" 
d="M338 1500h900l-28 -160h-358l-209 -1180h378l-48 -160h-900l28 160h356l209 1180h-376zM1142 1620h-150l-74 152l-14 88l-45 -87l-128 -153h-150l225 280l204 20z" />
    <glyph glyph-name="Idieresis" unicode="&#xcf;" 
d="M338 1500h900l-28 -160h-358l-209 -1180h378l-48 -160h-900l28 160h356l209 1180h-376zM580 1900h200l-35 -200h-200zM980 1900h200l-35 -200h-200z" />
    <glyph glyph-name="Eth" unicode="&#xd0;" 
d="M50 856h160l77 434l7 210q31 3 72 5t84.5 3.5t85.5 2t75 0.5q145 0 259.5 -32t194 -101.5t121.5 -179t42 -265.5q0 -161 -33.5 -292.5t-94 -235t-144 -180t-182.5 -126.5t-210.5 -74.5t-227.5 -24.5h-276l123 701h-160zM462 1150q-12 -67 -35 -197q-8 -43 -18 -97h240
l-27 -155h-240q-4 -25 -8 -52q-17 -97 -38.5 -218.5t-47.5 -270.5h20q143 0 253 33t191.5 90t136.5 133.5t88 163.5t47.5 181t14.5 185q0 90 -22.5 166t-76 130.5t-141.5 85t-219 30.5q-16 0 -34 -1t-35 -3l-38 -4z" />
    <glyph glyph-name="Ntilde" unicode="&#xd1;" 
d="M817 0l-327 948l-87 413l-6 -1l-12 -440l-163 -920h-180l228 1290l7 210l205 20l326 -963l92 -417l6 1l-1 439l162 920l184 20l-269 -1520h-165zM535 1655q12 55 36 96t54 67.5t63.5 38t65.5 7.5q39 -6 70 -20.5t59.5 -30t56 -27.5t58.5 -12q28 0 47.5 10.5t32.5 26.5
t20 34.5t11 35.5l95 -3q-6 -48 -29 -92.5t-55.5 -76.5t-72 -48.5t-78.5 -9.5q-28 5 -56 21.5t-57.5 33.5t-61.5 28t-68 6q-38 -5 -64.5 -24t-41.5 -64z" />
    <glyph glyph-name="Ograve" unicode="&#xd2;" 
d="M488 -17q-90 0 -161 27.5t-123 78t-86 120.5t-50 155.5t-14.5 183t20.5 202.5q18 105 50.5 202.5t78 183t103 155.5t127.5 120.5t152 78t174 27.5q90 0 161 -27.5t123 -78t86 -120.5t50 -155.5t14.5 -183t-19.5 -202.5q-19 -105 -51.5 -202.5t-77.5 -183t-103 -155.5
t-128 -120.5t-152 -78t-174 -27.5zM960 719q12 70 20.5 143t7.5 142.5t-14.5 131t-44 107t-81 72.5t-126.5 27q-72 0 -129 -24t-102 -65.5t-78 -97t-57.5 -117.5t-40.5 -127t-27 -126q-13 -71 -21 -145t-7 -143.5t14 -131t43.5 -107.5t81 -73t126.5 -27q71 0 128 24.5
t102 67t78.5 98t58 118t41 127.5t27.5 126zM1022 1600h-150l-172 300l208 20z" />
    <glyph glyph-name="Oacute" unicode="&#xd3;" 
d="M488 -17q-90 0 -161 27.5t-123 78t-86 120.5t-50 155.5t-14.5 183t20.5 202.5q18 105 50.5 202.5t78 183t103 155.5t127.5 120.5t152 78t174 27.5q90 0 161 -27.5t123 -78t86 -120.5t50 -155.5t14.5 -183t-19.5 -202.5q-19 -105 -51.5 -202.5t-77.5 -183t-103 -155.5
t-128 -120.5t-152 -78t-174 -27.5zM960 719q12 70 20.5 143t7.5 142.5t-14.5 131t-44 107t-81 72.5t-126.5 27q-72 0 -129 -24t-102 -65.5t-78 -97t-57.5 -117.5t-40.5 -127t-27 -126q-13 -71 -21 -145t-7 -143.5t14 -131t43.5 -107.5t81 -73t126.5 -27q71 0 128 24.5
t102 67t78.5 98t58 118t41 127.5t27.5 126zM920 1900l234 20l-297 -320h-150z" />
    <glyph glyph-name="Ocircumflex" unicode="&#xd4;" 
d="M488 -17q-90 0 -161 27.5t-123 78t-86 120.5t-50 155.5t-14.5 183t20.5 202.5q18 105 50.5 202.5t78 183t103 155.5t127.5 120.5t152 78t174 27.5q90 0 161 -27.5t123 -78t86 -120.5t50 -155.5t14.5 -183t-19.5 -202.5q-19 -105 -51.5 -202.5t-77.5 -183t-103 -155.5
t-128 -120.5t-152 -78t-174 -27.5zM960 719q12 70 20.5 143t7.5 142.5t-14.5 131t-44 107t-81 72.5t-126.5 27q-72 0 -129 -24t-102 -65.5t-78 -97t-57.5 -117.5t-40.5 -127t-27 -126q-13 -71 -21 -145t-7 -143.5t14 -131t43.5 -107.5t81 -73t126.5 -27q71 0 128 24.5
t102 67t78.5 98t58 118t41 127.5t27.5 126zM1138 1620h-150l-74 152l-14 88l-45 -87l-128 -153h-150l225 280l204 20z" />
    <glyph glyph-name="Otilde" unicode="&#xd5;" 
d="M488 -17q-90 0 -161 27.5t-123 78t-86 120.5t-50 155.5t-14.5 183t20.5 202.5q18 105 50.5 202.5t78 183t103 155.5t127.5 120.5t152 78t174 27.5q90 0 161 -27.5t123 -78t86 -120.5t50 -155.5t14.5 -183t-19.5 -202.5q-19 -105 -51.5 -202.5t-77.5 -183t-103 -155.5
t-128 -120.5t-152 -78t-174 -27.5zM960 719q12 70 20.5 143t7.5 142.5t-14.5 131t-44 107t-81 72.5t-126.5 27q-72 0 -129 -24t-102 -65.5t-78 -97t-57.5 -117.5t-40.5 -127t-27 -126q-13 -71 -21 -145t-7 -143.5t14 -131t43.5 -107.5t81 -73t126.5 -27q71 0 128 24.5
t102 67t78.5 98t58 118t41 127.5t27.5 126zM516 1655q12 55 36 96t54 67.5t63.5 38t65.5 7.5q39 -6 70 -20.5t59.5 -30t56 -27.5t58.5 -12q28 0 47.5 10.5t32.5 26.5t20 34.5t11 35.5l95 -3q-6 -48 -29 -92.5t-55.5 -76.5t-72 -48.5t-78.5 -9.5q-28 5 -56 21.5t-57.5 33.5
t-61.5 28t-68 6q-38 -5 -64.5 -24t-41.5 -64z" />
    <glyph glyph-name="Odieresis" unicode="&#xd6;" 
d="M488 -17q-90 0 -161 27.5t-123 78t-86 120.5t-50 155.5t-14.5 183t20.5 202.5q18 105 50.5 202.5t78 183t103 155.5t127.5 120.5t152 78t174 27.5q90 0 161 -27.5t123 -78t86 -120.5t50 -155.5t14.5 -183t-19.5 -202.5q-19 -105 -51.5 -202.5t-77.5 -183t-103 -155.5
t-128 -120.5t-152 -78t-174 -27.5zM960 719q12 70 20.5 143t7.5 142.5t-14.5 131t-44 107t-81 72.5t-126.5 27q-72 0 -129 -24t-102 -65.5t-78 -97t-57.5 -117.5t-40.5 -127t-27 -126q-13 -71 -21 -145t-7 -143.5t14 -131t43.5 -107.5t81 -73t126.5 -27q71 0 128 24.5
t102 67t78.5 98t58 118t41 127.5t27.5 126zM552 1800h200l-35 -200h-200zM952 1800h200l-35 -200h-200z" />
    <glyph glyph-name="multiply" unicode="&#xd7;" 
d="M760 627l350 -424l-142 -101l-309 375h1l-41 99l-35 -99l-442 -375l-107 101l501 424l-351 425l143 101l309 -376l40 -98l36 98l441 376l106 -101z" />
    <glyph glyph-name="Oslash" unicode="&#xd8;" 
d="M488 -17q-90 0 -161 27q-40 16 -74 38l-100 -148h-210l190 279q-8 15 -15 30q-34 70 -50 155.5t-14.5 183t20.5 202.5q18 105 50.5 202.5t78 183t103 155.5t127.5 120.5t152 78t174 27.5q90 0 161 -28q42 -16 77 -41l103 152h200l-188 -278q9 -15 17 -31
q34 -70 50 -155.5t14.5 -183t-19.5 -202.5q-19 -105 -51.5 -202.5t-77.5 -183t-103 -155.5t-128 -120.5t-152 -78t-174 -27.5zM848 1315q-50 27 -126 27q-72 0 -129 -24t-102 -65.5t-78 -97t-57.5 -117.5t-40.5 -127t-27 -126q-13 -71 -21 -145t-7 -144q1 -60 10 -115
l618 907q-18 15 -40 27zM960 719q12 70 20.5 143t7.5 142q-1 61 -12 116l-615 -911q17 -14 37 -24q51 -27 127 -27q71 0 128 24.5t102 67t78.5 98t58 118t41 127.5t27.5 126z" />
    <glyph glyph-name="Ugrave" unicode="&#xd9;" 
d="M1226 1500l-172 -977q-24 -136 -74 -237.5t-123.5 -168.5t-168.5 -100.5t-209 -33.5q-122 0 -199.5 42.5t-118 120t-46 186.5t17.5 241l126 717l7 210l224 20l-170 -966q-17 -95 -11.5 -169.5t31.5 -126t71 -78.5t108 -27q147 0 229 87.5t113 263.5l175 996h190z
M955 1600h-150l-172 300l208 20z" />
    <glyph glyph-name="Uacute" unicode="&#xda;" 
d="M1226 1500l-172 -977q-24 -136 -74 -237.5t-123.5 -168.5t-168.5 -100.5t-209 -33.5q-122 0 -199.5 42.5t-118 120t-46 186.5t17.5 241l126 717l7 210l224 20l-170 -966q-17 -95 -11.5 -169.5t31.5 -126t71 -78.5t108 -27q147 0 229 87.5t113 263.5l175 996h190z
M798 1900l234 20l-297 -320h-150z" />
    <glyph glyph-name="Ucircumflex" unicode="&#xdb;" 
d="M1226 1500l-172 -977q-24 -136 -74 -237.5t-123.5 -168.5t-168.5 -100.5t-209 -33.5q-122 0 -199.5 42.5t-118 120t-46 186.5t17.5 241l126 717l7 210l224 20l-170 -966q-17 -95 -11.5 -169.5t31.5 -126t71 -78.5t108 -27q147 0 229 87.5t113 263.5l175 996h190z
M1046 1620h-150l-74 152l-14 88l-45 -87l-128 -153h-150l225 280l204 20z" />
    <glyph glyph-name="Udieresis" unicode="&#xdc;" 
d="M1226 1500l-172 -977q-24 -136 -74 -237.5t-123.5 -168.5t-168.5 -100.5t-209 -33.5q-122 0 -199.5 42.5t-118 120t-46 186.5t17.5 241l126 717l7 210l224 20l-170 -966q-17 -95 -11.5 -169.5t31.5 -126t71 -78.5t108 -27q147 0 229 87.5t113 263.5l175 996h190z
M495 1800h200l-35 -200h-200zM895 1800h200l-35 -200h-200z" />
    <glyph glyph-name="Yacute" unicode="&#xdd;" 
d="M588 935l388 565h192l-586 -854l-113 -646h-200l113 645l-285 855l208 20l178 -566l35 -249zM731 1900l234 20l-297 -320h-150z" />
    <glyph glyph-name="Thorn" unicode="&#xde;" 
d="M344 1500h220l-35 -199h200q25 0 63.5 -7.5t81.5 -25.5t85.5 -48.5t75.5 -76.5t53 -108.5t18 -145.5q-1 -34 -6.5 -75.5t-18.5 -85t-34.5 -87t-54 -82.5t-78 -71t-106.5 -53q-56 -20 -120.5 -27t-157.5 -7h-160l-70 -401h-200l229 1299zM502 1151l-104 -594h189
q81 0 144 24t106.5 67.5t66 105t22.5 135.5q0 45 -15 92t-46 84.5t-79.5 61.5t-114.5 24h-169z" />
    <glyph glyph-name="germandbls" unicode="&#xdf;" 
d="M950 1148q6 48 -8 87.5t-40.5 69t-61.5 46t-71 18.5q-78 3 -124 -13t-78 -52q-28 -31 -42.5 -65t-22.5 -79l-207 -1177l-195 17l195 1111q34 195 158 307q28 25 57.5 43.5t69 31t92 18.5t126.5 6q82 0 147.5 -26.5t110 -73t65.5 -110t14 -138.5q-6 -63 -24.5 -111
t-49 -85.5t-71.5 -64.5t-91 -48l-162 -44l145 -14q58 -18 105.5 -48.5t78.5 -73t43.5 -98t1.5 -122.5q-9 -94 -41 -164.5t-79 -121.5t-106.5 -84.5t-124.5 -53.5t-132.5 -28t-129.5 -8l-32 160q99 0 178 11.5t136.5 43.5t92.5 88.5t46 146.5q17 141 -66.5 210.5t-246.5 69.5
l-42 155q64 0 129 12.5t119 43t91.5 81t46.5 126.5z" />
    <glyph glyph-name="agrave" unicode="&#xe0;" 
d="M927 930q-18 8 -43.5 14t-48.5 9q-27 4 -56 5q-102 0 -178 -35t-129 -96t-84 -142t-42 -173q-6 -50 -6 -91q0 -69 14 -121t39 -86.5t58 -52t72 -17.5q52 0 96 14t80.5 37t67 52t54.5 59zM768 0l28 162l-115 -113q-21 -17 -41.5 -29.5t-45 -20.5t-56.5 -12t-76 -4
q-71 0 -127 32t-95 89.5t-59.5 137.5t-20.5 177q0 28 1.5 57.5t5.5 59.5q13 111 58 215.5t123.5 185.5t191 130.5t260.5 49.5q84 0 170 -14t163 -40l-152 -883l-11 -180h-202zM1010 1200h-150l-172 300l208 20z" />
    <glyph glyph-name="aacute" unicode="&#xe1;" 
d="M927 930q-18 8 -43.5 14t-48.5 9q-27 4 -56 5q-102 0 -178 -35t-129 -96t-84 -142t-42 -173q-6 -50 -6 -91q0 -69 14 -121t39 -86.5t58 -52t72 -17.5q52 0 96 14t80.5 37t67 52t54.5 59zM768 0l28 162l-115 -113q-21 -17 -41.5 -29.5t-45 -20.5t-56.5 -12t-76 -4
q-71 0 -127 32t-95 89.5t-59.5 137.5t-20.5 177q0 28 1.5 57.5t5.5 59.5q13 111 58 215.5t123.5 185.5t191 130.5t260.5 49.5q84 0 170 -14t163 -40l-152 -883l-11 -180h-202zM936 1500l234 20l-297 -320h-150z" />
    <glyph glyph-name="acircumflex" unicode="&#xe2;" 
d="M927 930q-18 8 -43.5 14t-48.5 9q-27 4 -56 5q-102 0 -178 -35t-129 -96t-84 -142t-42 -173q-6 -50 -6 -91q0 -69 14 -121t39 -86.5t58 -52t72 -17.5q52 0 96 14t80.5 37t67 52t54.5 59zM768 0l28 162l-115 -113q-21 -17 -41.5 -29.5t-45 -20.5t-56.5 -12t-76 -4
q-71 0 -127 32t-95 89.5t-59.5 137.5t-20.5 177q0 28 1.5 57.5t5.5 59.5q13 111 58 215.5t123.5 185.5t191 130.5t260.5 49.5q84 0 170 -14t163 -40l-152 -883l-11 -180h-202zM1129 1220h-150l-74 152l-14 88l-45 -87l-128 -153h-150l225 280l204 20z" />
    <glyph glyph-name="atilde" unicode="&#xe3;" 
d="M927 930q-18 8 -43.5 14t-48.5 9q-27 4 -56 5q-102 0 -178 -35t-129 -96t-84 -142t-42 -173q-6 -50 -6 -91q0 -69 14 -121t39 -86.5t58 -52t72 -17.5q52 0 96 14t80.5 37t67 52t54.5 59zM768 0l28 162l-115 -113q-21 -17 -41.5 -29.5t-45 -20.5t-56.5 -12t-76 -4
q-71 0 -127 32t-95 89.5t-59.5 137.5t-20.5 177q0 28 1.5 57.5t5.5 59.5q13 111 58 215.5t123.5 185.5t191 130.5t260.5 49.5q84 0 170 -14t163 -40l-152 -883l-11 -180h-202zM528 1275q12 55 36 96t54 67.5t63.5 38t65.5 7.5q39 -6 70 -20.5t59.5 -30t56 -27.5t58.5 -12
q28 0 47.5 10.5t32.5 26.5t20 34.5t11 35.5l95 -3q-6 -48 -29 -92.5t-55.5 -76.5t-72 -48.5t-78.5 -9.5q-28 5 -56 21.5t-57.5 33.5t-61.5 28t-68 6q-38 -5 -64.5 -24t-41.5 -64z" />
    <glyph glyph-name="adieresis" unicode="&#xe4;" 
d="M927 930q-18 8 -43.5 14t-48.5 9q-27 4 -56 5q-102 0 -178 -35t-129 -96t-84 -142t-42 -173q-6 -50 -6 -91q0 -69 14 -121t39 -86.5t58 -52t72 -17.5q52 0 96 14t80.5 37t67 52t54.5 59zM768 0l28 162l-115 -113q-21 -17 -41.5 -29.5t-45 -20.5t-56.5 -12t-76 -4
q-71 0 -127 32t-95 89.5t-59.5 137.5t-20.5 177q0 28 1.5 57.5t5.5 59.5q13 111 58 215.5t123.5 185.5t191 130.5t260.5 49.5q84 0 170 -14t163 -40l-152 -883l-11 -180h-202zM620 1500h200l-35 -200h-200zM1020 1500h200l-35 -200h-200z" />
    <glyph glyph-name="aring" unicode="&#xe5;" 
d="M927 930q-18 8 -43.5 14t-48.5 9q-27 4 -56 5q-102 0 -178 -35t-129 -96t-84 -142t-42 -173q-6 -50 -6 -91q0 -69 14 -121t39 -86.5t58 -52t72 -17.5q52 0 96 14t80.5 37t67 52t54.5 59zM768 0l28 162l-115 -113q-21 -17 -41.5 -29.5t-45 -20.5t-56.5 -12t-76 -4
q-71 0 -127 32t-95 89.5t-59.5 137.5t-20.5 177q0 28 1.5 57.5t5.5 59.5q13 111 58 215.5t123.5 185.5t191 130.5t260.5 49.5q84 0 170 -14t163 -40l-152 -883l-11 -180h-202zM944 1636q48 -8 85.5 -29.5t62.5 -53t37 -71t10 -83.5q-3 -57 -27.5 -102.5t-63 -77t-87 -47.5
t-99.5 -14q-44 1 -81.5 21.5t-64.5 53.5t-41 76t-11 90q3 50 27.5 96.5t63.5 80.5t88.5 51t100.5 9zM881 1275q24 -5 49.5 2t47 23.5t34.5 41.5t11 56q-3 52 -26.5 81.5t-73.5 39.5q-26 5 -51.5 -3.5t-46 -26t-33 -41.5t-11.5 -50q3 -102 100 -123z" />
    <glyph glyph-name="ae" unicode="&#xe6;" 
d="M1262 650q-3 -19 -8.5 -40.5t-12 -42.5t-13 -39t-12.5 -28h-480q-14 -75 -14 -140t14 -113.5t43 -76t74 -27.5q38 0 70.5 9.5t58 22.5t42.5 27t25 23l112 -96q-30 -30 -61.5 -56.5t-70.5 -46.5t-89 -31.5t-117 -11.5q-53 0 -96.5 16.5t-76 44.5t-52 65.5t-24.5 79.5
q-24 -42 -50.5 -79.5t-61 -65.5t-78.5 -44.5t-103 -16.5q-68 0 -123 23.5t-91 69t-50 113t1 155.5q16 93 50 161.5t82 114t108.5 68t129.5 22.5q38 0 66.5 -6t46.5 -14q21 -9 35 -20l6 35q10 59 16.5 106t0.5 79.5t-28.5 49.5t-69.5 17q-33 0 -65.5 -9t-58.5 -20
q-31 -12 -58 -28l-52 144q45 20 97 36q45 14 102.5 25.5t122.5 11.5q42 0 73 -12.5t51.5 -34t31.5 -49.5t15 -59q15 31 40.5 59t61.5 49.5t82 34t100 12.5q97 0 157 -30t89 -89t30.5 -146.5t-18.5 -201.5zM512 533q-7 4 -19 8q-11 3 -27.5 6t-39.5 3q-93 0 -150.5 -46.5
t-77.5 -158.5q-8 -45 -6 -82t16 -64t41 -41.5t68 -14.5q40 0 68 20t46 45q21 29 35 66zM1098 730q8 46 11 87.5t-6 72.5t-32.5 49t-68.5 18q-49 0 -87.5 -19.5t-67 -51t-46.5 -72t-25 -82.5l-89 -109l127 27h270z" />
    <glyph glyph-name="ccedilla" unicode="&#xe7;" 
d="M1043 885q-37 32 -100.5 52t-168.5 20q-84 0 -156 -31.5t-128 -85.5t-93 -125.5t-51 -150.5q-9 -48 -9 -95q0 -66 18.5 -124t56 -101t95.5 -67.5t136 -24.5q42 0 88 13t88.5 30t76 35t50.5 28l53 -143q-30 -22 -73.5 -45t-96 -42.5t-111.5 -31.5q-23 -5 -46 -8
q12 -22 22 -47q11 -27 17 -63t1 -76q-7 -50 -30 -89t-57.5 -65.5t-79 -40.5t-94.5 -14q-42 0 -85.5 13.5t-79.5 30.5q-42 19 -81 45l89 100q23 -17 49 -30q22 -11 49.5 -21t56.5 -10q43 -1 73 20t38 70q5 33 -5 67t-25 61q-16 28 -36 54q-48 9 -89 28q-85 39 -143 104.5
t-88.5 153t-30.5 185.5q0 28 2.5 56t7.5 57q18 104 73.5 201.5t141 172.5t196.5 120.5t240 45.5q122 0 208.5 -28.5t149.5 -88.5z" />
    <glyph glyph-name="egrave" unicode="&#xe8;" 
d="M1017 139q-31 -27 -76.5 -55t-104.5 -50.5t-130.5 -36.5t-153.5 -14q-113 0 -193 38.5t-131.5 103.5t-75.5 150.5t-24 179.5q0 47 6 95q9 73 32.5 144t61 134t88 116t113.5 91.5t137.5 60t159.5 21.5q100 0 177.5 -28t130.5 -79t80.5 -122.5t27.5 -158.5q0 -42 -7 -83
q-5 -31 -12.5 -57t-15.5 -46q-9 -23 -18 -43h-781q-6 -23 -8.5 -44t-2.5 -41q0 -62 23 -114t61 -89.5t87 -58t102 -20.5q64 0 120.5 12.5t102 30.5t79.5 37t53 32zM959 650q2 3 5 16t5.5 29.5t4 32t1.5 24.5q0 36 -11 72.5t-40 66.5t-80 48.5t-131 18.5q-65 0 -119.5 -18.5
t-98 -50t-75.5 -72.5t-52 -85l-82 -109l193 27h480zM838 1200h-150l-172 300l208 20z" />
    <glyph glyph-name="eacute" unicode="&#xe9;" 
d="M1017 139q-31 -27 -76.5 -55t-104.5 -50.5t-130.5 -36.5t-153.5 -14q-113 0 -193 38.5t-131.5 103.5t-75.5 150.5t-24 179.5q0 47 6 95q9 73 32.5 144t61 134t88 116t113.5 91.5t137.5 60t159.5 21.5q100 0 177.5 -28t130.5 -79t80.5 -122.5t27.5 -158.5q0 -42 -7 -83
q-5 -31 -12.5 -57t-15.5 -46q-9 -23 -18 -43h-781q-6 -23 -8.5 -44t-2.5 -41q0 -62 23 -114t61 -89.5t87 -58t102 -20.5q64 0 120.5 12.5t102 30.5t79.5 37t53 32zM959 650q2 3 5 16t5.5 29.5t4 32t1.5 24.5q0 36 -11 72.5t-40 66.5t-80 48.5t-131 18.5q-65 0 -119.5 -18.5
t-98 -50t-75.5 -72.5t-52 -85l-82 -109l193 27h480zM909 1500l234 20l-297 -320h-150z" />
    <glyph glyph-name="ecircumflex" unicode="&#xea;" 
d="M1017 139q-31 -27 -76.5 -55t-104.5 -50.5t-130.5 -36.5t-153.5 -14q-113 0 -193 38.5t-131.5 103.5t-75.5 150.5t-24 179.5q0 47 6 95q9 73 32.5 144t61 134t88 116t113.5 91.5t137.5 60t159.5 21.5q100 0 177.5 -28t130.5 -79t80.5 -122.5t27.5 -158.5q0 -42 -7 -83
q-5 -31 -12.5 -57t-15.5 -46q-9 -23 -18 -43h-781q-6 -23 -8.5 -44t-2.5 -41q0 -62 23 -114t61 -89.5t87 -58t102 -20.5q64 0 120.5 12.5t102 30.5t79.5 37t53 32zM959 650q2 3 5 16t5.5 29.5t4 32t1.5 24.5q0 36 -11 72.5t-40 66.5t-80 48.5t-131 18.5q-65 0 -119.5 -18.5
t-98 -50t-75.5 -72.5t-52 -85l-82 -109l193 27h480zM1051 1220h-150l-74 152l-14 88l-45 -87l-128 -153h-150l225 280l204 20z" />
    <glyph glyph-name="edieresis" unicode="&#xeb;" 
d="M1017 139q-31 -27 -76.5 -55t-104.5 -50.5t-130.5 -36.5t-153.5 -14q-113 0 -193 38.5t-131.5 103.5t-75.5 150.5t-24 179.5q0 47 6 95q9 73 32.5 144t61 134t88 116t113.5 91.5t137.5 60t159.5 21.5q100 0 177.5 -28t130.5 -79t80.5 -122.5t27.5 -158.5q0 -42 -7 -83
q-5 -31 -12.5 -57t-15.5 -46q-9 -23 -18 -43h-781q-6 -23 -8.5 -44t-2.5 -41q0 -62 23 -114t61 -89.5t87 -58t102 -20.5q64 0 120.5 12.5t102 30.5t79.5 37t53 32zM959 650q2 3 5 16t5.5 29.5t4 32t1.5 24.5q0 36 -11 72.5t-40 66.5t-80 48.5t-131 18.5q-65 0 -119.5 -18.5
t-98 -50t-75.5 -72.5t-52 -85l-82 -109l193 27h480zM542 1500h200l-35 -200h-200zM942 1500h200l-35 -200h-200z" />
    <glyph glyph-name="igrave" unicode="&#xec;" 
d="M631 393q-9 -52 -10.5 -96t8 -76t31.5 -50t59 -18q49 0 97 8t87 18.5t65 19.5t32 11l12 -154q-6 -3 -34.5 -15t-72.5 -24.5t-102 -23t-124 -10.5q-98 0 -153 32t-78.5 88.5t-22 133.5t17.5 166l101 574l-55 -22h-239v145h506l-106 -599zM772 1200h-150l-172 300l208 20z
" />
    <glyph glyph-name="iacute" unicode="&#xed;" 
d="M631 393q-9 -52 -10.5 -96t8 -76t31.5 -50t59 -18q49 0 97 8t87 18.5t65 19.5t32 11l12 -154q-6 -3 -34.5 -15t-72.5 -24.5t-102 -23t-124 -10.5q-98 0 -153 32t-78.5 88.5t-22 133.5t17.5 166l101 574l-55 -22h-239v145h506l-106 -599zM847 1500l234 20l-297 -320h-150z
" />
    <glyph glyph-name="icircumflex" unicode="&#xee;" 
d="M631 393q-9 -52 -10.5 -96t8 -76t31.5 -50t59 -18q49 0 97 8t87 18.5t65 19.5t32 11l12 -154q-6 -3 -34.5 -15t-72.5 -24.5t-102 -23t-124 -10.5q-98 0 -153 32t-78.5 88.5t-22 133.5t17.5 166l101 574l-55 -22h-239v145h506l-106 -599zM938 1220h-150l-74 152l-14 88
l-45 -87l-128 -153h-150l225 280l204 20z" />
    <glyph glyph-name="idieresis" unicode="&#xef;" 
d="M631 393q-9 -52 -10.5 -96t8 -76t31.5 -50t59 -18q49 0 97 8t87 18.5t65 19.5t32 11l12 -154q-6 -3 -34.5 -15t-72.5 -24.5t-102 -23t-124 -10.5q-98 0 -153 32t-78.5 88.5t-22 133.5t17.5 166l101 574l-55 -22h-239v145h506l-106 -599zM435 1500h200l-35 -200h-200z
M835 1500h200l-35 -200h-200z" />
    <glyph glyph-name="eth" unicode="&#xf0;" 
d="M545 1168l244 179l-123 -21q-45 26 -91.5 39t-100.5 13q-13 0 -22.5 -1t-12.5 -2v143q17 2 32 2h30q110 0 201.5 -30t165.5 -85l159 117l77 -115l-212 -155l118 3q73 -131 97 -292t12 -343q-4 -57 -25 -129.5t-58.5 -147t-90 -144.5t-119.5 -122.5t-147.5 -79.5
t-172.5 -17q-108 12 -181 47t-117 95t-62.5 146t-17.5 201q0 75 22 140.5t59 118.5t87.5 93.5t108 66.5t120.5 36t125 3q67 -8 128.5 -25t123.5 -55l62 -117q1 74 -7.5 142.5t-26.5 128.5t-47 109t-69 84l-192 -141zM921 607q-19 23 -48.5 48.5t-66.5 48t-80 40t-89 23.5
q-72 10 -132 -13t-103.5 -67.5t-68.5 -106t-28 -129.5q-5 -137 54 -214t174 -97q60 -10 113 8.5t96.5 57t76 92.5t52.5 114q18 56 29.5 101t20.5 94z" />
    <glyph glyph-name="ntilde" unicode="&#xf1;" 
d="M292 0h-190l194 1100l193 21l-34 -194l82 117q20 12 49 25t69 23.5t91.5 17.5t116.5 7q137 0 208 -72.5t71 -200.5q0 -45 -9 -94l-132 -750h-190l132 750q2 14 3.5 27t1.5 25q0 49 -12.5 79.5t-36 47.5t-56.5 22.5t-73 5.5q-53 0 -100 -12t-88.5 -30.5t-77 -40
t-65.5 -40.5zM500 1275q12 55 36 96t54 67.5t63.5 38t65.5 7.5q39 -6 70 -20.5t59.5 -30t56 -27.5t58.5 -12q28 0 47.5 10.5t32.5 26.5t20 34.5t11 35.5l95 -3q-6 -48 -29 -92.5t-55.5 -76.5t-72 -48.5t-78.5 -9.5q-28 5 -56 21.5t-57.5 33.5t-61.5 28t-68 6
q-38 -5 -64.5 -24t-41.5 -64z" />
    <glyph glyph-name="ograve" unicode="&#xf2;" 
d="M567 -17q-99 0 -180.5 35t-140 99t-90.5 154.5t-32 201.5q0 143 44.5 261.5t124 203.5t190 132t243.5 47q102 0 185 -33t142 -95.5t91 -153t32 -204.5q0 -149 -42.5 -269t-121.5 -204t-191.5 -129.5t-253.5 -45.5zM993 622q0 75 -18 137.5t-54 108t-89.5 70.5t-125.5 25
q-65 0 -120 -19.5t-99 -53.5t-78 -80.5t-56.5 -100t-34 -112.5t-11.5 -117q0 -75 17 -138t51.5 -108.5t87 -70.5t123.5 -25q64 0 119 19.5t100 54t80 81t59 100.5t36.5 112.5t12.5 116.5zM836 1200h-150l-172 300l208 20z" />
    <glyph glyph-name="oacute" unicode="&#xf3;" 
d="M567 -17q-99 0 -180.5 35t-140 99t-90.5 154.5t-32 201.5q0 143 44.5 261.5t124 203.5t190 132t243.5 47q102 0 185 -33t142 -95.5t91 -153t32 -204.5q0 -149 -42.5 -269t-121.5 -204t-191.5 -129.5t-253.5 -45.5zM993 622q0 75 -18 137.5t-54 108t-89.5 70.5t-125.5 25
q-65 0 -120 -19.5t-99 -53.5t-78 -80.5t-56.5 -100t-34 -112.5t-11.5 -117q0 -75 17 -138t51.5 -108.5t87 -70.5t123.5 -25q64 0 119 19.5t100 54t80 81t59 100.5t36.5 112.5t12.5 116.5zM848 1500l234 20l-297 -320h-150z" />
    <glyph glyph-name="ocircumflex" unicode="&#xf4;" 
d="M567 -17q-99 0 -180.5 35t-140 99t-90.5 154.5t-32 201.5q0 143 44.5 261.5t124 203.5t190 132t243.5 47q102 0 185 -33t142 -95.5t91 -153t32 -204.5q0 -149 -42.5 -269t-121.5 -204t-191.5 -129.5t-253.5 -45.5zM993 622q0 75 -18 137.5t-54 108t-89.5 70.5t-125.5 25
q-65 0 -120 -19.5t-99 -53.5t-78 -80.5t-56.5 -100t-34 -112.5t-11.5 -117q0 -75 17 -138t51.5 -108.5t87 -70.5t123.5 -25q64 0 119 19.5t100 54t80 81t59 100.5t36.5 112.5t12.5 116.5zM995 1220h-150l-74 152l-14 88l-45 -87l-128 -153h-150l225 280l204 20z" />
    <glyph glyph-name="otilde" unicode="&#xf5;" 
d="M567 -17q-99 0 -180.5 35t-140 99t-90.5 154.5t-32 201.5q0 143 44.5 261.5t124 203.5t190 132t243.5 47q102 0 185 -33t142 -95.5t91 -153t32 -204.5q0 -149 -42.5 -269t-121.5 -204t-191.5 -129.5t-253.5 -45.5zM993 622q0 75 -18 137.5t-54 108t-89.5 70.5t-125.5 25
q-65 0 -120 -19.5t-99 -53.5t-78 -80.5t-56.5 -100t-34 -112.5t-11.5 -117q0 -75 17 -138t51.5 -108.5t87 -70.5t123.5 -25q64 0 119 19.5t100 54t80 81t59 100.5t36.5 112.5t12.5 116.5zM410 1275q12 55 36 96t54 67.5t63.5 38t65.5 7.5q39 -6 70 -20.5t59.5 -30t56 -27.5
t58.5 -12q28 0 47.5 10.5t32.5 26.5t20 34.5t11 35.5l95 -3q-6 -48 -29 -92.5t-55.5 -76.5t-72 -48.5t-78.5 -9.5q-28 5 -56 21.5t-57.5 33.5t-61.5 28t-68 6q-38 -5 -64.5 -24t-41.5 -64z" />
    <glyph glyph-name="odieresis" unicode="&#xf6;" 
d="M567 -17q-99 0 -180.5 35t-140 99t-90.5 154.5t-32 201.5q0 143 44.5 261.5t124 203.5t190 132t243.5 47q102 0 185 -33t142 -95.5t91 -153t32 -204.5q0 -149 -42.5 -269t-121.5 -204t-191.5 -129.5t-253.5 -45.5zM993 622q0 75 -18 137.5t-54 108t-89.5 70.5t-125.5 25
q-65 0 -120 -19.5t-99 -53.5t-78 -80.5t-56.5 -100t-34 -112.5t-11.5 -117q0 -75 17 -138t51.5 -108.5t87 -70.5t123.5 -25q64 0 119 19.5t100 54t80 81t59 100.5t36.5 112.5t12.5 116.5zM514 1500h200l-35 -200h-200zM914 1500h200l-35 -200h-200z" />
    <glyph glyph-name="divide" unicode="&#xf7;" 
d="M200 700h900v-155h-900v155zM471 346q6 31 22 58t40 47t52.5 31.5t59.5 11.5t55.5 -11.5t41 -31.5t24 -47t1.5 -58q-5 -31 -21.5 -58.5t-40 -47.5t-52.5 -32t-59 -12q-31 0 -56 12t-42 32t-23.5 47.5t-1.5 58.5zM585 961q6 31 22 58t40 47t52.5 31.5t59.5 11.5
t55.5 -11.5t41 -31.5t24 -47t1.5 -58q-5 -31 -21.5 -58.5t-40 -47.5t-52.5 -32t-59 -12q-31 0 -56 12t-42 32t-23.5 47.5t-1.5 58.5z" />
    <glyph glyph-name="oslash" unicode="&#xf8;" 
d="M567 -17q-78 0 -146 22l-63 -105h-210l119 195q-11 11 -21 22q-58 64 -90 154.5t-32 201.5q0 143 44.5 261.5t124 203.5t190 132t243.5 47q82 0 152 -22l70 114h200l-119 -197l24 -24q59 -62 91 -152.5t32 -204.5q0 -149 -42.5 -269t-121.5 -204t-191.5 -129.5
t-253.5 -45.5zM706 963q-65 0 -120 -19.5t-99 -53.5t-78 -80.5t-56.5 -100t-34 -112.5t-11.5 -117q0 -75 17 -138q13 -51 39 -91l428 701q-38 11 -85 11zM993 622q0 75 -18 137q-15 52 -43 93l-425 -705q36 -9 79 -9q64 0 119 19.5t100 54t80 81t59 100.5t36.5 112.5
t12.5 116.5z" />
    <glyph glyph-name="ugrave" unicode="&#xf9;" 
d="M967 1100l194 21l-198 -1121h-190l29 163l-80 -107q-24 -14 -47 -27t-54.5 -23t-78 -16.5t-117.5 -6.5q-69 0 -125 26t-95.5 71.5t-61 106.5t-21.5 131q0 20 1.5 41t5.5 42l128 699l194 21l-132 -720q-4 -20 -5.5 -38.5t-1.5 -36.5q0 -40 10 -73.5t32.5 -58t58 -38
t85.5 -13.5q66 0 114.5 10t85.5 26.5t65.5 37t55.5 41.5zM892 1200h-150l-172 300l208 20z" />
    <glyph glyph-name="uacute" unicode="&#xfa;" 
d="M967 1100l194 21l-198 -1121h-190l29 163l-80 -107q-24 -14 -47 -27t-54.5 -23t-78 -16.5t-117.5 -6.5q-69 0 -125 26t-95.5 71.5t-61 106.5t-21.5 131q0 20 1.5 41t5.5 42l128 699l194 21l-132 -720q-4 -20 -5.5 -38.5t-1.5 -36.5q0 -40 10 -73.5t32.5 -58t58 -38
t85.5 -13.5q66 0 114.5 10t85.5 26.5t65.5 37t55.5 41.5zM836 1500l234 20l-297 -320h-150z" />
    <glyph glyph-name="ucircumflex" unicode="&#xfb;" 
d="M967 1100l194 21l-198 -1121h-190l29 163l-80 -107q-24 -14 -47 -27t-54.5 -23t-78 -16.5t-117.5 -6.5q-69 0 -125 26t-95.5 71.5t-61 106.5t-21.5 131q0 20 1.5 41t5.5 42l128 699l194 21l-132 -720q-4 -20 -5.5 -38.5t-1.5 -36.5q0 -40 10 -73.5t32.5 -58t58 -38
t85.5 -13.5q66 0 114.5 10t85.5 26.5t65.5 37t55.5 41.5zM1008 1220h-150l-74 152l-14 88l-45 -87l-128 -153h-150l225 280l204 20z" />
    <glyph glyph-name="udieresis" unicode="&#xfc;" 
d="M967 1100l194 21l-198 -1121h-190l29 163l-80 -107q-24 -14 -47 -27t-54.5 -23t-78 -16.5t-117.5 -6.5q-69 0 -125 26t-95.5 71.5t-61 106.5t-21.5 131q0 20 1.5 41t5.5 42l128 699l194 21l-132 -720q-4 -20 -5.5 -38.5t-1.5 -36.5q0 -40 10 -73.5t32.5 -58t58 -38
t85.5 -13.5q66 0 114.5 10t85.5 26.5t65.5 37t55.5 41.5zM518 1500h200l-35 -200h-200zM918 1500h200l-35 -200h-200z" />
    <glyph glyph-name="yacute" unicode="&#xfd;" 
d="M666 364l398 736l193 21l-613 -1138q-64 -119 -114.5 -206t-99.5 -144t-102.5 -85t-123.5 -28h-4q-65 0 -111 20.5t-81 56.5l92 107q14 -12 41 -21.5t51 -10.5h4q36 0 64 14t57 46.5t63 86.5t82 134l-215 1147l173 21q11 -57 22 -119l22 -122q13 -67 27 -138
q31 -166 71 -378l11 -232zM890 1500l234 20l-297 -320h-150z" />
    <glyph glyph-name="thorn" unicode="&#xfe;" 
d="M568 1520l-88 -500q43 29 92 50q111 47 244 47q102 0 185 -33t142 -95.5t91 -153t32 -204.5q0 -149 -42.5 -269t-121.5 -204t-191.5 -129.5t-253.5 -45.5q-99 0 -180.5 35t-140.5 99q-7 7 -13 15l-94 -532h-194l335 1900zM1083 622q0 75 -18 137.5t-54 108t-89.5 70.5
t-125.5 25q-65 0 -120 -19.5t-99 -53.5t-78 -80.5t-56.5 -100t-34 -112.5t-11.5 -117q0 -75 17 -138t51.5 -108.5t87 -70.5t123.5 -25q64 0 119 19.5t100 54t80 81t59 100.5t36.5 112.5t12.5 116.5z" />
    <glyph glyph-name="ydieresis" unicode="&#xff;" 
d="M666 364l398 736l193 21l-613 -1138q-64 -119 -114.5 -206t-99.5 -144t-102.5 -85t-123.5 -28h-4q-65 0 -111 20.5t-81 56.5l92 107q14 -12 41 -21.5t51 -10.5h4q36 0 64 14t57 46.5t63 86.5t82 134l-215 1147l173 21q11 -57 22 -119l22 -122q13 -67 27 -138
q31 -166 71 -378l11 -232zM935 1500h200l-35 -200h-200zM535 1500h200l-35 -200h-200z" />
    <glyph glyph-name="OE" unicode="&#x152;" 
d="M419 -17q-114 0 -203 42.5t-142.5 134.5t-67 238t22.5 352t101 351.5t151 238t190.5 135t218.5 42.5l114 -87l3 70h625l-28 -160h-415l-14 -190l-47 -265h325l-25 -145h-325l-71 -400l-42 -180h440l-48 -160h-640l23 70zM792 1305q-23 20 -59.5 31t-78.5 11
q-150 0 -256.5 -143.5t-154.5 -418.5q-29 -163 -29 -282t27 -197t81 -115.5t133 -37.5q20 0 37 1.5t33.5 5t33.5 11t37 19.5z" />
    <glyph glyph-name="oe" unicode="&#x153;" 
d="M472 1117q51 0 88 -20t62.5 -51t41 -70t23.5 -76q17 37 50 76t76.5 70t95.5 51t106 20q104 0 165 -36t88 -99t25.5 -148.5t-20.5 -183.5q-4 -19 -9.5 -40.5t-11.5 -42.5t-12.5 -39t-12.5 -28h-480q-14 -75 -14 -140t14 -113.5t43 -76t74 -27.5q38 0 70.5 9.5t58 22.5
t42.5 27t25 23l112 -96q-30 -30 -61.5 -56.5t-70.5 -46.5t-89 -31.5t-117 -11.5q-47 0 -91 14t-79.5 41t-60 65t-32.5 86q-26 -46 -55 -83.5t-64 -64.5t-76.5 -42t-93.5 -16q-73 3 -123.5 28t-83 66t-48.5 96t-20.5 117t1 129.5t17.5 133.5q10 56 26.5 119.5t41.5 126
t59.5 120.5t81 102t105.5 70t133 26zM298 168q53 0 92.5 33t68 84.5t47.5 115.5t30 127q7 38 13 82.5t8 88t-2 84t-18 71.5t-39.5 49.5t-65.5 18.5q-53 0 -92 -34.5t-67.5 -87t-46.5 -114t-28 -116.5q-13 -75 -19 -147t3 -129t36 -91.5t80 -34.5zM825 650h280l14 80
q8 46 6 87.5t-16.5 72.5t-42.5 49t-73 18q-41 0 -74.5 -19.5t-59 -51.5t-44 -72t-28.5 -82l-89 -109z" />
    <glyph glyph-name="Scaron" unicode="&#x160;" 
d="M1086 1252q-31 25 -60.5 43.5t-60.5 30.5t-65.5 18t-75.5 6q-62 0 -120 -18t-103 -51t-72 -79t-27 -101q0 -52 24.5 -89.5t64 -68t90.5 -56.5t104.5 -54.5t104.5 -63t90.5 -81t64 -109t24.5 -147.5q0 -105 -44.5 -188.5t-120 -141t-174.5 -88.5t-207 -31
q-116 0 -223.5 36.5t-203.5 114.5l118 150q26 -26 60.5 -49.5t75.5 -41t87 -28t94 -10.5q56 0 115 14.5t108 47.5t80 86t31 130q0 55 -24.5 96.5t-64.5 75t-90.5 62t-103.5 58.5t-104 64.5t-90.5 80.5t-64 106t-24.5 140q0 100 44.5 175.5t118 125.5t169.5 75t198 25
q62 0 117 -13t102 -34t85.5 -47t68.5 -52zM978 1600l-197 20l-126 280h150l87 -133l6 -77l34 78l134 132h150z" />
    <glyph glyph-name="scaron" unicode="&#x161;" 
d="M1065 909q-17 9 -49.5 19.5t-69 19.5t-72.5 14.5t-61 5.5q-53 0 -112.5 -5.5t-110 -22t-83.5 -46t-33 -77.5q0 -33 24.5 -57t64 -42t90 -32t101.5 -26t98 -24t81 -26q37 -15 70 -37t57 -50.5t38 -63.5t14 -76q0 -78 -30.5 -138t-82 -104.5t-117.5 -74.5t-136.5 -48.5
t-141 -26.5t-129.5 -8q-34 0 -83.5 6.5t-100 18t-94.5 27.5t-67 34l91 142q22 -12 59 -24t78 -22t80.5 -16t66.5 -6q30 0 70 4t82 13.5t83.5 25t73.5 39.5t52 57t20 77q0 35 -22.5 59.5t-59 42t-83.5 30.5t-96.5 24.5t-97 23t-85.5 27.5q-45 19 -76 42.5t-50 50.5
t-27.5 57.5t-8.5 62.5q0 96 46 160.5t122.5 104t176.5 56.5t208 17q38 0 85 -6t92 -16t82 -22.5t55 -25.5zM864 1220l-197 20l-126 280h150l87 -133l6 -77l34 78l134 132h150z" />
    <glyph glyph-name="Ydieresis" unicode="&#x178;" 
d="M608 935l388 565h192l-586 -854l-113 -646h-200l113 645l-285 855l208 20l178 -566l35 -249zM462 1898h200l-35 -200h-200zM862 1898h200l-35 -200h-200z" />
    <glyph glyph-name="florin" unicode="&#x192;" 
d="M1332 1347q-9 5 -21.5 9.5t-27 8t-29 6t-26.5 3.5q-48 4 -79.5 -11.5t-55 -48.5t-44.5 -83t-49 -114l-127 -289h296l-67 -154h-240l-32 56l-330 -751q-44 -100 -78 -178.5t-75.5 -131.5t-99.5 -79t-149 -21q-46 2 -81 6t-63 10t-50 13.5t-41 17.5l105 133q9 -5 21.5 -9.5
t26.5 -8t29 -6t27 -3.5q48 -5 78 11t53 49.5t45 83.5t52 113l305 695h-281l67 154h217l40 -57q70 156 119 272t88 199t72.5 136.5t71.5 84t86 42.5t116 12q46 0 78 -3.5t56 -10t43 -15t39 -18.5z" />
    <glyph glyph-name="circumflex" unicode="&#x2c6;" 
d="M995 1220h-150l-74 152l-14 88l-45 -87l-128 -153h-150l225 280l204 20z" />
    <glyph glyph-name="caron" unicode="&#x2c7;" 
d="M880 1220l-197 20l-126 280h150l87 -133l6 -77l34 78l134 132h150z" />
    <glyph glyph-name="breve" unicode="&#x2d8;" 
d="M593 1519q-11 -34 0 -61q4 -12 14 -24t27 -22t43 -17.5t63 -11.5q34 -4 61 0t47.5 13t35.5 21.5t25 26.5q24 32 32 75h106q-8 -82 -46 -144q-16 -26 -40 -50.5t-58.5 -42t-80.5 -26t-105 -3.5q-88 8 -138.5 30.5t-76 52.5t-31 62t-2 59t10.5 44.5t6 17.5h107z" />
    <glyph glyph-name="dotaccent" unicode="&#x2d9;" 
d="M458 1500h202l-35 -200h-202z" />
    <glyph glyph-name="ring" unicode="&#x2da;" 
d="M788 1636q48 -8 85.5 -29.5t62.5 -53t37 -71t10 -83.5q-3 -57 -27.5 -102.5t-63 -77t-87 -47.5t-99.5 -14q-44 1 -81.5 21.5t-64.5 53.5t-41 76t-11 90q3 50 27.5 96.5t63.5 80.5t88.5 51t100.5 9zM725 1275q24 -5 49.5 2t47 23.5t34.5 41.5t11 56q-3 52 -26.5 81.5
t-73.5 39.5q-26 5 -51.5 -3.5t-46 -26t-33 -41.5t-11.5 -50q3 -102 100 -123z" />
    <glyph glyph-name="ogonek" unicode="&#x2db;" 
d="M552 0q-24 -29 -42 -61q-15 -27 -25 -61t-5 -67q8 -49 38 -70t73 -20q29 0 56.5 10t49.5 21q26 13 49 30l89 -100q-39 -26 -81 -45q-36 -17 -79.5 -30.5t-85.5 -13.5q-50 0 -94.5 14t-79 40.5t-57.5 65.5t-30 89q-5 40 1 76t17 63q12 32 30 59h176z" />
    <glyph glyph-name="tilde" unicode="&#x2dc;" 
d="M422 1335q12 55 36 96t54 67.5t63.5 38t65.5 7.5q39 -6 70 -20.5t59.5 -30t56 -27.5t58.5 -12q28 0 47.5 10.5t32.5 26.5t20 34.5t11 35.5l95 -3q-6 -48 -29 -92.5t-55.5 -76.5t-72 -48.5t-78.5 -9.5q-28 5 -56 21.5t-57.5 33.5t-61.5 28t-68 6q-38 -5 -64.5 -24
t-41.5 -64z" />
    <glyph glyph-name="hungarumlaut" unicode="&#x2dd;" 
d="M542 1500l234 20l-374 -403h-150zM905 1500l234 20l-374 -403h-150z" />
    <glyph glyph-name="Alpha" unicode="&#x391;" 
d="M18 0l701 1300l70 200l182 20l279 -1520h-200l-68 450h-535l-246 -450h-183zM877 1400l-101 -320l-254 -480h437l-93 480z" />
    <glyph glyph-name="Beta" unicode="&#x392;" 
d="M519 1359l-17 -212l-46 -262h110q76 0 146 16t123.5 51t85.5 90.5t32 133.5q0 57 -23 95.5t-62 61.5t-89.5 32.5t-104.5 9.5q-17 0 -37.5 -1t-41.5 -3.5t-40.5 -5.5t-35.5 -6zM100 0l227 1290l7 200q30 4 68.5 8t79 6.5t80 4t71.5 1.5q106 0 198.5 -14t161.5 -48.5
t109 -93t40 -148.5q0 -69 -20 -125.5t-54 -100t-78 -74t-93 -46.5l-162 -44l145 -14q53 -17 96.5 -41.5t75 -59.5t49 -82.5t17.5 -108.5q0 -93 -24.5 -166.5t-68 -130.5t-102.5 -97t-128 -66t-145.5 -38t-153.5 -12h-396zM328 160h140q107 0 191.5 15.5t143.5 53.5t90 102
t31 162q0 64 -24 109t-66.5 73.5t-100.5 41.5t-125 13h-180z" />
    <glyph glyph-name="Gamma" unicode="&#x393;" 
d="M502 1150l-202 -1150h-200l229 1300l18 200h837l-26 -150h-635z" />
    <glyph glyph-name="Deltagreek" unicode="&#x394;" horiz-adv-x="1500" 
d="M851 1500l221 20l214 -1520h-1171zM1030 160l117 -52l-69 92l-125 1058v167l-60 -167l-497 -1058l-98 -92l132 52h600z" />
    <glyph glyph-name="Epsilon" unicode="&#x395;" 
d="M1040 160l-48 -160h-920l51 200l192 1090l7 210h920l-28 -160h-725l-14 -190l-47 -265h635l-25 -145h-635l-71 -400l-42 -180h750z" />
    <glyph glyph-name="Zeta" unicode="&#x396;" 
d="M1058 160l-8 -160h-1029l-12 50l858 1150l216 180l-272 -40h-485l8 160h946l11 -22l-869 -1178l-209 -180l272 40h573z" />
    <glyph glyph-name="Eta" unicode="&#x397;" 
d="M786 0l127 725h-542l-127 -725h-195l227 1290l8 210l228 20l-112 -635h542l108 615l199 20l-268 -1520h-195z" />
    <glyph glyph-name="Theta" unicode="&#x398;" 
d="M370 835h550l-50 -170h-550zM488 -17q-90 0 -161 27.5t-123 78t-86 120.5t-50 155.5t-14.5 183t20.5 202.5q18 105 50.5 202.5t78 183t103 155.5t127.5 120.5t152 78t174 27.5q90 0 161 -27.5t123 -78t86 -120.5t50 -155.5t14.5 -183t-19.5 -202.5q-19 -105 -51.5 -202.5
t-77.5 -183t-103 -155.5t-128 -120.5t-152 -78t-174 -27.5zM960 719q12 70 20.5 143t7.5 142.5t-14.5 131t-44 107t-81 72.5t-126.5 27q-72 0 -129 -24t-102 -65.5t-78 -97t-57.5 -117.5t-40.5 -127t-27 -126q-13 -71 -21 -145t-7 -143.5t14 -131t43.5 -107.5t81 -73
t126.5 -27q71 0 128 24.5t102 67t78.5 98t58 118t41 127.5t27.5 126z" />
    <glyph glyph-name="Iota" unicode="&#x399;" 
d="M338 1500h900l-28 -160h-358l-209 -1180h378l-48 -160h-900l28 160h356l209 1180h-376z" />
    <glyph glyph-name="Kappa" unicode="&#x39a;" 
d="M50 0l227 1290l7 210l234 20l-118 -664l655 644h222l-643 -635l-180 -63l164 -58l422 -744h-237l-422 746l-131 -746h-200z" />
    <glyph glyph-name="Lambda" unicode="&#x39b;" 
d="M868 1100l10 260l-82 -260l-550 -1100h-184l652 1300l70 200l221 20l230 -1520h-200z" />
    <glyph glyph-name="Mu" unicode="&#x39c;" 
d="M837 0l159 901l157 498l-5 1l-248 -479l-247 -421h-100l-98 420l-85 480l-6 -1l-13 -498l-159 -901h-180l228 1290l9 210l218 20l132 -570l32 -250l118 250l326 550l211 20l-269 -1520h-180z" />
    <glyph glyph-name="Nu" unicode="&#x39d;" 
d="M817 0l-327 948l-87 413l-6 -1l-12 -440l-163 -920h-180l228 1290l7 210l205 20l326 -963l92 -417l6 1l-1 439l162 920l184 20l-269 -1520h-165z" />
    <glyph glyph-name="Xi" unicode="&#x39e;" 
d="M356 885h650l-31 -174h-650zM130 174h850l-30 -174h-850zM364 1500h850l-31 -174h-850z" />
    <glyph glyph-name="Omicron" unicode="&#x39f;" 
d="M488 -17q-90 0 -161 27.5t-123 78t-86 120.5t-50 155.5t-14.5 183t20.5 202.5q18 105 50.5 202.5t78 183t103 155.5t127.5 120.5t152 78t174 27.5q90 0 161 -27.5t123 -78t86 -120.5t50 -155.5t14.5 -183t-19.5 -202.5q-19 -105 -51.5 -202.5t-77.5 -183t-103 -155.5
t-128 -120.5t-152 -78t-174 -27.5zM960 719q12 70 20.5 143t7.5 142.5t-14.5 131t-44 107t-81 72.5t-126.5 27q-72 0 -129 -24t-102 -65.5t-78 -97t-57.5 -117.5t-40.5 -127t-27 -126q-13 -71 -21 -145t-7 -143.5t14 -131t43.5 -107.5t81 -73t126.5 -27q71 0 128 24.5
t102 67t78.5 98t58 118t41 127.5t27.5 126z" />
    <glyph glyph-name="Rho" unicode="&#x3a1;" 
d="M289 0h-190l228 1290v200q30 5 71.5 9t87.5 7t92 4.5t85 1.5q160 0 277 -30.5t190 -85t101.5 -130.5t12.5 -167q-87 -475 -845 -475zM491 1147l-67 -382q152 0 265.5 22t192 65t124 105t60.5 143q13 67 -11.5 117.5t-77 84.5t-128.5 51t-166 17q-17 0 -40.5 -0.5t-48 -2
t-47.5 -3.5t-38 -5z" />
    <glyph glyph-name="Sigma" unicode="&#x3a3;" 
d="M953 700l-425 -383l-260 -192l256 45h606l-29 -170h-1021l52 183l591 517l162 50l-144 50l-409 517l12 183h986l-30 -170h-571l-241 45l193 -192l290 -383z" />
    <glyph glyph-name="Tau" unicode="&#x3a4;" 
d="M394 0l236 1340h-485l13 160h1140l-28 -160h-440l-236 -1340h-200z" />
    <glyph glyph-name="Upsilon" unicode="&#x3a5;" 
d="M588 935l388 565h192l-586 -854l-113 -646h-200l113 645l-285 855l208 20l178 -566l35 -249z" />
    <glyph glyph-name="Phi" unicode="&#x3a6;" 
d="M451 204q-67 9 -132 29q-65 23 -124.5 65t-102.5 105t-64 149t-9 198q13 117 56.5 203t108.5 147t146.5 101t170.5 65q73 22 143 29l36 205l203 20l-40 -225q35 -4 68.5 -11t65.5 -18q62 -22 122 -63.5t104.5 -105t67 -150t8.5 -197.5q-26 -207 -150.5 -337t-332.5 -180
l-146 -29l-38 -218h-199zM678 361q77 4 150.5 33t132.5 79.5t96.5 120.5t42.5 156q4 74 -7 135t-44 109t-90 84.5t-144 60.5zM417 376q15 -3 30.5 -7.5t31.5 -7.5l137 778q-74 -2 -146 -28.5t-130.5 -76t-97.5 -121t-45 -163.5q-5 -78 12.5 -142.5t49 -113t73 -79
t85.5 -39.5z" />
    <glyph glyph-name="Chi" unicode="&#x3a7;" 
d="M846 0l-158 519l-41 181l-80 -160l-370 -540h-198l570 799l-249 701l216 20l146 -464l35 -196l59 160l330 480h193l-513 -724l280 -776h-220z" />
    <glyph glyph-name="Psi" unicode="&#x3a8;" 
d="M863 1520l-162 -918q48 1 94 7q48 6 92 21t79.5 43t61 72t37.5 109l114 646h195l-111 -627q-17 -98 -54.5 -169t-90.5 -121t-118 -80.5t-137 -47t-149 -21.5q-22 -1 -43 -2l-76 -431h-190l77 438q-33 3 -65 9q-71 12 -133 35.5t-112 61t-82 91t-43 124.5t5 163l65 367
l7 210l229 20l-109 -616q-15 -85 14 -142.5t83.5 -92t123.5 -50.5q24 -5 47 -9l157 890z" />
    <glyph glyph-name="Omegagreek" unicode="&#x3a9;" 
d="M56 160h147l140 -60l-119 139q-25 29 -40.5 82t-20.5 123.5t0.5 154.5t21.5 176q29 165 75 301.5t121.5 234.5t187.5 152t273 54q157 0 249.5 -54t134.5 -152t41 -234.5t-30 -301.5q-16 -91 -40.5 -175t-54 -154.5t-62 -123t-64.5 -80.5l-175 -142l161 60h148l-28 -160
h-448l35 200q79 49 131.5 104t87.5 120.5t57 144t39 175.5q21 120 26.5 229t-15.5 192t-75.5 132.5t-153.5 49.5q-93 0 -161 -44t-116 -118t-79 -171t-50 -204q-20 -112 -28.5 -201.5t1.5 -162.5t42.5 -133t94.5 -113l-35 -200h-447z" />
    <glyph glyph-name="alpha" unicode="&#x3b1;" 
d="M1262 996q-88 -57 -107 -145q-11 -45 -25 -119t-33 -180q-38 -215 -45 -283q-3 -35 2 -62t16 -46.5t27 -29.5t34 -10q22 0 33 1.5t24 3.5l32 -116q-60 -27 -123 -27q-134 0 -189 69l-24 144l-70 -112q-49 -34 -104 -58q-51 -22 -104 -36.5t-110 -6.5q-111 15 -190 64
t-128 124.5t-69 173t-12 208.5q10 142 65.5 252t139.5 183.5t186.5 107t206.5 21.5q56 -6 105 -13.5t91 -29.5q26 -13 48 -28.5t42 -34.5l27 -111l74 138q22 17 49.5 32.5t61.5 29.5zM902 526q3 74 -2.5 148t-30 135.5t-73 103t-132.5 49.5q-92 9 -161.5 -22.5t-116 -88.5
t-70.5 -130.5t-26 -148.5q-2 -80 4.5 -153t31.5 -131t72.5 -97.5t128.5 -52.5q52 -9 99.5 3t89 38.5t75 65t57.5 84.5t38 96.5t16 100.5z" />
    <glyph glyph-name="beta" unicode="&#x3b2;" 
d="M403 217q21 -15 45 -27q20 -11 45 -20t50 -10q97 -5 175.5 6t136.5 44t94 91.5t47 148.5q17 141 -66.5 210.5t-246.5 69.5l-42 155q64 0 129 12.5t119 43t91.5 81t46.5 126.5q6 48 -8 87.5t-40.5 69t-61.5 46t-71 18.5q-78 3 -124 -13t-78 -52q-28 -31 -42.5 -65
t-22.5 -79zM283 -517l-197 17l286 1611q34 195 158 307q28 25 57.5 43.5t69 31t92 18.5t126.5 6q82 0 147.5 -26.5t110 -73t65.5 -110t14 -138.5q-6 -63 -24.5 -111t-49 -85.5t-71.5 -64.5t-91 -48l-162 -44l145 -14q58 -18 105.5 -48.5t78.5 -73t43.5 -98t1.5 -122.5
q-9 -94 -41 -164.5t-79 -121.5t-106.5 -84.5t-124.5 -53.5t-132.5 -28t-129.5 -8q-32 -1 -65 3q-29 3 -63 9t-67 20z" />
    <glyph glyph-name="gamma" unicode="&#x3b3;" 
d="M146 1117q35 3 74.5 1t75.5 -19.5t64.5 -55t41.5 -103.5l110 -576l11 -232l93 232l398 736l186 21l-610 -1138l-86 -483h-192l80 453l-171 916q-10 50 -26 74.5t-32 34.5q-18 11 -39 9z" />
    <glyph glyph-name="delta" unicode="&#x3b4;" 
d="M1174 1500l-71 -158h-352q-35 0 -64.5 -2.5t-51.5 -8.5t-36 -17.5t-17 -29.5q-3 -17 12 -34.5t41 -34.5t59 -34t65.5 -32.5t60.5 -30t45 -27.5q65 -50 117.5 -104t88.5 -121t54.5 -150t16.5 -190q-1 -72 -25 -142t-65 -133t-96.5 -116t-121 -89.5t-137.5 -53.5t-146 -9
q-117 13 -193.5 62.5t-122 124.5t-64 170t-17.5 199q2 169 95.5 292.5t275.5 183.5h203l-93 44q-61 21 -105 43t-72 48.5t-41 60t-13 78.5q0 57 19 95t50.5 61t72 35t84 16t86.5 4h458zM572 127q63 -10 125 20.5t112.5 87t83 132.5t35.5 159q2 66 -4 130.5t-29 118.5t-66 93
t-114 53q-69 14 -134 -10.5t-115 -78t-80.5 -132.5t-31.5 -174q-1 -77 7 -145t31.5 -120.5t66.5 -87.5t113 -46z" />
    <glyph glyph-name="epsilon" unicode="&#x3b5;" 
d="M931 633l-43 -133h-254q-49 0 -89.5 -14t-69.5 -39.5t-45 -60t-15 -74.5q2 -72 57.5 -118.5t166.5 -56.5q59 -5 105.5 3.5t78.5 22.5q38 15 67 37l72 -101q-26 -36 -77 -63q-22 -12 -51.5 -22.5t-68 -18t-86.5 -11.5t-107 -1q-72 3 -138 26t-114.5 65t-75 102t-19.5 137
q4 43 18.5 83.5t37.5 74t53 57.5t64 36q-52 38 -72 98.5t-14 147.5q6 88 48 147t106.5 94.5t144 50.5t160.5 15q57 0 105.5 -8.5t85.5 -18.5q43 -11 79 -26l-77 -120q-25 3 -53 7q-25 3 -57 6t-70 6q-63 4 -115.5 -6.5t-90 -34t-58.5 -57t-21 -74.5q0 -33 11 -61.5t31 -50
t49.5 -34t66.5 -12.5h274z" />
    <glyph glyph-name="zeta" unicode="&#x3b6;" 
d="M1184 1500l-48 -158q-69 -50 -147.5 -108t-157.5 -122t-152.5 -134.5t-132 -145.5t-97 -154t-46.5 -161q-7 -71 -9 -122.5t10.5 -92t45.5 -73t95 -65.5q67 -35 122.5 -67.5t96.5 -72.5t66 -94t30 -133q3 -52 -22.5 -101.5t-70.5 -91.5t-104 -73.5t-121 -47.5l-67 131
q54 15 89 34.5t55.5 41.5t29.5 44.5t11 43.5q3 37 -7 69t-39 62t-80 59.5t-129 61.5q-81 33 -126.5 80.5t-66.5 106t-21.5 128t10.5 147.5q11 85 38.5 163t65.5 147.5t83 131t92 114t93.5 97t86.5 79.5l289 145l-173 -27h-360l48 158h720z" />
    <glyph glyph-name="eta" unicode="&#x3b7;" 
d="M355 0h-184l193 1100l188 21l-32 -184l80 107q32 21 62.5 35t62.5 22.5t69 12t82 3.5q78 0 125.5 -34.5t71 -88t26.5 -118.5t-8 -126l-221 -1250h-184l221 1250q9 50 3 89t-23 65.5t-44 40t-60 12.5q-85 -3 -152.5 -32.5t-127.5 -80.5z" />
    <glyph glyph-name="theta" unicode="&#x3b8;" 
d="M496 -17q-85 0 -147 32t-105 88t-68.5 130.5t-37.5 160t-13 176.5t7 180q8 92 32 184.5t63.5 177.5t94 159t122.5 128.5t149.5 86t174.5 31.5q87 0 151 -32.5t108 -88.5t70 -131t37.5 -160.5t10 -176.5t-12.5 -178q-11 -89 -37.5 -180t-67.5 -176t-96 -160t-122 -131
t-145.5 -88t-167.5 -32zM739 1357q-55 7 -105 -13t-94 -60t-80.5 -95.5t-64 -117.5t-45.5 -127t-24 -124h636q1 58 1.5 118.5t-5 117.5t-18 108t-38 91.5t-65 67t-98.5 34.5zM525 143q45 -9 90 7t86.5 51t78.5 85.5t67.5 112t53 130.5t34.5 141h-635q-2 -48 -2 -103t5 -110
t18 -106.5t38.5 -94t65.5 -72.5t100 -41z" />
    <glyph glyph-name="iota" unicode="&#x3b9;" 
d="M359 902l14 198l214 21l-129 -730q-5 -26 -8.5 -56.5t-7.5 -65.5q-5 -52 16 -90.5t65 -47.5q21 -5 32.5 -1t17.5 6l47 -126q-7 -3 -16.5 -8t-23.5 -9t-34.5 -6.5t-48.5 -1.5q-96 3 -149 39.5t-74.5 95t-19 133t16.5 152.5z" />
    <glyph glyph-name="kappa" unicode="&#x3ba;" 
d="M200 0l162 919l11 180l205 22l-85 -477l450 456l204 21l-429 -451l-167 -70l142 -70l307 -528h-200l-323 552l-97 -554h-180z" />
    <glyph glyph-name="lambda" unicode="&#x3bb;" 
d="M820 968l-93 -232l-397 -736h-196l619 1147q-12 58 -26.5 111t-34 92t-47 60.5t-64.5 17.5q-24 -2 -47.5 -11t-42.5 -21l-54 107q48 36 100 55t103 22q57 3 100.5 -30t78 -94.5t62 -148t52.5 -190.5l212 -1117h-174l-140 736z" />
    <glyph glyph-name="uni03BC" unicode="&#x3bc;" 
d="M393 1100l194 21l-126 -715q-6 -48 -9 -96t10 -87.5t49 -65.5t107 -30q35 -2 61 0.5t50.5 12.5t52.5 29.5t67 52.5l154 878l194 21l-197 -1121h-190l22 129q-42 -49 -85 -77.5t-85 -43t-81 -18.5t-74 -5q-37 0 -73 6.5t-63 19.5l-8 -161l-62 -350h-190z" />
    <glyph glyph-name="nu" unicode="&#x3bd;" 
d="M327 0l-190 1100h193l136 -805l7 -220l87 220l418 805h191l-575 -1100h-267z" />
    <glyph glyph-name="xi" unicode="&#x3be;" 
d="M385 30q-30 22 -69 66t-72.5 100t-55 119t-15.5 122q7 72 26 128t49.5 97t73 69.5t95.5 46.5l136 12l-124 57q-81 92 -75 250q2 55 14.5 94.5t33.5 69.5t51 53t66 45l107 41q-64 0 -114.5 11t-84 34t-48 58t-5.5 84h195q-1 -7 3 -21.5t16.5 -29t35 -25.5t58.5 -11h483
l-49 -158h-263q-23 0 -55.5 -5t-68 -16.5t-70.5 -30t-62 -45.5t-43 -64t-14 -84q2 -56 23 -96t51 -66t63 -38t60 -12h229l-51 -146q-54 7 -114.5 7.5t-120 -9.5t-114 -31t-96 -56t-66.5 -85t-25 -118q0 -35 5 -72.5t21 -74.5t44.5 -71.5t75.5 -64.5q64 -41 120.5 -74
t98.5 -72t67.5 -90.5t28.5 -130.5q1 -47 -20.5 -93t-62.5 -86.5t-100.5 -75t-134.5 -59.5l-67 131q35 16 66.5 35t56.5 39.5t41.5 43t20.5 46.5q8 45 -11.5 75.5t-56 57t-86 53.5t-101.5 66z" />
    <glyph glyph-name="omicron" unicode="&#x3bf;" 
d="M567 -17q-99 0 -180.5 35t-140 99t-90.5 154.5t-32 201.5q0 143 44.5 261.5t124 203.5t190 132t243.5 47q102 0 185 -33t142 -95.5t91 -153t32 -204.5q0 -149 -42.5 -269t-121.5 -204t-191.5 -129.5t-253.5 -45.5zM993 622q0 75 -18 137.5t-54 108t-89.5 70.5t-125.5 25
q-65 0 -120 -19.5t-99 -53.5t-78 -80.5t-56.5 -100t-34 -112.5t-11.5 -117q0 -75 17 -138t51.5 -108.5t87 -70.5t123.5 -25q64 0 119 19.5t100 54t80 81t59 100.5t36.5 112.5t12.5 116.5z" />
    <glyph glyph-name="pi" unicode="&#x3c0;" 
d="M1047 950l-98 -557q-9 -52 -17 -100t-4.5 -84t25 -57t70.5 -19q11 0 23.5 2t23.5 4l24 6l58 -126q-19 -9 -55.5 -20t-99.5 -12q-61 -1 -104.5 14.5t-72 44t-43.5 67.5t-19.5 86t-0.5 100t14 108l96 543h-380l31 -163l-138 -787h-180l122 694q9 49 12 97t-4 85.5
t-26.5 59.5t-55.5 18q-11 -2 -23.5 -3.5t-23.5 -3.5q-12 -3 -24 -5l-58 126q19 9 55 20.5t97 11.5h941l-46 -150h-119z" />
    <glyph glyph-name="sigma1" unicode="&#x3c2;" 
d="M986 885l-51 -146q-46 6 -100 8t-110 -5.5t-109.5 -25.5t-98 -52.5t-76 -87.5t-42.5 -129q-6 -38 -2.5 -78t20 -77.5t47.5 -70.5t81 -57q73 -35 132 -67.5t100 -72.5t62.5 -94t20.5 -133q-1 -47 -22 -93t-61 -86.5t-99 -75t-136 -59.5l-67 131q35 16 68.5 35t59.5 39.5
t41.5 43t15.5 46.5q-1 48 -20.5 83.5t-53.5 64.5t-80.5 53.5t-100.5 50.5q-56 26 -99 64.5t-71 89.5t-39 114.5t-3 138.5q11 108 55 194.5t124.5 145.5t200.5 88t283 20h130z" />
    <glyph glyph-name="sigma" unicode="&#x3c3;" 
d="M96 550q8 107 45.5 209t110 181.5t182.5 128t263 48.5h600l-25 -137h-75l-190 10l81 -138q20 -69 17.5 -144t-9.5 -158q-7 -78 -29.5 -152.5t-60 -141t-89 -121.5t-116 -92.5t-141 -54.5t-164.5 -8q-128 13 -209.5 61t-126.5 123t-58.5 173.5t-5.5 212.5zM266 550
q-7 -79 1 -150.5t36.5 -129t81.5 -97t136 -53.5q54 -9 105 4.5t96 43t82.5 73t64.5 94t42 106t15 109.5q0 79 -8.5 151.5t-35.5 130t-77 96.5t-133 52q-55 8 -105 -5.5t-94 -44t-80 -74t-62.5 -94t-43.5 -105t-21 -107.5z" />
    <glyph glyph-name="tau" unicode="&#x3c4;" 
d="M725 942l-120 -677q-8 -46 -10.5 -81.5t2.5 -67t19 -63t39 -70.5h-211q-19 19 -27.5 56.5t-10 83t2.5 93.5t11 87l113 639h-367l47 158h880l-47 -158h-321z" />
    <glyph glyph-name="upsilon" unicode="&#x3c5;" 
d="M487 497q-13 -74 -13.5 -138.5t19 -113.5t62.5 -79.5t117 -36.5q85 -7 140 22.5t89.5 82.5t53.5 122t32 141l42 235q16 90 3 144t-39.5 83t-59.5 38.5t-56 9.5l19 110q74 8 139 -19.5t111 -78t68 -119t9 -141.5l-46 -264q-7 -40 -19.5 -95t-35.5 -114t-60 -116.5
t-93.5 -101.5t-135.5 -68t-186 -17q-98 6 -164 35t-107.5 72t-61.5 95.5t-25.5 107.5t-1.5 107.5t12 94.5l61 350q11 60 -3.5 94.5t-61.5 34.5q-49 0 -85 -34.5t-47 -94.5h-114q11 61 33 111t56.5 86t82 55.5t107.5 19.5q54 0 98.5 -23t74 -60.5t42.5 -87t5 -101.5z" />
    <glyph glyph-name="phi" unicode="&#x3c6;" 
d="M452 1q-32 4 -64 11t-62 16q-62 21 -119 59t-97.5 96t-60.5 136.5t-8 180.5q12 107 53.5 185.5t103.5 134.5t139.5 92t161.5 59q67 19 136 27l14 102l195 21l-19 -123q33 -4 65 -10t62 -17q59 -20 116.5 -58t100 -96t63.5 -137t8 -180q-24 -188 -143.5 -307.5
t-315.5 -164.5l-140 -27l-87 -501h-190zM668 145q73 3 143.5 29.5t126 72.5t91.5 110t41 143q4 67 -7 123t-42 100t-85 77t-138 55zM419 158q15 -3 29.5 -7t29.5 -6l131 710q-70 -2 -139 -26t-124.5 -69t-92.5 -110.5t-43 -149.5q-5 -71 11.5 -130t46.5 -103.5t70 -72
t81 -36.5z" />
    <glyph glyph-name="chi" unicode="&#x3c7;" 
d="M669 49l-45 181l-76 -160l-416 -570h-197l616 829l-210 540q-13 32 -29.5 55t-31.5 37q-18 17 -36 26l22 130q37 0 75 -9.5t71.5 -30.5t62 -55t47.5 -82l141 -354l45 -196l63 160l395 550h200l-585 -794l222 -575q20 -53 37.5 -77.5t31.5 -33.5q15 -11 28 -7l-23 -130
q-32 -5 -64.5 -5t-65.5 16t-64.5 54.5t-60.5 111.5z" />
    <glyph glyph-name="psi" unicode="&#x3c8;" 
d="M94 800l193 20l-57 -323q-13 -72 -13.5 -138.5t15 -117.5t50.5 -81.5t93 -30.5q16 -1 34 -1h64l171 972l196 21l-175 -993h77q32 0 33 1q80 0 128 30.5t76.5 81.5t43 117.5t27.5 138.5l31 175q16 92 5 156t-35.5 103.5t-55.5 57.5t-54 18l19 110q83 0 147.5 -39t106 -100
t58 -135t4.5 -144l-36 -204q-9 -47 -18.5 -103.5t-28.5 -113.5t-50 -110t-82.5 -94.5t-127.5 -66t-183 -24.5h-110l-86 -483h-192l86 483h-98q-90 0 -149.5 27t-96.5 70.5t-54 99t-21.5 112.5t0 110t11.5 93z" />
    <glyph glyph-name="omega" unicode="&#x3c9;" 
d="M784 725l-42 -243q-13 -71 -21.5 -135t-3 -112.5t30 -77t77.5 -28.5q60 0 97.5 29.5t62 83t40.5 127t31 161.5q16 92 17 163.5t-9 124.5t-28 89t-38 58.5t-41 32t-36 9.5l19 110q83 0 149.5 -45t109 -121t57.5 -177.5t-5 -213.5l-18 -103q-10 -55 -23 -111.5t-34 -109
t-51.5 -98.5t-75.5 -80.5t-106 -54.5t-143 -20q-51 0 -87.5 10t-62 28.5t-41.5 43.5t-25 55q-20 -30 -44.5 -55t-56.5 -43.5t-72 -28.5t-90 -10q-82 0 -136 20t-87 54.5t-47.5 81t-17 99t4 108.5t16.5 111l18 103q20 112 69 213.5t116.5 177.5t148 121t163.5 45l-19 -110
q-23 0 -62.5 -22.5t-82.5 -77.5t-83.5 -146.5t-64.5 -230.5q-15 -88 -25.5 -161.5t-5 -127t32.5 -83t87 -29.5q53 0 87.5 28.5t57 77t37 112.5t27.5 135l46 263z" />
    <glyph glyph-name="theta1" unicode="&#x3d1;" 
d="M230 481q11 -65 23.5 -126.5t36.5 -108.5t64.5 -75.5t107.5 -27.5q83 1 150.5 38t119.5 104t87.5 160t55.5 205h-424q-41 0 -82.5 4.5t-80.5 17.5t-72.5 36.5t-58 60t-37.5 88.5t-11 123q2 60 26 123.5t65 123t97 113t121.5 93t138.5 62.5t148 22q113 -1 193 -58
t126.5 -154.5t59.5 -227.5t-7 -277h223l-47 -150h-206q-18 -90 -47 -177t-69 -164.5t-91 -142t-113 -109t-135.5 -65.5t-158.5 -12q-93 10 -161 48.5t-114.5 95.5t-72 127.5t-32.5 142.5zM676 1357q-50 6 -98 -5.5t-92 -37.5t-81.5 -63.5t-65 -82.5t-43.5 -95t-17 -101
q-1 -66 17.5 -101t56 -50.5t94 -18t131.5 -2.5h325q28 119 18 218t-45.5 172t-89 116t-110.5 51z" />
    <glyph glyph-name="Upsilon1" unicode="&#x3d2;" 
d="M1198 1517l-23 -130q-20 2 -44 -7q-20 -8 -46.5 -28.5t-54.5 -62.5l-421 -631l-116 -658h-192l116 658l-199 631q-14 42 -33 62t-36 28q-20 10 -42 8l23 130q25 0 56.5 -5t63.5 -23t62.5 -53t53.5 -96l130 -340l37 -249l117 249l250 340q54 73 93.5 110t73 52t64.5 15h67
z" />
    <glyph glyph-name="phi1" unicode="&#x3d5;" 
d="M451 2q-102 14 -181.5 51.5t-132.5 99.5t-79 148.5t-20 198.5q5 94 39 167t82 125t102.5 84t100.5 46l75 -118q-31 -19 -68 -42.5t-71 -58.5t-59 -84t-32 -119q-6 -64 11 -123.5t53 -107.5t88 -81t117 -43l115 654q10 54 35.5 90t60 57.5t74.5 30.5t79 9
q82 0 155.5 -37.5t128 -103t85 -154.5t26.5 -191q-4 -83 -30 -151t-69.5 -121.5t-100.5 -93.5t-121.5 -68t-133.5 -43.5t-137 -20.5l-89 -502h-192zM854 840q-27 0 -48 -12t-27 -48l-112 -637q31 0 71 9t82.5 27.5t84 47t75.5 68t56.5 90.5t28.5 115q6 72 -10.5 134
t-47.5 107.5t-71 72t-82 26.5z" />
    <glyph glyph-name="omega1" unicode="&#x3d6;" 
d="M1300 942h-161l78 -57q11 -28 20.5 -60.5t14 -77t1 -106t-18.5 -146.5l-9 -51q-8 -43 -19.5 -94t-31.5 -102.5t-51 -99t-76 -84.5t-107.5 -59t-145.5 -22q-54 0 -91 10t-62 28.5t-39.5 43.5t-23.5 55q-20 -30 -43.5 -55t-54 -43.5t-71 -28.5t-94.5 -10q-83 0 -137.5 22
t-87 59t-46 84.5t-16 99t3.5 102.5t14 94l9 51q15 85 33.5 146.5t38.5 106t41 77t42 60.5l98 57h-168l48 158h1160zM779 725l-46 -261q-12 -68 -20.5 -129t-3 -107t30.5 -72.5t80 -26.5q53 0 90 30.5t62.5 81.5t42.5 117.5t30 138.5q19 108 22.5 183.5t-3 127t-20.5 83
t-32 51.5h-578q-24 -20 -49.5 -51.5t-50 -83t-47 -127t-41.5 -183.5q-13 -72 -19.5 -138.5t1.5 -117.5t34 -81.5t79 -30.5q55 0 89 26.5t56 72.5t35 107t25 129l49 281z" />
    <glyph glyph-name="hyphentwo" unicode="&#x2010;" 
d="M305 600h500l-27 -155h-500z" />
    <glyph glyph-name="endash" unicode="&#x2013;" 
d="M105 600h1000l-27 -154h-1000z" />
    <glyph glyph-name="emdash" unicode="&#x2014;" 
d="M40 600h1247l-27 -154h-1247z" />
    <glyph glyph-name="quotationdash" unicode="&#x2015;" 
d="M100 600h1200l-27 -155h-1200z" />
    <glyph glyph-name="doubleverticalline" unicode="&#x2016;" 
d="M619 1500l-264 -1500h-155l264 1500h155zM919 1500l-264 -1500h-155l264 1500h155z" />
    <glyph glyph-name="quoteleft" unicode="&#x2018;" 
d="M406 1095q-1 -26 -13 -49.5t-31.5 -41t-45.5 -26t-55 -4.5q-44 6 -74 38.5t-29 96.5q0 30 10 70.5t35 87t68.5 96t110.5 97.5l41 -20q-27 -33 -49 -70q-19 -32 -36.5 -72t-22.5 -82q42 -2 67.5 -32.5t23.5 -88.5z" />
    <glyph glyph-name="quoteright" unicode="&#x2019;" 
d="M728 1520l246 -20l-403 -300h-200z" />
    <glyph glyph-name="quotesinglbase" unicode="&#x201a;" 
d="M194 105q1 26 13 49.5t31.5 41t45.5 26t55 4.5q44 -6 74 -38.5t29 -96.5q0 -30 -10 -70.5t-35 -87t-68.5 -96t-110.5 -97.5l-41 20q27 33 49 70q19 32 36.5 72t22.5 82q-42 2 -67.5 32.5t-23.5 88.5z" />
    <glyph glyph-name="quotedblleft" unicode="&#x201c;" 
d="M406 1095q-1 -26 -13 -49.5t-31.5 -41t-45.5 -26t-55 -4.5q-44 6 -74 38.5t-29 96.5q0 30 10 70.5t35 87t68.5 96t110.5 97.5l41 -20q-27 -33 -49 -70q-19 -32 -36.5 -72t-22.5 -82q42 -2 67.5 -32.5t23.5 -88.5zM806 1095q-1 -26 -13 -49.5t-31.5 -41t-45.5 -26
t-55 -4.5q-44 6 -74 38.5t-29 96.5q0 30 10 70.5t35 87t68.5 96t110.5 97.5l41 -20q-27 -33 -49 -70q-19 -32 -36.5 -72t-22.5 -82q42 -2 67.5 -32.5t23.5 -88.5z" />
    <glyph glyph-name="quotedblright" unicode="&#x201d;" 
d="M194 1305q1 26 13 49.5t31.5 41t45.5 26t55 4.5q44 -6 74 -38.5t29 -96.5q0 -30 -10 -70.5t-35 -87t-68.5 -96t-110.5 -97.5l-41 20q27 33 49 70q19 32 36.5 72t22.5 82q-42 2 -67.5 32.5t-23.5 88.5zM594 1305q1 26 13 49.5t31.5 41t45.5 26t55 4.5q44 -6 74 -38.5
t29 -96.5q0 -30 -10 -70.5t-35 -87t-68.5 -96t-110.5 -97.5l-41 20q27 33 49 70q19 32 36.5 72t22.5 82q-42 2 -67.5 32.5t-23.5 88.5z" />
    <glyph glyph-name="quotedblbase" unicode="&#x201e;" 
d="M194 105q1 26 13 49.5t31.5 41t45.5 26t55 4.5q44 -6 74 -38.5t29 -96.5q0 -30 -10 -70.5t-35 -87t-68.5 -96t-110.5 -97.5l-41 20q27 33 49 70q19 32 36.5 72t22.5 82q-42 2 -67.5 32.5t-23.5 88.5zM594 105q1 26 13 49.5t31.5 41t45.5 26t55 4.5q44 -6 74 -38.5
t29 -96.5q0 -30 -10 -70.5t-35 -87t-68.5 -96t-110.5 -97.5l-41 20q27 33 49 70q19 32 36.5 72t22.5 82q-42 2 -67.5 32.5t-23.5 88.5z" />
    <glyph glyph-name="dagger" unicode="&#x2020;" 
d="M255 1049h300l80 451l204 20l-84 -471h320l-46 -149h-300l-229 -1300h-200l229 1300h-300z" />
    <glyph glyph-name="daggerdbl" unicode="&#x2021;" 
d="M305 1049h300l80 451l204 20l-84 -471h320l-46 -149h-300l-106 -600h300l-26 -150h-300l-97 -550h-200l97 550h-300l26 150h300l106 600h-300z" />
    <glyph glyph-name="bullet" unicode="&#x2022;" 
d="M398 807q0 60 23.5 113.5t63.5 93t93.5 63t113.5 23.5t113.5 -23.5t93.5 -63t63.5 -93t23.5 -113.5t-23 -114.5t-62.5 -95.5t-92.5 -65t-113 -24t-114 24t-94.5 65t-64.5 95.5t-24 114.5z" />
    <glyph glyph-name="triangularbullet" unicode="&#x2023;" 
d="M400 956l500 -306l-500 -300v606z" />
    <glyph glyph-name="ellipsis" unicode="&#x2026;" 
d="M108 150q6 34 24 64t44.5 52.5t58.5 35.5t66 13t61.5 -13t46 -35.5t26.5 -52.5t2 -64t-24.5 -64.5t-44.5 -53t-58 -36t-66 -13.5t-62 13.5t-46.5 36t-26 53t-1.5 64.5zM528 150q6 34 24 64t44.5 52.5t58.5 35.5t66 13t61.5 -13t46 -35.5t26.5 -52.5t2 -64t-24.5 -64.5
t-44.5 -53t-58 -36t-66 -13.5t-62 13.5t-46.5 36t-26 53t-1.5 64.5zM948 150q6 34 24 64t44.5 52.5t58.5 35.5t66 13t61.5 -13t46 -35.5t26.5 -52.5t2 -64t-24.5 -64.5t-44.5 -53t-58 -36t-66 -13.5t-62 13.5t-46.5 36t-26 53t-1.5 64.5z" />
    <glyph glyph-name="perthousand" unicode="&#x2030;" horiz-adv-x="2600" 
d="M1446 -17q-70 0 -114.5 27.5t-67 76t-25 115t11.5 143.5q13 76 38 141.5t64 112.5t93 74t127 27q70 0 114 -27t66.5 -74t25 -112.5t-10.5 -141.5q-14 -77 -39 -143.5t-64 -115t-93 -76t-126 -27.5zM1628 393q6 35 8.5 67t-4 56t-26 38.5t-57.5 14.5q-37 0 -60.5 -13
t-38 -35t-22.5 -51.5t-14 -62.5l-18 -101q-6 -36 -9 -68.5t4 -57t27 -39t58 -14.5q36 0 59.5 13t38 35t22 51.5t13.5 61.5zM272 0h-186l941 1500h186zM327 800q-70 0 -114.5 27.5t-67 76t-25 115t11.5 143.5q13 76 38 141.5t64 112.5t93 74t127 27q70 0 114 -27t66.5 -74
t25 -112.5t-10.5 -141.5q-14 -77 -39 -143.5t-64 -115t-93 -76t-126 -27.5zM509 1210q6 35 8.5 67t-4 56t-26 38.5t-57.5 14.5q-37 0 -60.5 -13t-38 -35t-22.5 -51.5t-14 -62.5l-18 -101q-6 -36 -9 -68.5t4 -57t27 -39t58 -14.5q36 0 59.5 13t38 35t22 51.5t13.5 61.5z
M846 -17q-70 0 -114.5 27.5t-67 76t-25 115t11.5 143.5q13 76 38 141.5t64 112.5t93 74t127 27q70 0 114 -27t66.5 -74t25 -112.5t-10.5 -141.5q-14 -77 -39 -143.5t-64 -115t-93 -76t-126 -27.5zM1028 393q6 35 8.5 67t-4 56t-26 38.5t-57.5 14.5q-37 0 -60.5 -13t-38 -35
t-22.5 -51.5t-14 -62.5l-18 -101q-6 -36 -9 -68.5t4 -57t27 -39t58 -14.5q36 0 59.5 13t38 35t22 51.5t13.5 61.5z" />
    <glyph glyph-name="pertenthousandsign" unicode="&#x2031;" horiz-adv-x="2600" 
d="M1446 -17q-70 0 -114.5 27.5t-67 76t-25 115t11.5 143.5q13 76 38 141.5t64 112.5t93 74t127 27q70 0 114 -27t66.5 -74t25 -112.5t-10.5 -141.5q-14 -77 -39 -143.5t-64 -115t-93 -76t-126 -27.5zM1628 393q6 35 8.5 67t-4 56t-26 38.5t-57.5 14.5q-37 0 -60.5 -13
t-38 -35t-22.5 -51.5t-14 -62.5l-18 -101q-6 -36 -9 -68.5t4 -57t27 -39t58 -14.5q36 0 59.5 13t38 35t22 51.5t13.5 61.5zM2046 -17q-70 0 -114.5 27.5t-67 76t-25 115t11.5 143.5q13 76 38 141.5t64 112.5t93 74t127 27q70 0 114 -27t66.5 -74t25 -112.5t-10.5 -141.5
q-14 -77 -39 -143.5t-64 -115t-93 -76t-126 -27.5zM2228 393q6 35 8.5 67t-4 56t-26 38.5t-57.5 14.5q-37 0 -60.5 -13t-38 -35t-22.5 -51.5t-14 -62.5l-18 -101q-6 -36 -9 -68.5t4 -57t27 -39t58 -14.5q36 0 59.5 13t38 35t22 51.5t13.5 61.5zM272 0h-186l941 1500h186z
M327 800q-70 0 -114.5 27.5t-67 76t-25 115t11.5 143.5q13 76 38 141.5t64 112.5t93 74t127 27q70 0 114 -27t66.5 -74t25 -112.5t-10.5 -141.5q-14 -77 -39 -143.5t-64 -115t-93 -76t-126 -27.5zM509 1210q6 35 8.5 67t-4 56t-26 38.5t-57.5 14.5q-37 0 -60.5 -13t-38 -35
t-22.5 -51.5t-14 -62.5l-18 -101q-6 -36 -9 -68.5t4 -57t27 -39t58 -14.5q36 0 59.5 13t38 35t22 51.5t13.5 61.5zM846 -17q-70 0 -114.5 27.5t-67 76t-25 115t11.5 143.5q13 76 38 141.5t64 112.5t93 74t127 27q70 0 114 -27t66.5 -74t25 -112.5t-10.5 -141.5
q-14 -77 -39 -143.5t-64 -115t-93 -76t-126 -27.5zM1028 393q6 35 8.5 67t-4 56t-26 38.5t-57.5 14.5q-37 0 -60.5 -13t-38 -35t-22.5 -51.5t-14 -62.5l-18 -101q-6 -36 -9 -68.5t4 -57t27 -39t58 -14.5q36 0 59.5 13t38 35t22 51.5t13.5 61.5z" />
    <glyph glyph-name="prime" unicode="&#x2032;" 
d="M567 1245l-227 -360h-85l133 360l48 272l175 -24z" />
    <glyph glyph-name="doubleprime" unicode="&#x2033;" 
d="M567 1245l-227 -360h-85l133 360l48 272l175 -24zM867 1245l-227 -360h-85l133 360l48 272l175 -24z" />
    <glyph glyph-name="tripleprime" unicode="&#x2034;" 
d="M567 1245l-227 -360h-85l133 360l48 272l175 -24zM867 1245l-227 -360h-85l133 360l48 272l175 -24zM1167 1245l-227 -360h-85l133 360l48 272l175 -24z" />
    <glyph glyph-name="reversedprime" unicode="&#x2035;" 
d="M189 1493l175 24l48 -272l133 -360h-85l-227 360z" />
    <glyph glyph-name="guilsinglleft" unicode="&#x2039;" 
d="M850 1026l28 -125l-376 -291l-149 -60l127 -60l277 -289l-78 -135l-395 412l24 139z" />
    <glyph glyph-name="guilsinglright" unicode="&#x203a;" 
d="M808 617l-24 -139l-541 -412l-30 135l379 289l147 60l-127 60l-274 291l72 125z" />
    <glyph glyph-name="asterism" unicode="&#x2042;" 
d="M653 1097l53 -96l-58 -45l-56 103l-6 36l-18 -36l-87 -96l-52 33l92 102l36 22l-40 2l-105 37l25 65l112 -38l29 -26l-4 41l21 117l67 7l-22 -126l-20 -40l37 25l119 36l17 -61l-128 -39l-40 -2zM953 497l53 -96l-58 -45l-56 103l-6 36l-18 -36l-87 -96l-52 33l92 102
l36 22l-40 2l-105 37l25 65l112 -38l29 -26l-4 41l21 117l67 7l-22 -126l-20 -40l37 25l119 36l17 -61l-128 -39l-40 -2zM353 497l53 -96l-58 -45l-56 103l-6 36l-18 -36l-87 -96l-52 33l92 102l36 22l-40 2l-105 37l25 65l112 -38l29 -26l-4 41l21 117l67 7l-22 -126
l-20 -40l37 25l119 36l17 -61l-128 -39l-40 -2z" />
    <glyph glyph-name="twoasterisksvertical" unicode="&#x2051;" 
d="M653 1097l53 -96l-58 -45l-56 103l-6 36l-18 -36l-87 -96l-52 33l92 102l36 22l-40 2l-105 37l25 65l112 -38l29 -26l-4 41l21 117l67 7l-22 -126l-20 -40l37 25l119 36l17 -61l-128 -39l-40 -2zM653 497l53 -96l-58 -45l-56 103l-6 36l-18 -36l-87 -96l-52 33l92 102
l36 22l-40 2l-105 37l25 65l112 -38l29 -26l-4 41l21 117l67 7l-22 -126l-20 -40l37 25l119 36l17 -61l-128 -39l-40 -2z" />
    <glyph glyph-name="zerosuperior" unicode="&#x2070;" 
d="M344 711q-42 5 -73 23.5t-53 46.5t-35 64t-19.5 76.5t-6.5 85t4 88.5q4 45 16.5 92.5t32.5 91.5t47.5 82.5t61.5 66t74 41.5t86 9q42 -4 73 -22t53 -46t35.5 -64.5t20.5 -77.5t7 -85.5t-5 -87.5q-6 -46 -19 -93.5t-34 -92t-48.5 -83t-61 -66t-73 -41t-83.5 -8.5z
M264 1116q-4 -29 -7.5 -62.5t-4 -68t4 -66.5t17 -57.5t34 -42.5t55.5 -20q29 -3 54.5 7.5t46.5 30.5t37.5 47.5t28.5 59t19.5 65t9.5 64.5q2 29 5 63t3 68.5t-4.5 66.5t-16 57.5t-32.5 42t-54 19.5q-31 3 -56 -7t-45 -30t-36 -48t-27.5 -59.5t-19.5 -64.5t-12 -65z" />
    <glyph glyph-name="superscriptsmalli" unicode="&#x2071;" 
d="M415 1470h101l-18 -100h-101zM387 1210l-60 -20h-115l13 80h253q-13 -70 -22 -120.5t-15 -86t-10 -57.5t-6 -35t-3 -19t-1.5 -8t-1 -3.5t-0.5 -5.5q-1 -7 -3 -18.5t-3.5 -23.5t-3 -22.5t-1.5 -16.5q0 -38 21.5 -53t60.5 -15q13 0 29.5 6t32.5 14.5t29.5 17.5t21.5 16
l24 -60q-5 -4 -19.5 -15.5t-35.5 -23t-47 -21t-54 -9.5q-34 0 -63 10t-50 27t-33 41t-12 53q0 9 1 22t2.5 27t3.5 28t4 24l42 236z" />
    <glyph glyph-name="superscriptfour" unicode="&#x2074;" 
d="M653 870h-90l-26 -150h-100l26 150h-297l15 85l335 525l92 -10l-287 -450l-58 -70h215l35 203l99 -8l-34 -195h97z" />
    <glyph glyph-name="superscriptfive" unicode="&#x2075;" 
d="M328 1211l13 6q9 5 21 9.5t25.5 7.5t27.5 3q51 0 88.5 -14.5t61.5 -40t35.5 -60t11.5 -75.5q0 -58 -19 -104.5t-51.5 -83t-77.5 -63t-97 -43.5t-109.5 -25t-115.5 -8l14 80q48 0 93 7.5t84.5 21.5t72.5 34t56.5 45.5t36.5 56t13 64.5q0 25 -8.5 47t-24.5 39t-38.5 27.5
t-49.5 10.5q-41 0 -69.5 -8.5t-51.5 -24.5h-57l61 350h372l-14 -80h-273z" />
    <glyph glyph-name="superscriptsix" unicode="&#x2076;" 
d="M632 1392q-3 1 -10 1h-12q-44 0 -82.5 -11t-72 -31.5t-62 -49t-51 -63t-40 -73.5t-28.5 -80l52 58q13 8 29.5 15t34.5 13t36 9.5t35 3.5q43 0 78.5 -11t61 -34.5t40 -60t14.5 -88.5q0 -56 -21.5 -106.5t-58.5 -89t-87 -61.5t-106 -23q-5 0 -10 0.5t-11 0.5
q-39 3 -68.5 17t-51 34.5t-36 47.5t-23 56.5t-12 59.5t-3.5 59q0 64 16 125.5t45 116t70.5 101t93 80t111.5 52t127 18.5h16q9 0 14 -1zM264 1018q-4 -19 -4.5 -34t-0.5 -30q0 -31 7.5 -58t22.5 -48t37 -34.5t51 -17.5q11 -1 21 -1q31 0 59.5 14t50.5 39.5t34.5 60.5
t12.5 76q0 30 -10.5 51.5t-28.5 35.5t-41.5 20.5t-49.5 6.5q-49 0 -90 -20t-71 -61z" />
    <glyph glyph-name="superscriptseven" unicode="&#x2077;" 
d="M232 1470h446l-11 -65q-4 -21 -26 -52.5t-54 -70.5t-70 -85.5t-73.5 -97.5t-65 -105t-44.5 -110l-11 -42q-5 -22 -9.5 -43.5t-8 -41.5t-6.5 -37h-99q2 15 7 40t11.5 53t13.5 55.5t13 47.5q18 54 46 106.5t60.5 100t66.5 89.5t63 76.5t49.5 60.5t26.5 41h-339z" />
    <glyph glyph-name="superscripteight" unicode="&#x2078;" 
d="M499 1478q40 -1 73 -12.5t55.5 -31.5t35 -49t12.5 -66q0 -36 -11 -62.5t-29 -47t-42 -36.5t-50 -30q26 -12 47.5 -33.5t36.5 -48.5t23 -56.5t8 -55.5q0 -65 -21.5 -110.5t-58.5 -73.5t-85 -41t-102 -13q-47 0 -88 11.5t-72 35t-48.5 60t-17.5 86.5q0 44 14 81.5
t38.5 67.5t58.5 52.5t73 39.5q-37 26 -59.5 62.5t-22.5 78.5q0 34 9 61.5t24.5 49t37 37t46 25.5t51 14.5t53.5 4.5h11zM427 1100q-34 -14 -64.5 -30t-53.5 -36.5t-36.5 -46.5t-13.5 -60q0 -35 11 -60t30 -42t45 -25t56 -8q29 0 58 10t52.5 27.5t37.5 42.5t14 55
q0 35 -11 62t-29.5 47t-43.5 35.5t-52 28.5zM461 1181q25 11 47.5 23t39 26.5t26 32t9.5 38.5q0 28 -9 47t-24 31t-33 17t-36 5q-21 0 -42.5 -8t-38.5 -22t-28 -31.5t-11 -36.5q0 -23 7.5 -41t20.5 -32t31.5 -26t40.5 -23z" />
    <glyph glyph-name="superscriptnine" unicode="&#x2079;" 
d="M507 1051q-16 -11 -31.5 -19.5t-30.5 -14t-31 -8.5t-34 -3q-44 0 -80 14.5t-61.5 42.5t-39.5 68.5t-14 92.5q0 56 20.5 102.5t55.5 80.5t81 52.5t98 18.5q45 0 79 -10t58.5 -28t41 -42.5t26.5 -52.5t14 -58.5t4 -61.5q0 -71 -16 -136.5t-45 -122.5t-70.5 -104t-93 -80.5
t-111.5 -52t-127 -18.5v84q62 1 121.5 24t108 64t82.5 98.5t45 128.5zM567 1196v26q0 36 -6 67.5t-21 54.5t-39.5 36.5t-61.5 13.5t-66.5 -14t-49.5 -38.5t-30.5 -57.5t-10.5 -69q0 -28 7.5 -51t23 -39.5t39.5 -25.5t56 -9q24 0 48 8t45 22t38 33.5t28 42.5z" />
    <glyph glyph-name="superscriptplussign" unicode="&#x207a;" 
d="M211 1070h187l37 211h78l-38 -211h186l-13 -78h-186l-38 -211h-77l37 211h-186z" />
    <glyph glyph-name="superscriptminus" unicode="&#x207b;" 
d="M200 1070h450v-78h-450v78z" />
    <glyph glyph-name="superscriptequalssign" unicode="&#x207c;" 
d="M270 1120h350l-14 -78h-350zM235 920h350l-14 -78h-350z" />
    <glyph glyph-name="superscriptleftparenthesis" unicode="&#x207d;" 
d="M304 1310q10 60 22 100.5t31.5 64.5t50.5 34.5t80 10.5q9 0 19.5 -1t19.5 -2.5t16.5 -4t11.5 -5.5l-46 -63l-7 1q-3 1 -7.5 1.5t-9.5 0.5q-28 0 -42.5 -10.5t-22 -28.5t-11 -41.5t-7.5 -49.5l-107 -604q-4 -26 -8.5 -49.5t-3 -41.5t12 -28.5t36.5 -10.5h10q5 0 9 1l7 1
l23 -63q-5 -3 -13.5 -5.5t-18 -4.5t-20 -2.5t-20.5 0.5q-34 2 -57 11.5t-36.5 24.5t-19 35t-6.5 42.5t2 47t8 49.5z" />
    <glyph glyph-name="superscriptrightparenthesis" unicode="&#x207e;" 
d="M425 720q-6 -34 -11.5 -62.5t-13 -52t-19.5 -41.5t-30.5 -30t-45.5 -18.5t-65 -5.5q-10 0 -20 1t-19 2.5t-16.5 3.5t-11.5 5l46 63l7 -1q3 -1 7 -1h10q26 0 40.5 10.5t22.5 28.5t12 41.5t8 49.5l107 604q4 26 7.5 49t1 40.5t-13 28.5t-32.5 12q-6 0 -10.5 -0.5t-8.5 -1.5
l-7 -1l-23 63q5 3 13 5.5t18 4t20.5 2.5t20.5 1q46 0 72 -17t37 -45.5t9.5 -67t-8.5 -80.5z" />
    <glyph glyph-name="superscriptsmalln" unicode="&#x207f;" 
d="M246 720h-95l97 550l96 10l-17 -97l41 59q10 6 24.5 12.5t34.5 11.5t46 8.5t58 3.5q69 0 104.5 -36t35.5 -100q0 -23 -5 -47l-66 -375h-95l66 375q1 7 2 13.5t1 12.5q0 24 -6.5 39.5t-18 24t-28 11t-36.5 2.5q-27 0 -50.5 -6t-44 -15t-38.5 -20t-33 -20z" />
    <glyph glyph-name="subscriptzero" unicode="&#x2080;" 
d="M344 -509q-42 5 -73 23.5t-53 46.5t-35 64t-19.5 76.5t-6.5 85t4 88.5q4 45 16.5 92.5t32.5 91.5t47.5 82.5t61.5 66t74 41.5t86 9q42 -4 73 -22t53 -46t35.5 -64.5t20.5 -77.5t7 -85.5t-5 -87.5q-6 -46 -19 -93.5t-34 -92t-48.5 -83t-61 -66t-73 -41t-83.5 -8.5z
M264 -104q-4 -29 -7.5 -62.5t-4 -68t4 -66.5t17 -57.5t34 -42.5t55.5 -20q29 -3 54.5 7.5t46.5 30.5t37.5 47.5t28.5 59t19.5 65t9.5 64.5q2 29 5 63t3 68.5t-4.5 66.5t-16 57.5t-32.5 42t-54 19.5q-31 3 -56 -7t-45 -30t-36 -48t-27.5 -59.5t-19.5 -64.5t-12 -65z" />
    <glyph glyph-name="subscriptone" unicode="&#x2081;" 
d="M146 -500l14 80h122l85 483l49 113l-84 -93l-123 -94l-43 61l266 210l68 -10l-118 -670h123l-14 -80h-345z" />
    <glyph glyph-name="subscripttwo" unicode="&#x2082;" 
d="M135 -500l15 84q34 49 70 89.5t72 75t71.5 64t68.5 56.5q30 24 57 47.5t47.5 46.5t32.5 47.5t12 50.5q0 27 -7 48.5t-22.5 36t-40.5 22.5t-62 8q-24 0 -44 -8.5t-37 -22t-31 -30.5t-24 -35l-65 30q33 71 92 109.5t136 38.5h19q46 -3 79 -20.5t55 -44.5t32.5 -60.5
t10.5 -68.5q0 -3 -0.5 -6t-0.5 -6q-2 -40 -20.5 -74t-45.5 -64.5t-59 -57.5t-60 -53q-36 -32 -68.5 -60.5t-60 -55.5t-50.5 -53.5t-41 -53.5h335l-14 -80h-452z" />
    <glyph glyph-name="subscriptthree" unicode="&#x2083;" 
d="M285 170l22 80h365l-13 -70q-9 -20 -27 -42t-41.5 -44t-50 -43.5t-52.5 -41.5l-73 -35h36q33 0 66 -12.5t59 -35.5t42 -55.5t16 -72.5q0 -56 -20.5 -100t-55 -77t-81 -56t-99 -37.5t-109 -21t-109.5 -6.5l14 80q39 0 81 6t81.5 17.5t75 27.5t62 37t42 47t15.5 56
q0 32 -11.5 55.5t-32.5 38.5t-50 22.5t-64 7.5q-23 0 -44.5 -0.5t-42.5 -1.5l14 77q23 15 50.5 34t56 39.5t55.5 42t50 40.5t39 36t22 28l-80 -20h-208z" />
    <glyph glyph-name="subscriptfour" unicode="&#x2084;" 
d="M653 -350h-90l-26 -150h-100l26 150h-297l15 85l335 525l92 -10l-287 -450l-58 -70h215l35 203l99 -8l-34 -195h97z" />
    <glyph glyph-name="subscriptfive" unicode="&#x2085;" 
d="M328 -9l13 7q9 4 21 8.5t25.5 7.5t27.5 3q51 0 88.5 -14.5t61.5 -40t35.5 -60t11.5 -75.5q0 -58 -19 -104.5t-51.5 -83t-77.5 -63t-97 -43.5t-109.5 -25t-115.5 -8l14 80q48 0 93 7.5t84.5 21.5t72.5 34t56.5 45.5t36.5 56t13 64.5q0 25 -8.5 47t-24.5 39t-38.5 27.5
t-49.5 10.5q-41 0 -69.5 -8.5t-51.5 -24.5h-57l61 350h372l-14 -80h-273z" />
    <glyph glyph-name="subscriptsix" unicode="&#x2086;" 
d="M632 172q-3 1 -10 1h-12q-44 0 -82.5 -11t-72 -31.5t-62 -49t-51 -63t-40 -73.5t-28.5 -80l52 58q13 8 29.5 15t34.5 13t36 9.5t35 3.5q43 0 78.5 -11t61 -34.5t40 -60t14.5 -88.5q0 -56 -21.5 -106.5t-58.5 -89t-87 -61.5t-106 -23q-5 0 -10 0.5t-11 0.5q-39 3 -68.5 17
t-51 34.5t-36 47.5t-23 56.5t-12 59.5t-3.5 59q0 64 16 125.5t45 116t70.5 101t93 80t111.5 52t127 18.5h16q9 0 14 -1zM264 -202q-4 -19 -4.5 -34t-0.5 -30q0 -31 7.5 -58t22.5 -48t37 -34.5t51 -17.5q11 -1 21 -1q31 0 59.5 14t50.5 39.5t34.5 60.5t12.5 76
q0 30 -10.5 51.5t-28.5 35.5t-41.5 20.5t-49.5 6.5q-49 0 -90 -20t-71 -61z" />
    <glyph glyph-name="subscriptseven" unicode="&#x2087;" 
d="M232 250h446l-11 -65q-4 -21 -26 -52.5t-54 -70.5t-70 -85.5t-73.5 -97.5t-65 -105t-44.5 -110l-11 -42q-5 -22 -9.5 -43.5t-8 -41.5t-6.5 -37h-99q2 15 7 40t11.5 53t13.5 55.5t13 47.5q18 54 46 106.5t60.5 100t66.5 89.5t63 76.5t49.5 60.5t26.5 41h-339z" />
    <glyph glyph-name="subscripteight" unicode="&#x2088;" 
d="M499 258q40 -1 73 -12.5t55.5 -31.5t35 -49t12.5 -66q0 -36 -11 -62.5t-29 -47t-42 -36.5t-50 -30q26 -12 47.5 -33.5t36.5 -48.5t23 -56.5t8 -55.5q0 -65 -21.5 -110.5t-58.5 -73.5t-85 -41t-102 -13q-47 0 -88 11.5t-72 35t-48.5 60t-17.5 86.5q0 44 14 81.5t38.5 67.5
t58.5 52.5t73 39.5q-37 26 -59.5 62.5t-22.5 78.5q0 34 9 61.5t24.5 49t37 37t46 25.5t51 14.5t53.5 4.5h11zM427 -120q-34 -14 -64.5 -30t-53.5 -36.5t-36.5 -46.5t-13.5 -60q0 -35 11 -60t30 -42t45 -25t56 -8q29 0 58 10t52.5 27.5t37.5 42.5t14 55q0 35 -11 62t-29.5 47
t-43.5 35.5t-52 28.5zM461 -39q25 11 47.5 23t39 26.5t26 32t9.5 38.5q0 28 -9 47t-24 31t-33 17t-36 5q-21 0 -42.5 -8t-38.5 -22t-28 -31.5t-11 -36.5q0 -23 7.5 -41t20.5 -32t31.5 -26t40.5 -23z" />
    <glyph glyph-name="subscriptnine" unicode="&#x2089;" 
d="M507 -169q-16 -11 -31.5 -19.5t-30.5 -14t-31 -8.5t-34 -3q-44 0 -80 14.5t-61.5 42.5t-39.5 68.5t-14 92.5q0 56 20.5 102.5t55.5 80.5t81 52.5t98 18.5q45 0 79 -10t58.5 -28t41 -42.5t26.5 -52.5t14 -58.5t4 -61.5q0 -71 -16 -136.5t-45 -122.5t-70.5 -104t-93 -80.5
t-111.5 -52t-127 -18.5v84q62 1 121.5 24t108 64t82.5 98.5t45 128.5zM567 -24v26q0 36 -6 67.5t-21 54.5t-39.5 36.5t-61.5 13.5t-66.5 -14t-49.5 -38.5t-30.5 -57.5t-10.5 -69q0 -28 7.5 -51t23 -39.5t39.5 -25.5t56 -9q24 0 48 8t45 22t38 33.5t28 42.5z" />
    <glyph glyph-name="subscriptplussign" unicode="&#x208a;" 
d="M211 -150h187l37 211h78l-38 -211h186l-13 -78h-186l-38 -211h-77l37 211h-186z" />
    <glyph glyph-name="subscriptminus" unicode="&#x208b;" 
d="M200 -150h450v-78h-450v78z" />
    <glyph glyph-name="subscriptequals" unicode="&#x208c;" 
d="M270 -100h350l-14 -78h-350zM235 -300h350l-14 -78h-350z" />
    <glyph glyph-name="subscriptleftparenthesis" unicode="&#x208d;" 
d="M304 90q10 60 22 100.5t31.5 64.5t50.5 34.5t80 10.5q9 0 19.5 -1t19.5 -2.5t16.5 -4t11.5 -5.5l-46 -63l-7 1q-3 1 -7.5 1.5t-9.5 0.5q-28 0 -42.5 -10.5t-22 -28.5t-11 -41.5t-7.5 -49.5l-107 -604q-4 -26 -8.5 -49.5t-3 -41.5t12 -28.5t36.5 -10.5h10q5 0 9 1l7 1
l23 -63q-5 -3 -13.5 -5.5t-18 -4.5t-20 -2.5t-20.5 0.5q-34 2 -57 11.5t-36.5 24.5t-19 35t-6.5 42.5t2 47t8 49.5z" />
    <glyph glyph-name="subscriptrightparenthesis" unicode="&#x208e;" 
d="M425 -500q-6 -34 -11.5 -62.5t-13 -52t-19.5 -41.5t-30.5 -30t-45.5 -18.5t-65 -5.5q-10 0 -20 1t-19 2.5t-16.5 3.5t-11.5 5l46 63l7 -1q3 -1 7 -1h10q26 0 40.5 10.5t22.5 28.5t12 41.5t8 49.5l107 604q4 26 7.5 49t1 40.5t-13 28.5t-32.5 12q-6 0 -10.5 -0.5
t-8.5 -1.5l-7 -1l-23 63q5 3 13 5.5t18 4t20.5 2.5t20.5 1q46 0 72 -17t37 -45.5t9.5 -67t-8.5 -80.5z" />
    <glyph glyph-name="Euro" unicode="&#x20ac;" 
d="M1071 95q-20 -14 -56 -33t-88 -36.5t-121 -30t-156 -12.5q-106 0 -187 38t-138 106t-90 163.5t-43 209.5h-173l26 151h144q1 57 9 119q5 42 12 80h-130l27 150h140q38 118 99.5 213.5t145 163t188 104t228.5 36.5q243 0 375 -132l-98 -122q-32 22 -64 37t-67 24t-74.5 13
t-85.5 4q-86 -1 -159 -28t-131 -77t-101 -121.5t-70 -161.5l99 47h637l-105 -150h-655q-3 -19 -5.5 -38t-4.5 -39q-4 -39 -6.5 -78.5t-4.5 -80.5l62 37h490l-105 -151h-445q5 -71 22.5 -134t53.5 -110.5t94 -75t145 -27.5q45 0 86 6t80 18t78 29.5t80 40.5z" />
    <glyph glyph-name="indianrupee" unicode="&#x20b9;" 
d="M248 1350l66 150h868l-104 -150h-210l-100 25l63 -66q29 -32 34.5 -71.5t-5.5 -86.5h261l-105 -151h-154l-97 16l50 -61q-22 -69 -69 -127t-111.5 -100t-143 -67t-162.5 -28l135 -40l339 -593h-223l-339 595q-8 14 -21.5 16.5t-21.5 2.5h-50l26 151h78q79 0 144.5 17
t114.5 48t82 74.5t48 95.5h-455l66 151h418q1 103 -54.5 151t-175.5 48h-192z" />
    <glyph glyph-name="centigrade" unicode="&#x2103;" horiz-adv-x="2600" 
d="M1588 95q-20 -14 -56 -33t-88 -36.5t-121 -30t-156 -12.5q-119 0 -207.5 47.5t-147 132t-87.5 200.5t-29 253q0 122 21.5 236.5t63.5 214.5t104 183t143 142t180.5 92t216.5 33q243 0 375 -132l-98 -122q-62 43 -128.5 60.5t-154.5 17.5q-94 0 -169 -29t-133 -80.5
t-100 -122t-68.5 -152t-39 -171.5t-12.5 -181q0 -87 12.5 -168.5t47.5 -144.5t99 -101t166 -38q45 0 86 6t80 18t78 29.5t80 40.5zM468 1520q111 -15 169.5 -85.5t51.5 -184.5q-3 -56 -32.5 -107.5t-74 -90t-100 -58.5t-110.5 -14q-110 13 -166.5 85t-54.5 185q1 38 14.5 74
t36.5 67.5t53.5 57.5t65.5 43.5t72.5 25t74.5 2.5zM392 1091q31 -3 63.5 6.5t59.5 30t44.5 51.5t19.5 71q3 67 -31 107t-100 52q-34 6 -67.5 -3t-60 -30t-43 -53.5t-16.5 -72.5q1 -66 35.5 -109t95.5 -50z" />
    <glyph glyph-name="fahrenheit" unicode="&#x2109;" horiz-adv-x="2600" 
d="M1000 0h-200l227 1290l7 210h875l-48 -160h-645l-14 -190l-46 -265h540l-26 -145h-540zM568 1520q111 -15 169.5 -85.5t51.5 -184.5q-3 -56 -32.5 -107.5t-74 -90t-100 -58.5t-110.5 -14q-110 13 -166.5 85t-54.5 185q1 38 14.5 74t36.5 67.5t53.5 57.5t65.5 43.5
t72.5 25t74.5 2.5zM492 1091q31 -3 63.5 6.5t59.5 30t44.5 51.5t19.5 71q3 67 -31 107t-100 52q-34 6 -67.5 -3t-60 -30t-43 -53.5t-16.5 -72.5q1 -66 35.5 -109t95.5 -50z" />
    <glyph glyph-name="Ifraktur" unicode="&#x2111;" 
d="M418 1400h620l-26 -184q-39 -23 -77 -57.5t-68 -74.5t-48.5 -81t-18.5 -77q0 -44 20.5 -92.5t52 -101t67.5 -109t67.5 -117t52 -124.5t20.5 -131q0 -131 -73.5 -199.5t-214.5 -68.5q-41 0 -83 11.5t-81 28.5t-72.5 38t-57.5 41l-18 98l-150 -134l-119 90l229 197
q39 -37 81.5 -71t86 -60.5t86.5 -42t84 -15.5q22 0 42 5t35.5 15.5t25 27t9.5 40.5q0 37 -20.5 85.5t-52 104t-67.5 115.5t-67.5 119.5t-52 116.5t-20.5 107q0 26 7 63t28 79t59 87t100 87h-334q-23 -23 -31 -51t-8 -58q0 -17 4.5 -35t9.5 -32q6 -17 15 -33l-106 -60
q-59 83 -59 174q0 130 123 279z" />
    <glyph glyph-name="lsquare" unicode="&#x2113;" 
d="M300 540h100v460q0 112 15.5 207t54.5 164t104.5 107.5t165.5 38.5q56 0 104 -23t82.5 -73t54 -129.5t19.5 -191.5q0 -75 -1.5 -156t-9.5 -159t-26.5 -147.5t-51.5 -122.5t-84.5 -84t-126.5 -31h-100v-17q0 -55 5 -99.5t21 -76.5q17 -33 45 -52q32 -21 66 -25
q19 -2 30 -3t15 -1q25 0 57.5 8t51.5 19l83 -123q-21 -10 -45 -18.5t-53 -15t-65 -10t-81 -3.5q-96 0 -159.5 30.5t-101.5 84.5t-53.5 127t-15.5 158v17h-100v140zM650 540h50q29 0 49.5 19t34 51.5t21 76t11 93.5t4 103t0.5 104q0 73 -1.5 142.5t-10.5 123t-27.5 86
t-52.5 32.5q-21 0 -43.5 -16.5t-41.5 -55.5t-31 -102.5t-12 -157.5v-599z" />
    <glyph glyph-name="weierstrass" unicode="&#x2118;" 
d="M249 -358q25 0 43.5 18t30.5 46t17.5 63t5.5 70q0 36 -5.5 85.5t-14.5 100t-20.5 97t-23.5 78.5v86q-32 -54 -56.5 -119t-41.5 -134t-26 -138t-9 -131q0 -59 24.5 -90.5t75.5 -31.5zM620 1031q-62 -12 -124 -38t-112 -70t-81.5 -108t-31.5 -153q0 -42 11 -92v-122
q71 111 148.5 201t161.5 153.5t173.5 97.5t184.5 34q93 0 157.5 -32t105 -86.5t58.5 -127t18 -152.5q0 -69 -12 -139q-4 -24 -16.5 -64t-35.5 -86t-57.5 -93t-82.5 -85t-110 -62t-141 -24q-54 0 -105 18t-91.5 52.5t-65 84.5t-24.5 113q0 97 34 163.5t86 108t114 59.5
t118 18l-20 -80q-38 0 -78 -13t-73.5 -43t-55 -79.5t-21.5 -123.5q0 -32 15 -62t41 -52.5t60.5 -36t74.5 -13.5q39 0 75 20t67 54.5t56.5 79.5t43 94.5t27.5 101.5t10 99q0 55 -15.5 101.5t-44.5 80.5t-70 53t-92 19q-95 0 -173.5 -34.5t-145 -91.5t-124 -130t-111.5 -149
q30 -65 58 -134.5t49.5 -140t34 -140t12.5 -134.5q0 -61 -12.5 -125t-44 -116t-84.5 -85.5t-135 -33.5q-59 0 -98 20.5t-62.5 54.5t-33 79t-9.5 94q0 83 15.5 166t42 160.5t61 146.5t73.5 124q-15 34 -31 68.5t-29 71.5t-21.5 78t-8.5 88q0 78 21.5 144.5t58 119.5t84 93.5
t100.5 68t108 41t105 13.5z" />
    <glyph glyph-name="Rfraktur" unicode="&#x211c;" 
d="M591 628l80 92l74 29q65 25 100 64t51.5 83t19 91t2.5 89q0 32 -7.5 60.5t-16.5 49.5q-11 25 -24 46q-70 0 -117.5 -12.5t-78.5 -33.5t-48 -48.5t-24.5 -58.5t-9 -63.5t-1.5 -62.5v-325zM900 1400q39 -26 75 -62.5t64 -82t44.5 -98.5t16.5 -110q0 -60 -2 -116.5
t-15.5 -105t-42 -85.5t-81.5 -57q19 -19 30 -38t17 -40t8 -45t2 -53v-217q0 -17 2.5 -35t8.5 -34.5t15 -30t22 -22.5l133 53l53 -96l-230 -142q-36 9 -70 23t-60.5 38t-43 61.5t-16.5 94.5v171q0 82 -4 146t-29 99l-206 -63v-253q0 -55 -6.5 -111.5t-28 -102t-63.5 -74.5
t-113 -29h-23l-130 134l-76 -64l-82 72l158 174l131 -130q34 19 42 44t8 53v716q0 27 4.5 58t23.5 62.5t57 60.5t105 53h-297q-23 -20 -31.5 -47t-8.5 -57q0 -20 4.5 -38.5t9.5 -33.5q6 -18 15 -33l-106 -60q-36 47 -47.5 90t-11.5 93q0 37 10 73.5t27 71t39.5 66.5t46.5 59
h652z" />
    <glyph glyph-name="trademark" unicode="&#x2122;" 
d="M148 900l94 533h-200l12 67h500l-12 -67h-200l-94 -533h-100zM1048 900l101 570l-80 -170l-183 -300h-40l-77 300l-20 170l-101 -570h-100l106 600h140l76 -250l13 -150l67 150l164 250h140l-106 -600h-100z" />
    <glyph glyph-name="Ohm" unicode="&#x2126;" 
d="M28 160h130l190 -60l-173 204q-33 52 -52.5 109t-28.5 117t-9.5 121.5t5.5 123.5q16 165 62.5 304.5t130.5 239t210.5 153t303.5 45.5q126 -6 217 -59t147 -148.5t76.5 -230.5t4.5 -304q-9 -92 -34 -167.5t-56.5 -134.5t-64.5 -102t-57 -71l-284 -200l211 60h171
l-28 -160h-521l35 200q66 19 134.5 70.5t127 124.5t100 163t53.5 186q34 278 -33 428t-235 155q-70 2 -130 -17t-109 -55t-87 -85.5t-65.5 -108t-44 -122.5t-21.5 -129q-10 -126 -3.5 -220.5t32 -166.5t70.5 -125.5t112 -97.5l-35 -200h-480z" />
    <glyph glyph-name="angstrom" unicode="&#x212b;" 
d="M968 1881q48 -8 85.5 -29.5t62.5 -53t37 -71t10 -83.5q-3 -57 -27.5 -102.5t-63.5 -77.5q-37 -30 -83 -46l261 -1418h-200l-68 450h-535l-246 -450h-183l701 1300l51 147q-16 14 -30 31q-27 33 -41 76t-11 90q3 50 27.5 96.5t63.5 80.5t88.5 51t100.5 9zM877 1400
l-101 -320l-254 -480h437l-93 480zM905 1520q24 -5 49.5 2t47 23.5t34.5 41.5t11 56q-3 52 -26.5 81.5t-73.5 39.5q-26 5 -51.5 -3.5t-46 -26t-33 -41.5t-11.5 -50q3 -102 100 -123z" />
    <glyph glyph-name="scriptsmallo" unicode="&#x2134;" 
d="M467 -17q-70 0 -124 22t-90.5 61.5t-55.5 95t-19 122.5q0 74 18 147.5t52 140t82.5 124t109.5 99.5t133 66t153 24q69 0 123.5 -21t92 -60t57 -93.5t19.5 -120.5q0 -74 -18.5 -147.5t-52.5 -140.5t-83 -125.5t-110.5 -101.5t-133.5 -67.5t-153 -24.5zM848 558
q0 39 -7.5 73.5t-25.5 60t-47.5 40t-74.5 14.5q-54 0 -100.5 -19t-85 -51.5t-68.5 -76t-50.5 -92t-31.5 -99.5t-11 -98q0 -40 7.5 -74t25.5 -59t48 -39.5t74 -14.5q81 0 145 39t109 101.5t69 140t24 154.5z" />
    <glyph glyph-name="aleph" unicode="&#x2135;" 
d="M788 1100q4 -56 26.5 -90t54.5 -58t68 -43t66.5 -44t50.5 -62t20 -96q0 -63 -28 -139h-86q0 39 -7.5 67.5t-20 51t-30 40t-38.5 32.5q-12 -42 -33 -73.5t-53 -63.5q97 -57 158.5 -117.5t96 -119.5t47.5 -114t13 -103q0 -55 -11 -101t-20 -67h-105q0 64 -20.5 114.5
t-56.5 93.5t-85 81t-106 78.5t-120 86.5t-126 104v108q-29 -31 -46.5 -52t-27 -36.5t-12.5 -27t-3 -21.5q0 -39 19 -74t48 -68.5t62 -66t62 -67t48 -71.5t19 -79q0 -50 -31 -103h-382l40 140h175l-153 88q-26 39 -44 86.5t-18 106.5q0 36 9 72.5t24.5 71t37.5 66t49 57.5
q-61 62 -89.5 120.5t-28.5 127.5q0 36 7.5 76t22.5 88h89q0 -58 27.5 -110.5t71.5 -100t99 -89.5t111 -79v-97q39 35 63.5 61t37.5 47t17.5 39.5t4.5 39.5v12q-45 35 -65.5 68t-20.5 78q0 51 28 131h94z" />
    <glyph glyph-name="onethirds" unicode="&#x2153;" 
d="M354 0h-135l775 1500h126zM46 720l14 80h122l85 483l49 113l-84 -93l-123 -94l-43 61l266 210l68 -10l-118 -670h123l-14 -80h-345zM838 670l22 80h365l-13 -70q-9 -20 -27 -42t-41.5 -44t-50 -43.5t-52.5 -41.5l-73 -35h36q33 0 66 -12.5t59 -35.5t42 -55.5t16 -72.5
q0 -56 -20.5 -100t-55 -77t-81 -56t-99 -37.5t-109 -21t-109.5 -6.5l14 80q39 0 81 6t81.5 17.5t75 27.5t62 37t42 47t15.5 56q0 32 -11.5 55.5t-32.5 38.5t-50 22.5t-64 7.5q-23 0 -44.5 -0.5t-42.5 -1.5l14 77q23 15 50.5 34t56 39.5t55.5 42t50 40.5t39 36t22 28l-80 -20
h-208z" />
    <glyph glyph-name="twothirds" unicode="&#x2154;" 
d="M354 0h-135l775 1500h126zM35 720l15 84q34 49 70 89.5t72 75t71.5 64t68.5 56.5q30 24 57 47.5t47.5 46.5t32.5 47.5t12 50.5q0 27 -7 48.5t-22.5 36t-40.5 22.5t-62 8q-24 0 -44 -8.5t-37 -22t-31 -30.5t-24 -35l-65 30q33 71 92 109.5t136 38.5h19q46 -3 79 -20.5
t55 -44.5t32.5 -60.5t10.5 -68.5q0 -3 -0.5 -6t-0.5 -6q-2 -40 -20.5 -74t-45.5 -64.5t-59 -57.5t-60 -53q-36 -32 -68.5 -60.5t-60 -55.5t-50.5 -53.5t-41 -53.5h335l-14 -80h-452zM838 670l22 80h365l-13 -70q-9 -20 -27 -42t-41.5 -44t-50 -43.5t-52.5 -41.5l-73 -35h36
q33 0 66 -12.5t59 -35.5t42 -55.5t16 -72.5q0 -56 -20.5 -100t-55 -77t-81 -56t-99 -37.5t-109 -21t-109.5 -6.5l14 80q39 0 81 6t81.5 17.5t75 27.5t62 37t42 47t15.5 56q0 32 -11.5 55.5t-32.5 38.5t-50 22.5t-64 7.5q-23 0 -44.5 -0.5t-42.5 -1.5l14 77q23 15 50.5 34
t56 39.5t55.5 42t50 40.5t39 36t22 28l-80 -20h-208z" />
    <glyph glyph-name="onefifth" unicode="&#x2155;" 
d="M354 0h-135l775 1500h126zM916 491l13 6q9 5 21 9.5t25.5 7.5t27.5 3q51 0 88.5 -14.5t61.5 -40t35.5 -60t11.5 -75.5q0 -58 -19 -104.5t-51.5 -83t-77.5 -63t-97 -43.5t-109.5 -25t-115.5 -8l14 80q48 0 93 7.5t84.5 21.5t72.5 34t56.5 45.5t36.5 56t13 64.5
q0 25 -8.5 47t-24.5 39t-38.5 27.5t-49.5 10.5q-41 0 -69.5 -8.5t-51.5 -24.5h-57l61 350h372l-14 -80h-273zM46 720l14 80h122l85 483l49 113l-84 -93l-123 -94l-43 61l266 210l68 -10l-118 -670h123l-14 -80h-345z" />
    <glyph glyph-name="twofifths" unicode="&#x2156;" 
d="M354 0h-135l775 1500h126zM916 491l13 6q9 5 21 9.5t25.5 7.5t27.5 3q51 0 88.5 -14.5t61.5 -40t35.5 -60t11.5 -75.5q0 -58 -19 -104.5t-51.5 -83t-77.5 -63t-97 -43.5t-109.5 -25t-115.5 -8l14 80q48 0 93 7.5t84.5 21.5t72.5 34t56.5 45.5t36.5 56t13 64.5
q0 25 -8.5 47t-24.5 39t-38.5 27.5t-49.5 10.5q-41 0 -69.5 -8.5t-51.5 -24.5h-57l61 350h372l-14 -80h-273zM35 720l15 84q34 49 70 89.5t72 75t71.5 64t68.5 56.5q30 24 57 47.5t47.5 46.5t32.5 47.5t12 50.5q0 27 -7 48.5t-22.5 36t-40.5 22.5t-62 8q-24 0 -44 -8.5
t-37 -22t-31 -30.5t-24 -35l-65 30q33 71 92 109.5t136 38.5h19q46 -3 79 -20.5t55 -44.5t32.5 -60.5t10.5 -68.5q0 -3 -0.5 -6t-0.5 -6q-2 -40 -20.5 -74t-45.5 -64.5t-59 -57.5t-60 -53q-36 -32 -68.5 -60.5t-60 -55.5t-50.5 -53.5t-41 -53.5h335l-14 -80h-452z" />
    <glyph glyph-name="threefifths" unicode="&#x2157;" 
d="M354 0h-135l775 1500h126zM916 491l13 6q9 5 21 9.5t25.5 7.5t27.5 3q51 0 88.5 -14.5t61.5 -40t35.5 -60t11.5 -75.5q0 -58 -19 -104.5t-51.5 -83t-77.5 -63t-97 -43.5t-109.5 -25t-115.5 -8l14 80q48 0 93 7.5t84.5 21.5t72.5 34t56.5 45.5t36.5 56t13 64.5
q0 25 -8.5 47t-24.5 39t-38.5 27.5t-49.5 10.5q-41 0 -69.5 -8.5t-51.5 -24.5h-57l61 350h372l-14 -80h-273zM185 1390l22 80h365l-13 -70q-9 -20 -27 -42t-41.5 -44t-50 -43.5t-52.5 -41.5l-73 -35h36q33 0 66 -12.5t59 -35.5t42 -55.5t16 -72.5q0 -56 -20.5 -100t-55 -77
t-81 -56t-99 -37.5t-109 -21t-109.5 -6.5l14 80q39 0 81 6t81.5 17.5t75 27.5t62 37t42 47t15.5 56q0 32 -11.5 55.5t-32.5 38.5t-50 22.5t-64 7.5q-23 0 -44.5 -0.5t-42.5 -1.5l14 77q23 15 50.5 34t56 39.5t55.5 42t50 40.5t39 36t22 28l-80 -20h-208z" />
    <glyph glyph-name="fourfifths" unicode="&#x2158;" 
d="M354 0h-135l775 1500h126zM916 491l13 6q9 5 21 9.5t25.5 7.5t27.5 3q51 0 88.5 -14.5t61.5 -40t35.5 -60t11.5 -75.5q0 -58 -19 -104.5t-51.5 -83t-77.5 -63t-97 -43.5t-109.5 -25t-115.5 -8l14 80q48 0 93 7.5t84.5 21.5t72.5 34t56.5 45.5t36.5 56t13 64.5
q0 25 -8.5 47t-24.5 39t-38.5 27.5t-49.5 10.5q-41 0 -69.5 -8.5t-51.5 -24.5h-57l61 350h372l-14 -80h-273zM553 870h-90l-26 -150h-100l26 150h-297l15 85l335 525l92 -10l-287 -450l-58 -70h215l35 203l99 -8l-34 -195h97z" />
    <glyph glyph-name="onesixth" unicode="&#x2159;" 
d="M1185 672q-3 1 -10 1h-12q-44 0 -82.5 -11t-72 -31.5t-62 -49t-51 -63t-40 -73.5t-28.5 -80l52 58q13 8 29.5 15t34.5 13t36 9.5t35 3.5q43 0 78.5 -11t61 -34.5t40 -60t14.5 -88.5q0 -56 -21.5 -106.5t-58.5 -89t-87 -61.5t-106 -23q-5 0 -10 0.5t-11 0.5
q-39 3 -68.5 17t-51 34.5t-36 47.5t-23 56.5t-12 59.5t-3.5 59q0 64 16 125.5t45 116t70.5 101t93 80t111.5 52t127 18.5h16q9 0 14 -1zM354 0h-135l775 1500h126zM46 720l14 80h122l85 483l49 113l-84 -93l-123 -94l-43 61l266 210l68 -10l-118 -670h123l-14 -80h-345z
M817 298q-4 -19 -4.5 -34t-0.5 -30q0 -31 7.5 -58t22.5 -48t37 -34.5t51 -17.5q11 -1 21 -1q31 0 59.5 14t50.5 39.5t34.5 60.5t12.5 76q0 30 -10.5 51.5t-28.5 35.5t-41.5 20.5t-49.5 6.5q-49 0 -90 -20t-71 -61z" />
    <glyph glyph-name="fivesixths" unicode="&#x215a;" 
d="M1185 672q-3 1 -10 1h-12q-44 0 -82.5 -11t-72 -31.5t-62 -49t-51 -63t-40 -73.5t-28.5 -80l52 58q13 8 29.5 15t34.5 13t36 9.5t35 3.5q43 0 78.5 -11t61 -34.5t40 -60t14.5 -88.5q0 -56 -21.5 -106.5t-58.5 -89t-87 -61.5t-106 -23q-5 0 -10 0.5t-11 0.5
q-39 3 -68.5 17t-51 34.5t-36 47.5t-23 56.5t-12 59.5t-3.5 59q0 64 16 125.5t45 116t70.5 101t93 80t111.5 52t127 18.5h16q9 0 14 -1zM354 0h-135l775 1500h126zM228 1211l13 6q9 5 21 9.5t25.5 7.5t27.5 3q51 0 88.5 -14.5t61.5 -40t35.5 -60t11.5 -75.5
q0 -58 -19 -104.5t-51.5 -83t-77.5 -63t-97 -43.5t-109.5 -25t-115.5 -8l14 80q48 0 93 7.5t84.5 21.5t72.5 34t56.5 45.5t36.5 56t13 64.5q0 25 -8.5 47t-24.5 39t-38.5 27.5t-49.5 10.5q-41 0 -69.5 -8.5t-51.5 -24.5h-57l61 350h372l-14 -80h-273zM817 298
q-4 -19 -4.5 -34t-0.5 -30q0 -31 7.5 -58t22.5 -48t37 -34.5t51 -17.5q11 -1 21 -1q31 0 59.5 14t50.5 39.5t34.5 60.5t12.5 76q0 30 -10.5 51.5t-28.5 35.5t-41.5 20.5t-49.5 6.5q-49 0 -90 -20t-71 -61z" />
    <glyph glyph-name="oneeighth" unicode="&#x215b;" 
d="M354 0h-135l775 1500h126zM46 720l14 80h122l85 483l49 113l-84 -93l-123 -94l-43 61l266 210l68 -10l-118 -670h123l-14 -80h-345zM1052 758q40 -1 73 -12.5t55.5 -31.5t35 -49t12.5 -66q0 -36 -11 -62.5t-29 -47t-42 -36.5t-50 -30q26 -12 47.5 -33.5t36.5 -48.5
t23 -56.5t8 -55.5q0 -65 -21.5 -110.5t-58.5 -73.5t-85 -41t-102 -13q-47 0 -88 11.5t-72 35t-48.5 60t-17.5 86.5q0 44 14 81.5t38.5 67.5t58.5 52.5t73 39.5q-37 26 -59.5 62.5t-22.5 78.5q0 34 9 61.5t24.5 49t37 37t46 25.5t51 14.5t53.5 4.5h11zM980 380
q-34 -14 -64.5 -30t-53.5 -36.5t-36.5 -46.5t-13.5 -60q0 -35 11 -60t30 -42t45 -25t56 -8q29 0 58 10t52.5 27.5t37.5 42.5t14 55q0 35 -11 62t-29.5 47t-43.5 35.5t-52 28.5zM1014 461q25 11 47.5 23t39 26.5t26 32t9.5 38.5q0 28 -9 47t-24 31t-33 17t-36 5
q-21 0 -42.5 -8t-38.5 -22t-28 -31.5t-11 -36.5q0 -23 7.5 -41t20.5 -32t31.5 -26t40.5 -23z" />
    <glyph glyph-name="threeeighths" unicode="&#x215c;" 
d="M354 0h-135l775 1500h126zM185 1390l22 80h365l-13 -70q-9 -20 -27 -42t-41.5 -44t-50 -43.5t-52.5 -41.5l-73 -35h36q33 0 66 -12.5t59 -35.5t42 -55.5t16 -72.5q0 -56 -20.5 -100t-55 -77t-81 -56t-99 -37.5t-109 -21t-109.5 -6.5l14 80q39 0 81 6t81.5 17.5t75 27.5
t62 37t42 47t15.5 56q0 32 -11.5 55.5t-32.5 38.5t-50 22.5t-64 7.5q-23 0 -44.5 -0.5t-42.5 -1.5l14 77q23 15 50.5 34t56 39.5t55.5 42t50 40.5t39 36t22 28l-80 -20h-208zM1052 758q40 -1 73 -12.5t55.5 -31.5t35 -49t12.5 -66q0 -36 -11 -62.5t-29 -47t-42 -36.5
t-50 -30q26 -12 47.5 -33.5t36.5 -48.5t23 -56.5t8 -55.5q0 -65 -21.5 -110.5t-58.5 -73.5t-85 -41t-102 -13q-47 0 -88 11.5t-72 35t-48.5 60t-17.5 86.5q0 44 14 81.5t38.5 67.5t58.5 52.5t73 39.5q-37 26 -59.5 62.5t-22.5 78.5q0 34 9 61.5t24.5 49t37 37t46 25.5
t51 14.5t53.5 4.5h11zM980 380q-34 -14 -64.5 -30t-53.5 -36.5t-36.5 -46.5t-13.5 -60q0 -35 11 -60t30 -42t45 -25t56 -8q29 0 58 10t52.5 27.5t37.5 42.5t14 55q0 35 -11 62t-29.5 47t-43.5 35.5t-52 28.5zM1014 461q25 11 47.5 23t39 26.5t26 32t9.5 38.5q0 28 -9 47
t-24 31t-33 17t-36 5q-21 0 -42.5 -8t-38.5 -22t-28 -31.5t-11 -36.5q0 -23 7.5 -41t20.5 -32t31.5 -26t40.5 -23z" />
    <glyph glyph-name="fiveeighths" unicode="&#x215d;" 
d="M1052 758q40 -1 73 -12.5t55.5 -31.5t35 -49t12.5 -66q0 -36 -11 -62.5t-29 -47t-42 -36.5t-50 -30q26 -12 47.5 -33.5t36.5 -48.5t23 -56.5t8 -55.5q0 -65 -21.5 -110.5t-58.5 -73.5t-85 -41t-102 -13q-47 0 -88 11.5t-72 35t-48.5 60t-17.5 86.5q0 44 14 81.5
t38.5 67.5t58.5 52.5t73 39.5q-37 26 -59.5 62.5t-22.5 78.5q0 34 9 61.5t24.5 49t37 37t46 25.5t51 14.5t53.5 4.5h11zM354 0h-135l775 1500h126zM228 1211l13 6q9 5 21 9.5t25.5 7.5t27.5 3q51 0 88.5 -14.5t61.5 -40t35.5 -60t11.5 -75.5q0 -58 -19 -104.5t-51.5 -83
t-77.5 -63t-97 -43.5t-109.5 -25t-115.5 -8l14 80q48 0 93 7.5t84.5 21.5t72.5 34t56.5 45.5t36.5 56t13 64.5q0 25 -8.5 47t-24.5 39t-38.5 27.5t-49.5 10.5q-41 0 -69.5 -8.5t-51.5 -24.5h-57l61 350h372l-14 -80h-273zM980 380q-34 -14 -64.5 -30t-53.5 -36.5
t-36.5 -46.5t-13.5 -60q0 -35 11 -60t30 -42t45 -25t56 -8q29 0 58 10t52.5 27.5t37.5 42.5t14 55q0 35 -11 62t-29.5 47t-43.5 35.5t-52 28.5zM1014 461q25 11 47.5 23t39 26.5t26 32t9.5 38.5q0 28 -9 47t-24 31t-33 17t-36 5q-21 0 -42.5 -8t-38.5 -22t-28 -31.5
t-11 -36.5q0 -23 7.5 -41t20.5 -32t31.5 -26t40.5 -23z" />
    <glyph glyph-name="seveneighths" unicode="&#x215e;" 
d="M1052 758q40 -1 73 -12.5t55.5 -31.5t35 -49t12.5 -66q0 -36 -11 -62.5t-29 -47t-42 -36.5t-50 -30q26 -12 47.5 -33.5t36.5 -48.5t23 -56.5t8 -55.5q0 -65 -21.5 -110.5t-58.5 -73.5t-85 -41t-102 -13q-47 0 -88 11.5t-72 35t-48.5 60t-17.5 86.5q0 44 14 81.5
t38.5 67.5t58.5 52.5t73 39.5q-37 26 -59.5 62.5t-22.5 78.5q0 34 9 61.5t24.5 49t37 37t46 25.5t51 14.5t53.5 4.5h11zM354 0h-135l775 1500h126zM132 1470h446l-11 -65q-4 -21 -26 -52.5t-54 -70.5t-70 -85.5t-73.5 -97.5t-65 -105t-44.5 -110l-11 -42q-5 -22 -9.5 -43.5
t-8 -41.5t-6.5 -37h-99q2 15 7 40t11.5 53t13.5 55.5t13 47.5q18 54 46 106.5t60.5 100t66.5 89.5t63 76.5t49.5 60.5t26.5 41h-339zM980 380q-34 -14 -64.5 -30t-53.5 -36.5t-36.5 -46.5t-13.5 -60q0 -35 11 -60t30 -42t45 -25t56 -8q29 0 58 10t52.5 27.5t37.5 42.5t14 55
q0 35 -11 62t-29.5 47t-43.5 35.5t-52 28.5zM1014 461q25 11 47.5 23t39 26.5t26 32t9.5 38.5q0 28 -9 47t-24 31t-33 17t-36 5q-21 0 -42.5 -8t-38.5 -22t-28 -31.5t-11 -36.5q0 -23 7.5 -41t20.5 -32t31.5 -26t40.5 -23z" />
    <glyph glyph-name="fractionnumeratorone" unicode="&#x215f;" 
d="M354 0h-135l775 1500h126zM46 720l14 80h122l85 483l49 113l-84 -93l-123 -94l-43 61l266 210l68 -10l-118 -670h123l-14 -80h-345z" />
    <glyph glyph-name="romannumeralone" unicode="&#x2160;" 
d="M338 1500h900l-28 -160h-358l-209 -1180h378l-48 -160h-900l28 160h356l209 1180h-376z" />
    <glyph glyph-name="romannumeraltwo" unicode="&#x2161;" horiz-adv-x="2600" 
d="M356 1500h1282l-23 -139h-358l-214 -1201h378l-48 -160h-1305l48 160h346l211 1200h-317v140zM672 160h185l214 1200h-188z" />
    <glyph glyph-name="romannumeralthree" unicode="&#x2162;" horiz-adv-x="2600" 
d="M356 1500h1682l-24 -140h-358l-213 -1200h378l-48 -160h-1705l48 160h346l211 1200h-317v140zM672 160h190l211 1200h-190zM1072 160h185l213 1200h-187z" />
    <glyph glyph-name="romannumeralfour" unicode="&#x2163;" horiz-adv-x="2600" 
d="M1469 500l24 -360l104 314l514 1046h189l-652 -1320l-61 -200l-232 20l-198 1360h-274l-211 -1200h334v-160h-938l48 160h346l211 1200h-317v140h973z" />
    <glyph glyph-name="romannumeralfive" unicode="&#x2164;" 
d="M469 500l24 -360l104 314l514 1046h189l-652 -1320l-61 -200l-232 20l-218 1500l189 20z" />
    <glyph glyph-name="romannumeralsix" unicode="&#x2165;" horiz-adv-x="2600" 
d="M469 500l24 -360l104 314l514 1046h938l-28 -160h-358l-209 -1180h378l-48 -160h-900l28 160h356l209 1180h-256l-573 -1160l-61 -200l-232 20l-218 1500l189 20z" />
    <glyph glyph-name="romannumeralseven" unicode="&#x2166;" horiz-adv-x="2600" 
d="M469 500l24 -360l104 314l514 1046h1331l-28 -160h-358l-209 -1180h378l-48 -160h-1305l48 160h346l211 1200h-246l-583 -1180l-61 -200l-232 20l-218 1500l189 20zM1661 160l209 1180h-187l-207 -1180h185z" />
    <glyph glyph-name="romannumeraleight" unicode="&#x2167;" horiz-adv-x="2800" 
d="M469 500l24 -360l104 314l514 1046h1730l-24 -140h-358l-213 -1200h378l-48 -160h-1705l48 160h346l211 1200h-245l-583 -1180l-61 -200l-232 20l-218 1500l189 20zM1475 160h190l211 1200h-190zM1875 160h185l213 1200h-187z" />
    <glyph glyph-name="romannumeralnine" unicode="&#x2168;" horiz-adv-x="2600" 
d="M338 1500h1022l140 -444l35 -196l59 160l330 480h193l-513 -724l280 -776h-220l-158 519l-41 181l-80 -160l-370 -540h-942l28 160h356l209 1180h-376zM1387 799l-192 541h-343l-209 -1180h288z" />
    <glyph glyph-name="romannumeralten" unicode="&#x2169;" 
d="M846 0l-158 519l-41 181l-80 -160l-370 -540h-198l570 799l-249 701l216 20l146 -464l35 -196l59 160l330 480h193l-513 -724l280 -776h-220z" />
    <glyph glyph-name="romannumeraleleven" unicode="&#x216a;" horiz-adv-x="2600" 
d="M1106 1500h938l-28 -160h-358l-209 -1180h378l-48 -160h-933l-158 519l-41 181l-80 -160l-370 -540h-198l570 799l-249 701l216 20l146 -464l35 -196l59 160zM1263 160l209 1180h-287l-399 -564l222 -616h255z" />
    <glyph glyph-name="romannumeraltwelve" unicode="&#x216b;" horiz-adv-x="2600" 
d="M846 0l-158 519l-41 181l-80 -160l-370 -540h-198l570 799l-249 701l216 20l146 -464l35 -196l59 160l330 480h1342l-23 -139h-358l-214 -1201h378l-48 -160h-1337zM1272 160l211 1200h-283l-414 -584l222 -616h264zM1482 160h185l214 1200h-188z" />
    <glyph glyph-name="smallromannumeralone" unicode="&#x2170;" 
d="M290 0h-190l193 1100l194 21z" />
    <glyph glyph-name="smallromannumeraltwo" unicode="&#x2171;" 
d="M290 0h-190l193 1100l194 21zM690 0h-190l193 1100l194 21z" />
    <glyph glyph-name="smallromannumeralthree" unicode="&#x2172;" 
d="M290 0h-190l193 1100l194 21zM690 0h-190l193 1100l194 21zM1090 0h-190l193 1100l194 21z" />
    <glyph glyph-name="smallromannumeralfour" unicode="&#x2173;" horiz-adv-x="2600" 
d="M1602 1121l-672 -1141l-202 20l-164 1100l187 21l109 -740l12 -232l91 232l420 719zM290 0h-190l193 1100l194 21z" />
    <glyph glyph-name="smallromannumeralfive" unicode="&#x2174;" 
d="M1138 1121l-672 -1141l-202 20l-164 1100l187 21l109 -740l12 -232l91 232l420 719z" />
    <glyph glyph-name="smallromannumeralsix" unicode="&#x2175;" horiz-adv-x="2600" 
d="M1138 1121l-672 -1141l-202 20l-164 1100l187 21l109 -740l12 -232l91 232l420 719zM1190 0h-190l193 1100l194 21z" />
    <glyph glyph-name="smallromannumeralseven" unicode="&#x2176;" horiz-adv-x="2600" 
d="M1138 1121l-672 -1141l-202 20l-164 1100l187 21l109 -740l12 -232l91 232l420 719zM1190 0h-190l193 1100l194 21zM1590 0h-190l193 1100l194 21z" />
    <glyph glyph-name="smallromannumeraleight" unicode="&#x2177;" horiz-adv-x="2600" 
d="M1136 1121l-672 -1141l-202 20l-164 1100l187 21l109 -740l12 -232l91 232l420 719zM1190 0h-190l193 1100l194 21zM1590 0h-190l193 1100l194 21zM1990 0h-190l193 1100l194 21z" />
    <glyph glyph-name="smallromannumeralnine" unicode="&#x2178;" horiz-adv-x="2600" 
d="M1251 0l-201 382l-24 118l-66 -118l-335 -382h-199l515 588l-268 512l214 21l176 -340l20 -111l57 111l281 319l215 21l-469 -538l309 -583h-225zM290 0h-190l193 1100l194 21z" />
    <glyph glyph-name="smallromannumeralten" unicode="&#x2179;" 
d="M851 0l-201 382l-24 118l-66 -118l-335 -382h-199l515 588l-268 512l214 21l176 -340l20 -111l57 111l281 319l215 21l-469 -538l309 -583h-225z" />
    <glyph glyph-name="smallromannumeraleleven" unicode="&#x217a;" horiz-adv-x="2600" 
d="M851 0l-201 382l-24 118l-66 -118l-335 -382h-199l515 588l-268 512l214 21l176 -340l20 -111l57 111l281 319l215 21l-469 -538l309 -583h-225zM1390 0h-190l193 1100l194 21z" />
    <glyph glyph-name="smallromannumeraltwelve" unicode="&#x217b;" horiz-adv-x="2600" 
d="M851 0l-201 382l-24 118l-66 -118l-335 -382h-199l515 588l-268 512l214 21l176 -340l20 -111l57 111l281 319l215 21l-469 -538l309 -583h-225zM1390 0h-190l193 1100l194 21zM1790 0h-190l193 1100l194 21z" />
    <glyph glyph-name="arrowleft" unicode="&#x2190;" 
d="M447 500l-104 12l57 -75v-237l-301 300l-119 100l120 100l300 300v-235l-57 -75l104 10h853v-200h-853z" />
    <glyph glyph-name="arrowup" unicode="&#x2191;" 
d="M500 1053l12 104l-75 -57h-237l300 301l100 119l100 -120l300 -300h-235l-75 57l10 -104v-1053h-200v1053z" />
    <glyph glyph-name="arrowright" unicode="&#x2192;" 
d="M0 500v200h853l104 -10l-57 75v235l300 -300l120 -100l-119 -100l-301 -300v237l57 75l-104 -12h-853z" />
    <glyph glyph-name="arrowdown" unicode="&#x2193;" 
d="M500 1500h200v-1053l-10 -104l75 57h235l-300 -300l-100 -120l-100 119l-300 301h237l75 -57l-12 104v1053z" />
    <glyph glyph-name="arrowboth" unicode="&#x2194;" 
d="M447 500l-104 12l57 -75v-237l-301 300l-119 100l120 100l300 300v-235l-57 -75l104 10h406l104 -10l-57 75v235l300 -300l120 -100l-119 -100l-301 -300v237l57 75l-104 -12h-406z" />
    <glyph glyph-name="arrowupdn" unicode="&#x2195;" 
d="M700 467l-12 -104l75 57h237l-300 -301l-100 -119l-100 120l-300 300h235l75 -57l-10 104v386l10 104l-75 -57h-235l300 300l100 120l100 -119l300 -301h-237l-75 57l12 -104v-386z" />
    <glyph glyph-name="arrowupleft" unicode="&#x2196;" 
d="M1090 151l-141 -141l-603 603l-67 79l-11 -93l-168 -165v404l-20 182l182 -20h404l-166 -169l-94 -12l81 -65z" />
    <glyph glyph-name="arrowupright" unicode="&#x2197;" 
d="M713 754l81 65l-94 12l-166 169h404l182 20l-20 -182v-404l-168 165l-11 93l-67 -79l-603 -603l-141 141z" />
    <glyph glyph-name="arrowdownright" unicode="&#x2198;" 
d="M110 849l141 141l603 -603l67 -79l11 93l168 165v-404l20 -182l-182 20h-404l166 169l94 12l-81 65z" />
    <glyph glyph-name="arrowdownleft" unicode="&#x2199;" 
d="M487 246l-81 -65l94 -12l166 -169h-404l-182 -20l20 182v404l168 -165l11 -93l67 79l603 603l141 -141z" />
    <glyph glyph-name="leftwardsarrowwithhook" unicode="&#x21a9;" 
d="M447 400l-104 12l57 -75v-237l-301 300l-119 100l120 100l300 300v-235l-57 -75l104 10h453q27 0 50.5 7.5t41.5 21t28 32t10 39.5t-10 39t-28 31.5t-41.5 21.5t-50.5 8v200q56 0 110 -19t96 -56.5t68 -93.5t26 -131t-26 -131.5t-68 -94t-96 -56t-110 -18.5h-453z" />
    <glyph glyph-name="rightwardsarrowwithhook" unicode="&#x21aa;" 
d="M300 400q-56 0 -110 18.5t-96 56t-68 94t-26 131.5t26 131t68 93.5t96 56.5t110 19v-200q-27 0 -50.5 -8t-41.5 -21.5t-28 -31.5t-10 -39t10 -39.5t28 -32t41.5 -21t50.5 -7.5h453l104 -10l-57 75v235l300 -300l120 -100l-119 -100l-301 -300v237l57 75l-104 -12h-453z
" />
    <glyph glyph-name="downwardsarrowwithtiprightwards" unicode="&#x21b3;" 
d="M359 500h294l104 -10l-57 75v235l300 -300l120 -100l-119 -100l-301 -300v237l57 75l-104 -12h-453v1000h159v-800z" />
    <glyph glyph-name="carriagereturn" unicode="&#x21b5;" 
d="M941 1300h159v-1000h-453l-104 12l57 -75v-237l-301 300l-119 100l120 100l300 300v-235l-57 -75l104 10h294v800z" />
    <glyph glyph-name="undo" unicode="&#x21b6;" 
d="M400 369l166 -169h-404l-182 -20l20 182v404l168 -165l11 -93l67 79l41 43q69 72 130 131t125 101.5t135.5 65.5t162.5 23q97 0 180.5 -26t145 -81t97 -140.5t37.5 -203.5h-200q0 120 -59 185.5t-188 65.5q-71 0 -127.5 -27.5t-109.5 -71t-107.5 -98t-121.5 -108.5
l-81 -65z" />
    <glyph glyph-name="redo" unicode="&#x21b7;" 
d="M994 381l-81 65q-67 54 -121.5 108.5t-107.5 98t-109.5 71t-127.5 27.5q-129 0 -188 -65.5t-59 -185.5h-200q1 118 36.5 203.5t97 140.5t145 81t181.5 26q91 0 162.5 -23t135.5 -65.5t125 -101.5t130 -131l41 -43l67 -79l11 93l168 165v-404l20 -182l-182 20h-404
l166 169z" />
    <glyph glyph-name="arrowdblleft" unicode="&#x21d0;" 
d="M7 691l366 366h170l-245 -244l100 -13h902v-116h-752l-350 28l-131 -112l131 -112l350 28h752v-116h-902l-100 -12l245 -245h-170l-366 366l-107 91z" />
    <glyph glyph-name="arrowdblup" unicode="&#x21d1;" 
d="M691 1393l366 -366v-170l-244 245l-13 -100v-1002h-116v852l28 350l-112 131l-112 -131l28 -350v-852h-116v1002l-12 100l-245 -245v170l366 366l91 107z" />
    <glyph glyph-name="arrowdblright" unicode="&#x21d2;" 
d="M1400 600l-107 -91l-366 -366h-170l245 245l-100 12h-902v116h752l350 -28l131 112l-131 112l-350 -28h-752v116h902l100 13l-245 244h170l366 -366z" />
    <glyph glyph-name="arrowdbldown" unicode="&#x21d3;" 
d="M600 0l-91 107l-366 366v170l245 -245l12 100v1002h116v-852l-28 -350l112 -131l112 131l-28 350v852h116v-1002l13 -100l244 245v-170l-366 -366z" />
    <glyph glyph-name="arrowdblleftright" unicode="&#x21d4;" 
d="M1400 600l-107 -91l-366 -366h-170l245 245l-100 12h-504l-100 -12l245 -245h-170l-366 366l-107 91l107 91l366 366h170l-245 -244l100 -13h504l100 13l-245 244h170l366 -366zM548 516h204l350 -28l131 112l-131 112l-350 -28h-204l-350 28l-131 -112l131 -112z" />
    <glyph glyph-name="arrowdblupdown" unicode="&#x21d5;" 
d="M600 0l-91 107l-366 366v170l245 -245l12 100v504l-12 100l-245 -245v170l366 366l91 107l91 -107l366 -366v-170l-244 245l-13 -100v-504l13 -100l244 245v-170l-366 -366zM516 852v-204l-28 -350l112 -131l112 131l-28 350v204l28 350l-112 131l-112 -131z" />
    <glyph glyph-name="arrowdblnorthwest" unicode="&#x21d6;" 
d="M229 1100h518l120 -121h-346l62 -79l637 -638l-82 -82l-531 532l-228 267l-172 14l14 -172l267 -228l532 -531l-82 -82l-638 637l-79 63v-347l-121 120v518l-11 140z" />
    <glyph glyph-name="arrowdblnortheast" unicode="&#x21d7;" 
d="M1211 1111l-11 -140v-518l-121 -120v347l-79 -63l-638 -637l-82 82l532 531l267 228l14 172l-172 -14l-228 -267l-531 -532l-82 82l637 638l62 79h-346l120 121h518z" />
    <glyph glyph-name="arrowdblsoutheast" unicode="&#x21d8;" 
d="M1071 0h-518l-120 121h346l-62 79l-637 638l82 82l531 -532l228 -267l172 -14l-14 172l-267 228l-532 531l82 82l638 -637l79 -63v347l121 -120v-518l11 -140z" />
    <glyph glyph-name="arrowdblsouthwest" unicode="&#x21d9;" 
d="M89 -11l11 140v518l121 120v-347l79 63l638 637l82 -82l-532 -531l-267 -228l-14 -172l172 14l228 267l531 532l82 -82l-637 -638l-62 -79h346l-120 -121h-518z" />
    <glyph glyph-name="pageup" unicode="&#x21de;" 
d="M300 500h200v160h-200v140h200v253l12 104l-75 -57h-237l300 301l100 119l100 -120l300 -300h-235l-75 57l10 -104v-253h200v-140h-200v-160h200v-140h-200v-360h-200v360h-200v140z" />
    <glyph glyph-name="pagedown" unicode="&#x21df;" 
d="M300 1140h200v360h200v-360h200v-140h-200v-160h200v-140h-200v-253l-10 -104l75 57h235l-300 -300l-100 -120l-100 119l-300 301h237l75 -57l-12 104v253h-200v140h200v160h-200v140z" />
    <glyph glyph-name="leftwardsdashedarrow" unicode="&#x21e0;" 
d="M447 500l-104 12l57 -75v-237l-301 300l-119 100l120 100l300 300v-235l-57 -75l104 10h103v-200h-103zM700 700h250v-200h-250v200zM1100 700h250v-200h-250v200z" />
    <glyph glyph-name="upwardsdashedarrow" unicode="&#x21e1;" 
d="M500 1053l12 104l-75 -57h-237l300 301l100 119l100 -120l300 -300h-235l-75 57l10 -104v-103h-200v103zM700 800v-250h-200v250h200zM700 400v-250h-200v250h200z" />
    <glyph glyph-name="rightwardsdashedarrow" unicode="&#x21e2;" 
d="M750 500v200h103l104 -10l-57 75v235l300 -300l120 -100l-119 -100l-301 -300v237l57 75l-104 -12h-103zM600 500h-250v200h250v-200zM200 500h-250v200h250v-200z" />
    <glyph glyph-name="downwardsdashedarrow" unicode="&#x21e3;" 
d="M500 550h200v-103l-10 -104l75 57h235l-300 -300l-100 -120l-100 119l-300 301h237l75 -57l-12 104v103zM500 700v250h200v-250h-200zM500 1100v250h200v-250h-200z" />
    <glyph glyph-name="shift" unicode="&#x21e7;" 
d="M600 1430l91 -107l382 -366v-102h-155l-8 -100v-755h-620v755l-9 100h-154v102l382 366zM400 662v-562h400v562l21 275h112l-333 336l-333 -336h113z" />
    <glyph glyph-name="capslock" unicode="&#x21ea;" 
d="M600 1430l91 -107l382 -366v-102h-155l-8 -100v-355h-620v355l-9 100h-154v102l382 366zM400 662v-162h400v162l21 275h112l-333 336l-333 -336h113zM910 300v-100l11 -200h-642l11 200v100h620zM400 94h400v106h-400v-106z" />
    <glyph glyph-name="universal" unicode="&#x2200;" 
d="M997 1300h190l-539 -1320l-143 20l-38 160l-439 1140h177l130 -300h531zM546 400l54 -288l54 288l156 450h-420z" />
    <glyph glyph-name="complement" unicode="&#x2201;" 
d="M670 143q105 0 167.5 66t62.5 207l174 -16q0 -92 -23.5 -168.5t-72.5 -131.5t-125.5 -86t-182.5 -31q-100 0 -173.5 25t-126 70t-85.5 107t-52 136.5t-26 158t-7 170.5t7 170.5t26 158t52 136.5t85.5 107t126 70t173.5 25q101 0 176.5 -30.5t126 -86t76 -132t25.5 -168.5
l-174 -15q0 131 -60.5 201.5t-169.5 70.5q-68 0 -114.5 -20t-78 -55.5t-49 -84t-26 -105t-10.5 -118.5t-2 -124q0 -63 2 -124.5t10.5 -118t26 -105t49 -84t78.5 -55.5t114 -20z" />
    <glyph glyph-name="partialdiff" unicode="&#x2202;" 
d="M902 634q-16 24 -42 46t-58.5 38.5t-69 26.5t-72.5 10q-75 0 -125.5 -22.5t-81.5 -65t-44 -104t-13 -140.5q0 -26 3 -56.5t10.5 -61.5t21 -60t34 -51t49 -35.5t67.5 -13.5q62 0 108.5 22t80 59t56.5 86t37.5 103.5t23.5 110.5t15 108zM1095 780q0 -81 -11 -171.5
t-35.5 -179t-63 -169.5t-94.5 -142.5t-130.5 -98t-169.5 -36.5q-104 0 -178.5 36t-121.5 95.5t-69 136.5t-22 160q0 133 31.5 224t84.5 146.5t123.5 79.5t147.5 24q66 0 117.5 -13t90.5 -32.5t67.5 -42.5t48.5 -44q0 136 -18 254.5t-59.5 205.5t-108.5 137t-164 50
q-63 0 -129.5 -9.5t-131.5 -44.5l-54 83q28 18 63.5 34t74.5 28t80.5 19t80.5 7q271 0 410.5 -185t139.5 -552z" />
    <glyph glyph-name="existential" unicode="&#x2203;" 
d="M1015 160l-15 190v300h-752l-18 150h770v150l20 200h-845v150h1017l-22 -200v-900l17 -200h-1012v160h840z" />
    <glyph glyph-name="theredoesnotexist" unicode="&#x2204;" 
d="M320 -200h-155l71 200h-161v160h219l175 490h-321l-18 150h393l125 350h-573v150h627l72 200h146l-71 -200h243l-22 -200v-900l17 -200h-697zM915 160l-15 190v300h-280l-173 -490h468zM900 800v150l20 200h-124l-123 -350h227z" />
    <glyph glyph-name="emptyset" unicode="&#x2205;" 
d="M375 -200h-155l91 254q-72 40 -128 100.5t-94.5 137t-58.5 167t-20 191.5q0 144 39.5 266t114.5 211.5t185 139.5t251 50q42 0 81 -5t75 -14l73 202h146l-89 -253q72 -40 128.5 -100t95.5 -137t59.5 -168t20.5 -192q0 -144 -39.5 -266t-114.5 -211.5t-185 -139.5
t-251 -50q-42 0 -80 5t-74 13zM595 1169q-108 0 -184 -41t-125 -109.5t-71.5 -156.5t-22.5 -182q0 -71 10 -139.5t31 -129.5t54 -113t79 -89l339 946q-51 14 -110 14zM1008 623q0 70 -10 138.5t-31.5 130t-55 113t-80.5 88.5l-335 -949q25 -6 52 -9.5t57 -3.5
q106 0 182.5 42t125.5 111t72 157.5t23 181.5z" />
    <glyph glyph-name="gradient" unicode="&#x2207;" 
d="M49 1500h1172l-473 -1500h-227zM336 1340l-123 52l82 -92l311 -1058l30 -167l30 167l311 1058l85 92l-126 -52h-600z" />
    <glyph glyph-name="element" unicode="&#x2208;" 
d="M1220 0h-377q-171 0 -308.5 40.5t-234 122t-148.5 203.5t-52 284t52 284t148.5 203.5t234 122t308.5 40.5h377l-20 -154h-353q-198 0 -333 -66.5t-195 -208.5q-28 -66 -35 -146h916v-150h-916q7 -81 35 -147q60 -142 195 -208.5t333 -66.5h353z" />
    <glyph glyph-name="notelement" unicode="&#x2209;" 
d="M1220 0h-377q-133 0 -244 24l-79 -224h-155l95 266q-171 71 -265.5 217t-94.5 367q0 162 52 284t148.5 203.5t234 122t308.5 40.5h59l72 200h146l-71 -200h171l-20 -154h-205l-149 -421h354v-150h-407l-142 -403q45 -10 93.5 -14.5t102.5 -4.5h353zM319 871
q-28 -66 -35 -146h412l151 421q-198 0 -333 -66.5t-195 -208.5zM319 428q29 -72 78.5 -123.5t117.5 -85.5l127 356h-358q7 -81 35 -147z" />
    <glyph glyph-name="suchthat" unicode="&#x220b;" 
d="M100 153h353q198 0 333 66.5t195 208.5q28 66 35 147h-916v150h916q-7 80 -35 146q-60 142 -195 208.5t-333 66.5h-353l-20 154h377q171 0 308.5 -40.5t234 -122t148.5 -203.5t52 -284t-52 -284t-148.5 -203.5t-234 -122t-308.5 -40.5h-377z" />
    <glyph glyph-name="doesnotcontainasmember" unicode="&#x220c;" 
d="M100 153h191l151 422h-342v150h396l145 403q-86 18 -188 18h-353l-20 154h377q125 0 237 -23l80 223h146l-93 -262q177 -70 275 -217t98 -371q0 -162 -52 -284t-148.5 -203.5t-234 -122t-308.5 -40.5h-67l-70 -200h-155l71 200h-156zM453 153q198 0 333 66.5t195 208.5
q28 66 35 147h-423l-149 -422h9zM1016 725q-7 80 -35 146q-62 146 -208 214l-127 -360h370z" />
    <glyph glyph-name="minus" unicode="&#x2212;" 
d="M200 700h900v-155h-900v155z" />
    <glyph glyph-name="minusplus" unicode="&#x2213;" 
d="M223 612h373l75 338h155l-75 -338h372l-27 -124h-372l-75 -338h-155l75 338h-373zM200 1200h900v-140h-900v140z" />
    <glyph glyph-name="ringoperator" unicode="&#x2218;" 
d="M668 920q111 -15 169.5 -85.5t51.5 -184.5q-3 -56 -32.5 -107.5t-74 -90t-100 -58.5t-110.5 -14q-110 13 -166.5 85t-54.5 185q1 38 14.5 74t36.5 67.5t53.5 57.5t65.5 43.5t72.5 25t74.5 2.5zM592 491q31 -3 63.5 6.5t59.5 30t44.5 51.5t19.5 71q3 67 -31 107t-100 52
q-34 6 -67.5 -3t-60 -30t-43 -53.5t-16.5 -72.5q1 -66 35.5 -109t95.5 -50z" />
    <glyph glyph-name="radical" unicode="&#x221a;" 
d="M1220 1300l-20 -150h-170l-200 20l-314 -1190l-238 20l-133 550l-77 200l185 20l111 -470l36 -240l36 240l262 1000h522z" />
    <glyph glyph-name="proportional" unicode="&#x221d;" 
d="M477 330q57 0 103 33t81 82t59.5 104.5t39.5 100.5q-23 49 -51.5 103.5t-65.5 100.5t-83 76t-103 30q-47 0 -82.5 -27.5t-59 -71.5t-35 -99.5t-11.5 -111.5t15 -113t42.5 -103t66 -75t84.5 -29zM1234 189q-68 0 -121.5 23t-101.5 68t-94 113t-97 158l4 -95
q-26 -51 -58.5 -100t-75.5 -87.5t-98.5 -62t-125.5 -23.5q-97 0 -166.5 42t-113.5 109t-65 150t-21 166q0 55 8 111t25.5 108t45.5 97t68.5 78.5t94.5 53t124 19.5q67 0 121 -23.5t102 -69t94 -114t97 -158.5l-4 95q26 51 58.5 99.5t75.5 86.5t98 61t126 23l-11 -147
q-57 0 -103 -32.5t-81 -81t-59.5 -103.5t-39.5 -100q22 -49 51 -103t66 -99.5t83 -75t103 -29.5z" />
    <glyph glyph-name="infinity" unicode="&#x221e;" 
d="M337 387q57 0 95 30t63.5 75t42.5 97.5t32 97.5q-23 49 -43.5 95.5t-48.5 83t-66 59t-95 22.5q-47 0 -73 -21t-38 -57.5t-14.5 -86t-2.5 -105.5t6 -108.5t22 -93t45 -64.5t75 -24zM634 578v-115q-18 -104 -92.5 -163.5t-215.5 -59.5q-97 0 -157 37.5t-93 98.5
t-44.5 139.5t-11.5 161.5q0 55 3.5 109t14 103t31 90.5t54.5 72t84 48t119 17.5q64 0 111.5 -24.5t85 -68t69.5 -102t65 -125.5l9 -19v116q18 102 92.5 162.5t215.5 60.5q97 0 157 -37.5t93 -98.5t44.5 -140t11.5 -161q0 -55 -3.5 -109t-14 -103t-31 -90.5t-54.5 -72
t-84 -48t-119 -17.5q-67 0 -115 25.5t-86.5 71t-70.5 107.5t-68 134zM963 970q-57 0 -95 -30t-63.5 -75t-42.5 -97.5t-32 -97.5q22 -49 43 -95.5t49 -83t66 -59t95 -22.5q47 0 73 21t38 57.5t14.5 86t2.5 105.5t-6 108.5t-22 93t-45 64.5t-75 24z" />
    <glyph glyph-name="sphericalangle" unicode="&#x2222;" 
d="M100 600l1015 587l122 -91l-272 -157q56 -93 84 -192.5t28 -202.5q0 -101 -27 -201.5t-84 -197.5l242 -140l-108 -86l-1000 564v117zM862 205q46 79 68 164t22 171q0 90 -23 175.5t-68 163.5l-593 -337z" />
    <glyph glyph-name="parallelto" unicode="&#x2225;" 
d="M455 1500v-1500h-155v1500h155zM855 1500v-1500h-155v1500h155z" />
    <glyph glyph-name="logicaland" unicode="&#x2227;" 
d="M780 1320l442 -1320h-164l-336 980l-65 240l-65 -240l-337 -980h-162l429 1300z" />
    <glyph glyph-name="logicalor" unicode="&#x2228;" 
d="M522 0l-429 1300l155 20l344 -1000l65 -240l65 240l336 980l171 20l-442 -1320h-265z" />
    <glyph glyph-name="intersection" unicode="&#x2229;" 
d="M650 1140q-88 0 -149.5 -24t-103 -65.5t-65 -97.5t-35.5 -119t-15 -130t-3 -131v-573h-179v538q0 114 8.5 215t31 185.5t62 151.5t100.5 113.5t146.5 71.5t201.5 25q115 0 201 -25t147 -71.5t100 -113.5t61.5 -151.5t31 -185.5t8.5 -215v-538h-179v573q0 64 -3 131
t-15 130t-35.5 119t-64.5 97.5t-102.5 65.5t-149.5 24z" />
    <glyph glyph-name="union" unicode="&#x222a;" 
d="M649 143q88 0 149.5 24t103 65.5t65 97.5t35.5 119t15 130t3 131v570l179 20v-555q0 -114 -8.5 -215t-31 -185.5t-62 -151.5t-100.5 -113.5t-146.5 -71.5t-201.5 -25t-201.5 25t-146.5 71.5t-100 113.5t-61.5 151.5t-31 185.5t-8.5 215v535l179 20v-590q0 -64 3 -131
t15 -130t35.5 -119t64.5 -97.5t102.5 -65.5t149.5 -24z" />
    <glyph glyph-name="integral" unicode="&#x222b;" 
d="M600 1117q0 85 15.5 158t53.5 127t101.5 84.5t159.5 30.5q46 0 78.5 -3.5t58 -10t46 -15t41.5 -18.5l-63 -123q-19 11 -51.5 19t-57.5 8h-16q-4 0 -14 -0.5t-23 -3.5t-28 -9t-30 -16q-44 -31 -57.5 -87.5t-13.5 -140.5v-1138q0 -85 -15.5 -158t-53.5 -127t-101.5 -84.5
t-159.5 -30.5q-46 0 -110.5 10t-133.5 37l83 123q19 -11 51.5 -19t57.5 -8q4 0 15 1.5t29 3.5q37 4 66 24q46 31 59 87t13 141v1138z" />
    <glyph glyph-name="contourintegral" unicode="&#x222e;" 
d="M500 1117q0 85 15.5 158t53.5 127t101.5 84.5t159.5 30.5q46 0 78.5 -3.5t58 -10t46 -15t41.5 -18.5l-63 -123q-19 11 -51.5 19t-57.5 8q-24 0 -52.5 -4.5t-58.5 -24.5q-44 -31 -57.5 -87.5t-13.5 -140.5v-243q59 -15 109 -46t86.5 -74.5t57 -96.5t20.5 -111
q0 -59 -20.5 -111.5t-57 -96t-86.5 -75t-109 -46.5v-238q0 -85 -15.5 -158t-53.5 -127t-101.5 -84.5t-159.5 -30.5q-45 0 -81 3.5t-65 10t-53 15t-45 18.5l83 123q19 -11 51.5 -19t57.5 -8q4 0 15 1.5t29 3.5q37 4 66 24q46 31 59 87t13 141v238q-60 15 -110 46.5t-87 74.5
t-57.5 96t-20.5 112t20.5 112t57.5 96.5t87 74.5t110 46v242zM357 546q0 -38 10.5 -72t29 -62.5t45 -51t58.5 -36.5v444q-64 -29 -103.5 -88t-39.5 -134zM841 546q0 37 -10.5 70.5t-29 62.5t-44.5 51.5t-57 36.5v-442q63 29 102 87.5t39 133.5z" />
    <glyph glyph-name="therefore" unicode="&#x2234;" 
d="M-393 150q6 34 24 64t44.5 52.5t58.5 35.5t66 13t61.5 -13t46 -35.5t26.5 -52.5t2 -64t-24.5 -64.5t-44.5 -53t-58 -36t-66 -13.5t-62 13.5t-46.5 36t-26 53t-1.5 64.5zM407 150q6 34 24 64t44.5 52.5t58.5 35.5t66 13t61.5 -13t46 -35.5t26.5 -52.5t2 -64t-24.5 -64.5
t-44.5 -53t-58 -36t-66 -13.5t-62 13.5t-46.5 36t-26 53t-1.5 64.5zM7 1040q6 34 24 64t44.5 52.5t58.5 35.5t66 13t61.5 -13t46 -35.5t26.5 -52.5t2 -64t-24.5 -64.5t-44.5 -53t-58 -36t-66 -13.5t-62 13.5t-46.5 36t-26 53t-1.5 64.5z" />
    <glyph glyph-name="because" unicode="&#x2235;" 
d="M-393 1040q6 34 24 64t44.5 52.5t58.5 35.5t66 13t61.5 -13t46 -35.5t26.5 -52.5t2 -64t-24.5 -64.5t-44.5 -53t-58 -36t-66 -13.5t-62 13.5t-46.5 36t-26 53t-1.5 64.5zM407 1040q6 34 24 64t44.5 52.5t58.5 35.5t66 13t61.5 -13t46 -35.5t26.5 -52.5t2 -64t-24.5 -64.5
t-44.5 -53t-58 -36t-66 -13.5t-62 13.5t-46.5 36t-26 53t-1.5 64.5zM7 150q6 34 24 64t44.5 52.5t58.5 35.5t66 13t61.5 -13t46 -35.5t26.5 -52.5t2 -64t-24.5 -64.5t-44.5 -53t-58 -36t-66 -13.5t-62 13.5t-46.5 36t-26 53t-1.5 64.5z" />
    <glyph glyph-name="similar" unicode="&#x223c;" 
d="M760 400q-35 0 -66 12.5t-59.5 31.5t-55 41t-52 41t-51 31.5t-51.5 12.5q-31 0 -58.5 -7.5t-54.5 -21.5t-54.5 -34.5t-57.5 -46.5v100q20 28 43 53t52 44.5t64.5 31t80.5 11.5q52 0 96.5 -26.5t84.5 -58.5t77.5 -58.5t76.5 -26.5q61 0 113 28.5t112 81.5v-100
q-20 -28 -43 -53t-52 -44.5t-64.5 -31t-80.5 -11.5z" />
    <glyph glyph-name="asymptoticallyequal" unicode="&#x2243;" 
d="M200 400h800v-140h-800v140zM760 500q-35 0 -66 12.5t-59.5 31.5t-55 41t-52 41t-51 31.5t-51.5 12.5q-31 0 -58.5 -7.5t-54.5 -21.5t-54.5 -34.5t-57.5 -46.5v100q20 28 43 53t52 44.5t64.5 31t80.5 11.5q52 0 96.5 -26.5t84.5 -58.5t77.5 -58.5t76.5 -26.5
q61 0 113 28.5t112 81.5v-100q-20 -28 -43 -53t-52 -44.5t-64.5 -31t-80.5 -11.5z" />
    <glyph glyph-name="congruent" unicode="&#x2245;" 
d="M200 600h800v-140h-800v140zM200 300h800v-140h-800v140zM760 700q-35 0 -66 12.5t-59.5 31.5t-55 41t-52 41t-51 31.5t-51.5 12.5q-31 0 -58.5 -7.5t-54.5 -21.5t-54.5 -34.5t-57.5 -46.5v100q20 28 43 53t52 44.5t64.5 31t80.5 11.5q52 0 96.5 -26.5t84.5 -58.5
t77.5 -58.5t76.5 -26.5q61 0 113 28.5t112 81.5v-100q-20 -28 -43 -53t-52 -44.5t-64.5 -31t-80.5 -11.5z" />
    <glyph glyph-name="approxequal" unicode="&#x2248;" 
d="M860 500q-35 0 -66 12.5t-59.5 31.5t-55 41t-52 41t-51 31.5t-51.5 12.5q-31 0 -58.5 -7.5t-54.5 -21.5t-54.5 -34.5t-57.5 -46.5v100q20 28 43 53t52 44.5t64.5 31t80.5 11.5q52 0 96.5 -26.5t84.5 -58.5t77.5 -58.5t76.5 -26.5q61 0 113 28.5t112 81.5v-100
q-20 -28 -43 -53t-52 -44.5t-64.5 -31t-80.5 -11.5zM860 200q-35 0 -66 12.5t-59.5 31.5t-55 41t-52 41t-51 31.5t-51.5 12.5q-31 0 -58.5 -7.5t-54.5 -21.5t-54.5 -34.5t-57.5 -46.5v100q20 28 43 53t52 44.5t64.5 31t80.5 11.5q52 0 96.5 -26.5t84.5 -58.5t77.5 -58.5
t76.5 -26.5q61 0 113 28.5t112 81.5v-100q-20 -28 -43 -53t-52 -44.5t-64.5 -31t-80.5 -11.5z" />
    <glyph glyph-name="estimate" unicode="&#x2259;" 
d="M200 600h800v-140h-800v140zM200 300h800v-140h-800v140zM917 754h-120l-169 196l-27 67l-26 -65l-162 -197h-130l275 352l77 10z" />
    <glyph glyph-name="notequal" unicode="&#x2260;" 
d="M200 400h280l58 160h-338v140h388l109 300h146l-106 -300h263v-140h-312l-56 -160h368v-140h-418l-91 -260h-155l94 260h-230v140z" />
    <glyph glyph-name="equivalence" unicode="&#x2261;" 
d="M200 600h800v-140h-800v140zM200 300h800v-140h-800v140zM200 900h800v-140h-800v140z" />
    <glyph glyph-name="lessequal" unicode="&#x2264;" 
d="M200 135h900l-20 -135h-880v135zM1100 1119v-140l-687 -293l-78 -16l77 -16l688 -291v-140l-900 365v168z" />
    <glyph glyph-name="greaterequal" unicode="&#x2265;" 
d="M200 135h900l-20 -135h-880v135zM1102 756v-168l-900 -365v140l688 291l77 16l-78 16l-687 293v140z" />
    <glyph glyph-name="propersubset" unicode="&#x2282;" 
d="M1220 0h-377q-171 0 -308.5 40.5t-234 122t-148.5 203.5t-52 284t52 284t148.5 203.5t234 122t308.5 40.5h377l-20 -154h-353q-198 0 -333 -66.5t-195 -208.5q-27 -65 -27 -222t27 -221q60 -142 195 -208.5t333 -66.5h353z" />
    <glyph glyph-name="propersuperset" unicode="&#x2283;" 
d="M100 153h353q198 0 333 66.5t195 208.5q27 64 27 221t-27 222q-60 142 -195 208.5t-333 66.5h-353l-20 154h377q171 0 308.5 -40.5t234 -122t148.5 -203.5t52 -284t-52 -284t-148.5 -203.5t-234 -122t-308.5 -40.5h-377z" />
    <glyph glyph-name="reflexsubset" unicode="&#x2286;" 
d="M200 155h1000l20 -154h-1020v154zM1220 300h-377q-172 0 -309 40.5t-234 122.5q-95 80 -148 203q-52 120 -52 234t52 234q53 123 148 203q97 82 234 122.5t309 40.5h377l-20 -154h-353q-198 0 -333 -66.5t-195 -208.5q-27 -65 -27 -172t27 -171q60 -142 195 -208.5
t333 -66.5h353z" />
    <glyph glyph-name="reflexsuperset" unicode="&#x2287;" 
d="M1100 1h-1020l20 154h1000v-154zM100 453h353q198 0 333 66.5t195 208.5q27 64 27 171t-27 172q-60 142 -195 208.5t-333 66.5h-353l-20 154h377q172 0 308.5 -40.5t233.5 -122.5q96 -79 149 -203q52 -120 52 -234t-52 -234q-53 -123 -149 -204q-97 -81 -233.5 -121.5
t-308.5 -40.5h-377z" />
    <glyph glyph-name="circleplus" unicode="&#x2295;" 
d="M-17 750q0 159 44.5 298.5t130 243.5t209.5 164.5t283 60.5t283 -60.5t209.5 -164.5t130 -243.5t44.5 -298.5t-44.5 -298.5t-130 -243.5t-209.5 -164.5t-283 -60.5t-283 60.5t-209.5 164.5t-130 243.5t-44.5 298.5zM136 675q13 -105 43.5 -198t83.5 -164.5t130 -117.5
t182 -59v539h-439zM575 1362q-105 -13 -182 -59t-130 -117t-83.5 -163.5t-43.5 -197.5h439v537zM725 136q105 13 182 59t129.5 117.5t82.5 164.5t43 198h-437v-539zM1162 825q-13 105 -43 197.5t-82.5 163.5t-129.5 117t-182 59v-537h437z" />
    <glyph glyph-name="circleminus" unicode="&#x2296;" 
d="M-17 750q0 159 44.5 298.5t130 243.5t209.5 164.5t283 60.5t283 -60.5t209.5 -164.5t130 -243.5t44.5 -298.5t-44.5 -298.5t-130 -243.5t-209.5 -164.5t-283 -60.5t-283 60.5t-209.5 164.5t-130 243.5t-44.5 298.5zM650 132q118 0 207.5 42t152.5 115t100.5 172t51.5 214
h-1026q14 -115 51.5 -214t101 -172t153 -115t208.5 -42zM650 1367q-119 0 -208.5 -42t-153 -115t-101 -172t-51.5 -213h1026q-14 114 -51.5 213t-100.5 172t-152.5 115t-207.5 42z" />
    <glyph glyph-name="circlemultiply" unicode="&#x2297;" 
d="M-17 750q0 159 44.5 298.5t130 243.5t209.5 164.5t283 60.5t283 -60.5t209.5 -164.5t130 -243.5t44.5 -298.5t-44.5 -298.5t-130 -243.5t-209.5 -164.5t-283 -60.5t-283 60.5t-209.5 164.5t-130 243.5t-44.5 298.5zM132 750q0 -54 7.5 -110t22.5 -110t37.5 -103t53.5 -88
l291 411l-291 410q-31 -39 -53.5 -88t-37.5 -102.5t-22.5 -109.5t-7.5 -110zM650 122q93 0 164.5 24.5t135.5 86.5l-300 411l-301 -411q32 -31 65.5 -52t70.5 -34t77.5 -19t87.5 -6zM650 1377q-93 0 -164.5 -25t-135.5 -86l300 -410l300 410q-64 62 -135.5 86.5t-164.5 24.5
zM1167 750q0 54 -7.5 110t-22.5 109.5t-37.5 102.5t-53.5 88l-290 -410l290 -410q31 39 53.5 88t37.5 102.5t22.5 109.5t7.5 110z" />
    <glyph glyph-name="circledivide" unicode="&#x2298;" 
d="M-17 750q0 159 44.5 298.5t130 243.5t209.5 164.5t283 60.5t283 -60.5t209.5 -164.5t130 -243.5t44.5 -298.5t-44.5 -298.5t-130 -243.5t-209.5 -164.5t-283 -60.5t-283 60.5t-209.5 164.5t-130 243.5t-44.5 298.5zM152 750q0 -54 4 -110t15.5 -110t31 -103t50.5 -88
l677 937q-28 23 -55 40t-59.5 28.5t-72 17t-93.5 5.5q-128 0 -221.5 -48.5t-155 -132t-91.5 -196t-30 -240.5zM1147 750q0 54 -4.5 110t-15.5 109.5t-30.5 102.5t-50.5 88l-677 -937q28 -23 55 -40.5t59.5 -28.5t72.5 -16.5t94 -5.5q128 0 221.5 48.5t155 132.5t91 196.5
t29.5 240.5z" />
    <glyph glyph-name="perpendicular" unicode="&#x22a5;" 
d="M700 1300v-1150h400l-20 -150h-985l20 150h385v1150h200z" />
    <glyph glyph-name="staroperator" unicode="&#x22c6;" 
d="M795 652l94 -292l-200 138l-59 58l-59 -58l-202 -138l93 292l-224 177h287l105 265l103 -265h287z" />
    <glyph glyph-name="verticalellipsis" unicode="&#x22ee;" 
d="M7 150q6 34 24 64t44.5 52.5t58.5 35.5t66 13t61.5 -13t46 -35.5t26.5 -52.5t2 -64t-24.5 -64.5t-44.5 -53t-58 -36t-66 -13.5t-62 13.5t-46.5 36t-26 53t-1.5 64.5zM7 750q6 34 24 64t44.5 52.5t58.5 35.5t66 13t61.5 -13t46 -35.5t26.5 -52.5t2 -64t-24.5 -64.5
t-44.5 -53t-58 -36t-66 -13.5t-62 13.5t-46.5 36t-26 53t-1.5 64.5zM7 1350q6 34 24 64t44.5 52.5t58.5 35.5t66 13t61.5 -13t46 -35.5t26.5 -52.5t2 -64t-24.5 -64.5t-44.5 -53t-58 -36t-66 -13.5t-62 13.5t-46.5 36t-26 53t-1.5 64.5z" />
    <glyph glyph-name="house" unicode="&#x2302;" 
d="M1250 700l-50 100v-800h-1100v800l-49 -100h-51v185l100 50v265h200v-159l329 159l21 16l21 -16l629 -315v-185h-50zM1100 765l-450 235l-450 -185v-715h100v500h300v-500h500v665zM700 600h300v-300h-300v300zM500 100v400h-100v-400h100zM800 400h100v100h-100v-100z
" />
    <glyph glyph-name="leftceiling" unicode="&#x2308;" 
d="M500 0h-200v1500h600v-150h-400v-1350z" />
    <glyph glyph-name="rightceiling" unicode="&#x2309;" 
d="M800 1350h-400v150h600v-1500h-200v1350z" />
    <glyph glyph-name="leftfloor" unicode="&#x230a;" 
d="M500 150h400v-150h-600v1500h200v-1350z" />
    <glyph glyph-name="rightfloor" unicode="&#x230b;" 
d="M800 1500h200v-1500h-600v150h400v1350z" />
    <glyph glyph-name="topleftcorner" unicode="&#x231c;" 
d="M400 750h-200v750h750v-150h-550v-600z" />
    <glyph glyph-name="toprightcorner" unicode="&#x231d;" 
d="M900 1350h-550v150h750v-750h-200v600z" />
    <glyph glyph-name="bottomleftcorner" unicode="&#x231e;" 
d="M400 150h550v-150h-750v750h200v-600z" />
    <glyph glyph-name="bottomrightcorner" unicode="&#x231f;" 
d="M900 750h200v-750h-750v150h550v600z" />
    <glyph glyph-name="blackrightpointingtriangle" unicode="&#x25b6;" 
d="M251 1135l749 -435l-749 -434l25 434z" />
    <glyph glyph-name="whiterightpointingtriangle" unicode="&#x25b7;" 
d="M251 266l25 434l-25 435l749 -435zM340 991l16 -291l-16 -290l501 290z" />
    <glyph glyph-name="blackrightpointingsmall" unicode="&#x25b8;" 
d="M399 991l501 -291l-501 -290l17 290z" />
    <glyph glyph-name="whiterightpointingsmall" unicode="&#x25b9;" 
d="M399 410l17 290l-17 291l501 -291zM487 847l9 -142v-10l-9 -141l253 146z" />
    <glyph glyph-name="blackdownpointingtriangle" unicode="&#x25bc;" 
d="M100 1100h1100l-550 -900z" />
    <glyph glyph-name="whitedownpointingtriangle" unicode="&#x25bd;" 
d="M650 410l330 570h-660zM100 1100h1100l-550 -900z" />
    <glyph glyph-name="blackdownpointingsmalltriangle" unicode="&#x25be;" 
d="M265 1100h770l-385 -630z" />
    <glyph glyph-name="whitedownpointingsmalltriangle" unicode="&#x25bf;" 
d="M650 617l231 399h-462zM265 1100h770l-385 -630z" />
    <glyph glyph-name="fisheye" unicode="&#x25c9;" 
d="M600 851q31 0 58 -12t47.5 -32.5t32.5 -47.5t12 -58t-12 -58.5t-32.5 -47.5t-47.5 -32t-58 -12t-58.5 12t-47.5 32t-32 47.5t-12 58.5t12 58t32 47.5t47.5 32.5t58.5 12zM184 701q0 86 32.5 162t89 132.5t132.5 89t162 32.5t162 -32.5t132.5 -89t89 -132.5t32.5 -162
t-32.5 -162t-89 -132.5t-132.5 -89t-162 -32.5t-162 32.5t-132.5 89t-89 132.5t-32.5 162zM300 701q0 -62 23.5 -117t64 -95.5t95.5 -64t117 -23.5t117 23.5t95.5 64t64 95.5t23.5 117t-23.5 117t-64 95.5t-95.5 64t-117 23.5t-117 -23.5t-95.5 -64t-64 -95.5t-23.5 -117z
" />
    <glyph glyph-name="bullseye" unicode="&#x25ce;" 
d="M600 821q-25 0 -46.5 -9.5t-38 -26t-26 -38t-9.5 -46.5t9.5 -46.5t26 -38t38 -26t46.5 -9.5t46.5 9.5t38 26t26 38t9.5 46.5t-9.5 46.5t-26 38t-38 26t-46.5 9.5zM184 701q0 86 32.5 162t89 132.5t132.5 89t162 32.5t162 -32.5t132.5 -89t89 -132.5t32.5 -162t-32.5 -162
t-89 -132.5t-132.5 -89t-162 -32.5t-162 32.5t-132.5 89t-89 132.5t-32.5 162zM300 701q0 -62 23.5 -117t64 -95.5t95.5 -64t117 -23.5t117 23.5t95.5 64t64 95.5t23.5 117t-23.5 117t-64 95.5t-95.5 64t-117 23.5t-117 -23.5t-95.5 -64t-64 -95.5t-23.5 -117zM400 701
q0 41 16 77.5t43 63.5t63.5 43t77.5 16t77.5 -16t63.5 -43t43 -63.5t16 -77.5t-16 -77.5t-43 -63.5t-63.5 -43t-77.5 -16t-77.5 16t-63.5 43t-43 63.5t-16 77.5z" />
    <glyph glyph-name="blackcircle" unicode="&#x25cf;" 
d="M184 701q0 86 32.5 162t89 132.5t132.5 89t162 32.5t162 -32.5t132.5 -89t89 -132.5t32.5 -162t-32.5 -162t-89 -132.5t-132.5 -89t-162 -32.5t-162 32.5t-132.5 89t-89 132.5t-32.5 162z" />
    <glyph glyph-name="circlewithlefthalfblack" unicode="&#x25d0;" 
d="M184 701q0 86 32.5 162t89 132.5t132.5 89t162 32.5t162 -32.5t132.5 -89t89 -132.5t32.5 -162t-32.5 -162t-89 -132.5t-132.5 -89t-162 -32.5t-162 32.5t-132.5 89t-89 132.5t-32.5 162zM900 701q0 62 -23.5 117t-64 95.5t-95.5 64t-117 23.5v-600q62 0 117 23.5
t95.5 64t64 95.5t23.5 117z" />
    <glyph glyph-name="circlewithrighthalfblack" unicode="&#x25d1;" 
d="M184 701q0 86 32.5 162t89 132.5t132.5 89t162 32.5t162 -32.5t132.5 -89t89 -132.5t32.5 -162t-32.5 -162t-89 -132.5t-132.5 -89t-162 -32.5t-162 32.5t-132.5 89t-89 132.5t-32.5 162zM300 701q0 -62 23.5 -117t64 -95.5t95.5 -64t117 -23.5v600q-62 0 -117 -23.5
t-95.5 -64t-64 -95.5t-23.5 -117z" />
    <glyph glyph-name="circlewithlowerhalfblack" unicode="&#x25d2;" 
d="M600 1117q86 0 162 -32.5t132.5 -89t89 -132.5t32.5 -162t-32.5 -162t-89 -132.5t-132.5 -89t-162 -32.5t-162 32.5t-132.5 89t-89 132.5t-32.5 162t32.5 162t89 132.5t132.5 89t162 32.5zM600 1001q-62 0 -117 -23.5t-95.5 -64t-64 -95.5t-23.5 -117h600q0 62 -23.5 117
t-64 95.5t-95.5 64t-117 23.5z" />
    <glyph glyph-name="circlewithupperhalfblack" unicode="&#x25d3;" 
d="M600 285q-86 0 -162 32.5t-132.5 89t-89 132.5t-32.5 162t32.5 162t89 132.5t132.5 89t162 32.5t162 -32.5t132.5 -89t89 -132.5t32.5 -162t-32.5 -162t-89 -132.5t-132.5 -89t-162 -32.5zM600 401q62 0 117 23.5t95.5 64t64 95.5t23.5 117h-600q0 -62 23.5 -117
t64 -95.5t95.5 -64t117 -23.5z" />
    <glyph glyph-name="day" unicode="&#x2600;" horiz-adv-x="2600" 
d="M1829 456q-5 -28 -12 -55t-17 -54l128 -102l-18 -39l-160 38q-46 -72 -111 -130l90 -189l-31 -21l-151 143q-24 -14 -49.5 -26.5t-52.5 -21.5l22 -246l-31 -7l-95 227q-22 -3 -44 -5t-45 -2h-11.5t-11.5 1l-59 -155l-43 6l-14 164q-83 23 -157 65l-151 -143l-30 21
l89 189q-21 19 -41 39.5t-37 43.5l-226 -97l-17 27l187 160q-13 26 -23 52t-18 54l-165 7l-7 42l152 65q0 11 -0.5 21.5t-0.5 22.5q0 67 13 125l-182 100l11 35l206 -27q23 53 56 100l-162 185l21 25l210 -128q20 20 42 37.5t45 33.5l-44 160l38 19l108 -124q76 31 165 40
l38 205h38l38 -205q29 -3 57 -8.5t55 -13.5l125 212l30 -12l-56 -240q50 -26 94 -61l139 91l30 -30l-86 -141q28 -33 51 -69t40 -76l206 27l11 -35l-182 -100q5 -27 8.5 -55t4.5 -57l239 -55v-32z" />
    <glyph glyph-name="cloud" unicode="&#x2601;" horiz-adv-x="2600" 
d="M1102 1101q136 0 232.5 -67.5t140.5 -196.5q24 9 51 13.5t54 4.5q50 0 98 -17.5t85.5 -48.5t60.5 -74.5t23 -95.5q0 -21 -3 -43q55 -24 98 -63q18 -17 36 -38t31.5 -48t22 -59t8.5 -70q0 -56 -16.5 -102.5t-44.5 -82.5t-65.5 -59.5t-80.5 -33.5q-51 -15 -111.5 -17.5
t-131.5 -2.5h-749q-79 0 -158 23.5t-142 69t-102 114t-39 158.5q0 57 18 107t51.5 92t81 75.5t106.5 57.5q0 91 37.5 166t99.5 127.5t142 81.5t166 29zM727 557q-75 -29 -120.5 -80.5t-45.5 -111.5q0 -51 23.5 -90.5t62.5 -66.5t89.5 -41.5t104.5 -14.5h749q78 0 132.5 6
t89 22t50 44t15.5 73q0 34 -15 60.5t-41 49.5t-62 44.5t-78 44.5q10 14 16.5 36t6.5 48t-10 49.5t-27.5 41.5t-41 28.5t-51.5 10.5q-18 0 -35.5 -4.5t-32 -12t-26 -16t-18.5 -17.5l-134 107q-53 172 -226 172q-62 0 -114.5 -18t-90 -51.5t-58.5 -81.5t-21 -108l31 -123h-122
z" />
    <glyph glyph-name="umbrella" unicode="&#x2602;" 
d="M785 90q31 0 52.5 21.5t21.5 52.5l108 -28q0 -29 -14 -56.5t-38.5 -49t-58 -34.5t-71.5 -13q-41 0 -75 13.5t-58.5 37.5t-38 57t-13.5 73v636q-151 0 -247 -5.5t-153 -12.5q-66 -8 -100 -18q0 59 23.5 114t63.5 103.5t94 89t115 69t126 44.5t128 16q62 0 127.5 -16
t126.5 -44.5t115 -69t94 -89t63.5 -103.5t23.5 -114q-34 10 -100 18q-57 7 -153 12.5t-247 5.5v-626q0 -23 7.5 -39t19.5 -26t27 -14.5t31 -4.5z" />
    <glyph glyph-name="snowman" unicode="&#x2603;" 
d="M600 749q0 -21 15 -36t36 -15t36 15t15 36t-15 36t-36 15t-36 -15t-15 -36zM600 349q0 -21 15 -36t36 -15t36 15t15 36t-15 36t-36 15t-36 -15t-15 -36zM400 1250q0 -21 14.5 -35.5t35.5 -14.5t35.5 14.5t14.5 35.5t-14.5 35.5t-35.5 14.5t-35.5 -14.5t-14.5 -35.5z
M700 1260q0 -3 7.5 -9.5t18.5 -13t24 -11.5t24 -5t18.5 6t7.5 23q0 21 -14.5 35.5t-35.5 14.5t-35.5 -9.5t-14.5 -30.5zM1032 783q20 -31 36 -85t27 -114.5t16.5 -118.5t5.5 -97q0 -107 -40.5 -180.5t-111 -119t-164.5 -65.5t-201 -20t-201 20t-164.5 65.5t-111 119
t-40.5 180.5q0 65 15.5 139t44 147t68.5 138.5t89 113.5q54 52 113 76q-26 21 -47 40.5t-35.5 42t-22.5 49.5t-8 63q0 62 23.5 123t64 109t95.5 78t117 30t117 -30t95.5 -78t64 -109t23.5 -123q0 -36 -8 -63t-22.5 -49.5t-35.5 -42t-47 -40.5q20 -8 45 -20.5t52 -30.5
t54.5 -41t51.5 -51l-17 123l142 245l122 -70zM600 549q0 -21 15 -36t36 -15t36 15t15 36t-15 36t-36 15t-36 -15t-15 -36zM577 1208q-7 -11 -7 -25q0 -13 6.5 -24.5t18.5 -18.5q7 -5 30.5 -15t52 -20.5t56 -18.5t44.5 -8q12 0 15 5q1 1 1 4q0 12 -20 33.5t-46 43.5t-50 40
t-33 23q-11 7 -25 7q-13 0 -24.5 -6.5t-18.5 -19.5z" />
    <glyph glyph-name="blackstar" unicode="&#x2605;" 
d="M927 487l157 -487l-334 230l-98 96l-98 -96l-338 -230l156 487l-373 294h477l176 443l172 -443h477z" />
    <glyph glyph-name="phone" unicode="&#x260e;" 
d="M730 629q23 34 53.5 77.5t58.5 83t47 70t19 39.5q0 12 -23 28t-50.5 32.5t-50.5 33t-23 30.5q0 21 11.5 53.5t30.5 69.5t42 73.5t46.5 66.5t44 48.5t34.5 18.5q15 0 44 -20.5t58 -52.5t50.5 -70t21.5 -74q0 -55 -15.5 -129t-45 -157t-71.5 -171.5t-96 -172.5t-116 -160
t-125 -138t-123.5 -107.5t-110.5 -68.5q-13 -6 -28.5 -8.5t-32.5 -2.5q-33 0 -67.5 8t-64.5 20t-51 25.5t-26 24.5q-2 6 -2 12q0 17 11 45t28.5 60.5t40.5 66.5t46.5 63.5t46 51.5t40.5 30q4 2 8 2q14 0 36 -13t45.5 -28.5t44.5 -28.5t34 -13q5 0 7 1q8 3 26 33t42 72
t51.5 89.5t53.5 86.5z" />
    <glyph glyph-name="emptybox" unicode="&#x2610;" 
d="M1200 0h-1100v1100h1100v-1100zM265 165h770v770h-770v-770z" />
    <glyph glyph-name="boxwithacheck" unicode="&#x2611;" 
d="M680 400l10 200q30 85 69 165.5t82 153t88 135.5t87 114.5t78.5 89t62.5 59.5l131 -17q-45 -50 -97.5 -120.5t-105.5 -155.5t-103 -179.5t-91 -193.5t-68.5 -197.5t-35.5 -190.5l-222 17l-205 520l168 20zM265 165h770v389q25 99 66 200t99 196v-950h-1100v1100h703
q-15 -15 -32 -34.5t-33.5 -41t-32 -44.5t-25.5 -45h-415v-770z" />
    <glyph glyph-name="boxwithaX" unicode="&#x2612;" 
d="M1200 0h-1100v1100h1100v-1100zM265 165h770v770h-770v-770zM801 230l-131 170l-8 68l-157 -238h-179l222 328l-221 286l195 25l93 -136l13 -102l140 222l191 17l-204 -301l241 -339h-195z" />
    <glyph glyph-name="frowningface" unicode="&#x2639;" 
d="M83 550q0 117 44.5 220.5t121.5 180.5t180.5 121.5t220.5 44.5t220.5 -44.5t180.5 -121.5t121.5 -180.5t44.5 -220.5t-44.5 -220.5t-121.5 -180.5t-180.5 -121.5t-220.5 -44.5t-220.5 44.5t-180.5 121.5t-121.5 180.5t-44.5 220.5zM200 550q0 -93 35.5 -175t96.5 -143
t143 -96.5t175 -35.5t175 35.5t143 96.5t96.5 143t35.5 175t-35.5 175t-96.5 143t-143 96.5t-175 35.5t-175 -35.5t-143 -96.5t-96.5 -143t-35.5 -175zM650 500q56 0 110 -18t96 -50.5t68 -77.5t26 -99q-2 3 -19.5 25.5t-54 49t-92.5 48t-134 21.5t-134.5 -21.5t-92.5 -48
t-54 -49t-19 -25.5q0 54 26 99t68 77.5t96 50.5t110 18zM750 600q-21 0 -35.5 14t-14.5 35v101q0 21 14.5 35.5t35.5 14.5t35.5 -14.5t14.5 -35.5v-101q0 -21 -14.5 -35t-35.5 -14zM550 600q-21 0 -35.5 14t-14.5 35v101q0 21 14.5 35.5t35.5 14.5t35.5 -14.5t14.5 -35.5
v-101q0 -21 -14.5 -35t-35.5 -14z" />
    <glyph glyph-name="smilingface" unicode="&#x263a;" 
d="M83 550q0 117 44.5 220.5t121.5 180.5t180.5 121.5t220.5 44.5t220.5 -44.5t180.5 -121.5t121.5 -180.5t44.5 -220.5t-44.5 -220.5t-121.5 -180.5t-180.5 -121.5t-220.5 -44.5t-220.5 44.5t-180.5 121.5t-121.5 180.5t-44.5 220.5zM200 550q0 -93 35.5 -175t96.5 -143
t143 -96.5t175 -35.5t175 35.5t143 96.5t96.5 143t35.5 175t-35.5 175t-96.5 143t-143 96.5t-175 35.5t-175 -35.5t-143 -96.5t-96.5 -143t-35.5 -175zM650 400q78 0 134 21.5t92.5 47.5t54 48.5t19.5 25.5q0 -54 -26 -98.5t-68 -77t-96 -50.5t-110 -18t-110 18t-96 50.5
t-68 77t-26 98.5q1 -3 19 -25.5t54 -48.5t92.5 -47.5t134.5 -21.5zM750 600q-21 0 -35.5 14t-14.5 35v101q0 21 14.5 35.5t35.5 14.5t35.5 -14.5t14.5 -35.5v-101q0 -21 -14.5 -35t-35.5 -14zM550 600q-21 0 -35.5 14t-14.5 35v101q0 21 14.5 35.5t35.5 14.5t35.5 -14.5
t14.5 -35.5v-101q0 -21 -14.5 -35t-35.5 -14z" />
    <glyph glyph-name="sun" unicode="&#x263c;" 
d="M1087 434q-8 -44 -23 -87l102 -83l-13 -31l-129 30q-20 -29 -42 -55t-48 -49l73 -152l-25 -17l-122 115q-20 -12 -40.5 -22t-41.5 -17l18 -199l-26 -5l-77 183q-17 -2 -35 -3.5t-35 -1.5h-10t-9 1l-48 -126l-35 5l-11 132q-33 10 -65 23t-61 30l-123 -115l-23 17l72 152
q-35 30 -63 66l-182 -78l-14 22l150 129q-10 21 -18 42t-14 44l-133 5l-6 34l123 53q0 8 -0.5 16.5t-0.5 17.5q0 55 10 102l-147 80l9 28l167 -22q8 22 19.5 42t24.5 39l-130 148l17 22l169 -104q16 16 33.5 30t36.5 27l-35 129l31 16l86 -101q63 25 133 33l31 165h30
l31 -165q23 -3 45.5 -7t45.5 -11l100 171l24 -10l-45 -194q20 -10 39 -22t37 -26l112 73l24 -25l-70 -113q46 -54 74 -117l166 22l9 -28l-147 -80q5 -23 7 -45.5t3 -45.5l194 -44v-26zM623 146q74 0 140 29t115.5 79t78.5 116t29 140t-28.5 140.5t-78 116t-115.5 78.5
t-141 29t-141.5 -29t-116 -78.5t-78.5 -116t-29 -140.5q0 -75 29 -141t79 -115.5t116 -78.5t141 -29z" />
    <glyph glyph-name="night" unicode="&#x263e;" 
d="M1152 288q-31 -68 -80 -124t-110.5 -96t-134 -62.5t-151.5 -22.5q-109 0 -205 41.5t-167 112.5t-112.5 167t-41.5 205t41.5 204.5t112.5 166.5t167 112.5t205 41.5q63 0 122.5 -14.5t113.5 -41.5l-4 -21q-41 9 -83 9q-84 0 -157.5 -32t-128.5 -87t-87 -128.5t-32 -157.5
t32 -158t87 -129t128.5 -87t157.5 -32q94 0 174 39t136 106l8 -6q4 -3 9 -6z" />
    <glyph glyph-name="spade" unicode="&#x2660;" 
d="M66 591q0 64 34 127.5t84.5 125.5t109.5 122.5t109.5 118t84.5 111.5t34 104h157q0 -50 33.5 -104t84.5 -111.5t109.5 -118t109.5 -122.5t84.5 -125.5t33.5 -127.5q0 -73 -15.5 -132t-48.5 -101t-84 -64.5t-122 -22.5l-201 170q0 -40 2.5 -80.5t13.5 -78t32.5 -69.5
t59 -56t93.5 -37.5t136 -13.5v-106h-800v106q80 0 136 13.5t93.5 37.5t58.5 56t32 69.5t13.5 78t2.5 80.5l-200 -170q-71 0 -122 22.5t-84 64.5t-48.5 101t-15.5 132z" />
    <glyph glyph-name="heartsweetwhite" unicode="&#x2661;" 
d="M180 700q-36 54 -64.5 117.5t-28.5 133.5q0 81 24.5 146.5t65.5 111.5t95.5 71t114.5 25h14q35 -3 61.5 -11t49.5 -22.5t46 -37t52 -54.5l40 -158l40 158q29 32 52.5 54.5t46.5 37t49.5 22t61.5 9.5q5 0 8.5 0.5t8.5 0.5q60 0 113.5 -25t94.5 -71t65 -111t24 -146
q0 -70 -28 -133.5t-66 -117.5l-470 -700zM650 150l40 150l311 491q24 38 38 75t16 73v13q0 46 -9.5 85.5t-27 68t-42.5 44.5t-56 16q-35 0 -58.5 -11t-41.5 -31.5t-33.5 -50.5t-33.5 -67l-53 -126h-100l-54 127q-20 47 -38.5 78.5t-38 50t-41.5 26t-48 7.5q-32 0 -57 -17
t-42 -46.5t-26 -69.5t-9 -86v-11q2 -36 16 -73t38 -75l310 -491z" />
    <glyph glyph-name="diamondsweetwhite" unicode="&#x2662;" 
d="M1090 701l-490 -701l-492 699l492 701zM994 700l-120 30l-244 398l-30 110l-30 -110l-245 -398l-120 -30l120 -30l244 -397l30 -110l30 110l245 397z" />
    <glyph glyph-name="club" unicode="&#x2663;" 
d="M713 441q0 -40 2.5 -80.5t13.5 -78t32.5 -69.5t59 -56t93.5 -37.5t136 -13.5v-106h-800v106q80 0 136 13.5t93.5 37.5t58.5 56t32 69.5t13.5 78t2.5 80.5l-199 -168q-56 1 -111.5 18t-100 54t-72 94.5t-27.5 140.5q0 59 20 108.5t50 85.5t64 56.5t63 20.5l277 -151
q-75 75 -115.5 124.5t-59.5 81t-22 47t-3 23.5q0 55 23 105t63 87.5t95 59.5t119 22t119 -22t95.5 -60t63 -88t22.5 -105q0 -7 -3 -23t-22 -47t-59.5 -80.5t-115.5 -124.5l277 151q22 0 56 -19.5t65.5 -55.5t54 -86t22.5 -110q0 -83 -27.5 -141t-71.5 -95t-99.5 -54
t-111.5 -17z" />
    <glyph glyph-name="flag1" unicode="&#x2690;" 
d="M1000 1100v-559q-24 -29 -77.5 -50.5t-122.5 -21.5q-23 0 -46.5 2.5t-48 9.5t-50.5 20t-55 34q-43 31 -78 58t-65.5 46t-59 30t-58.5 11q-19 0 -39 -7v-673l-100 -20v1060l-18 235q1 0 5 2q9 3 26 9t39.5 11t50 9t59.5 4t67.5 -5.5t72 -19t73.5 -36.5t73 -58
q57 -56 105 -79t88 -23q26 0 48.5 9t42.5 23zM900 1000q-35 -11 -67 -11q-59 0 -117 29.5t-116 81.5q-34 30 -64 51t-57.5 33.5t-54 18t-52.5 5.5q-32 0 -72 -8l15 -300l-15 -100q48 0 90.5 -11.5t80 -30t69.5 -42t60 -48.5q64 -57 112 -80.5t88 -23.5q32 0 59 11t41 25v400
z" />
    <glyph glyph-name="flag2" unicode="&#x2691;" 
d="M1000 1100v-559q-24 -29 -77.5 -50.5t-122.5 -21.5q-23 0 -46.5 2.5t-48 9.5t-50.5 20t-55 34q-43 31 -78 58t-65.5 46t-59 30t-58.5 11q-19 0 -39 -7v-673l-100 -20v1060l-18 235q1 0 5 2q9 3 26 9t39.5 11t50 9t59.5 4t67.5 -5.5t72 -19t73.5 -36.5t73 -58
q57 -56 105 -79t88 -23q26 0 48.5 9t42.5 23z" />
    <glyph glyph-name="warning" unicode="&#x26a0;" horiz-adv-x="2600" 
d="M2074 261q35 -60 35 -115q0 -65 -49 -105.5t-137 -40.5h-1347q-88 0 -136 40t-48 105q0 26 8.5 55.5t26.5 60.5l674 1149q31 54 69.5 80.5t80.5 26.5q39 0 79 -27t71 -80zM2003 123l-752 1286l-747 -1286h1499zM1326 1100v-527l-150 -13v540h150zM1164 351q0 17 7 33
t18.5 28t27 19t33.5 7t34 -7t27.5 -19t18.5 -28t7 -33q0 -18 -7 -34t-18.5 -28t-27 -19t-33.5 -7t-34 7t-27.5 19t-18.5 28t-7 34z" />
    <glyph glyph-name="highvoltage" unicode="&#x26a1;" 
d="M700 1500h100l-260 -600l-40 -36l53 8l447 28l-500 -900h-100l260 600l40 34l-52 -10l-448 -24z" />
    <glyph glyph-name="plane" unicode="&#x2708;" horiz-adv-x="2600" 
d="M1096 -20l92 451l25 211h-213q-75 0 -132.5 4.5t-96.5 10.5q-46 7 -78 16l-153 -216l-63 -4l32 252l-79 36v18l79 36l-32 252l63 -4l153 -216q32 8 78 15q39 6 96.5 11t132.5 5h213l-25 211l-92 451l99 -20l345 -647l400 -15q22 -1 50 -6.5t52.5 -16.5t41 -27t16.5 -38
t-16.5 -38t-41 -27t-52.5 -16.5t-50 -6.5l-400 -15l-345 -647z" />
    <glyph glyph-name="mail" unicode="&#x2709;" 
d="M1200 0h-1200v900h1200v-900zM1041 800h-881l384 -301l56 -99l58 101zM82 766l32 -118v-348l-32 -138l296 338zM1071 100l-284 274l-26 74l-82 -73l-78 -110l-77 107l-85 76l-25 -73l-283 -275h940zM1118 161l-32 139v348l32 118l-297 -266z" />
    <glyph glyph-name="checkmark" unicode="&#x2713;" 
d="M480 400l10 200q30 85 69 165.5t82 153t88 135.5t87 114.5t78.5 89t62.5 59.5l131 -17q-45 -50 -97.5 -120.5t-105.5 -155.5t-103 -179.5t-91 -193.5t-68.5 -197.5t-35.5 -190.5l-222 17l-205 520l168 20z" />
    <glyph glyph-name="whitecircledone" unicode="&#x2780;" 
d="M10 750q17 95 54 187t91 174t122.5 151.5t148.5 120t169.5 79t184.5 28.5t174.5 -28.5t142 -79t106.5 -120t69 -151.5t30 -174t-12 -187t-54.5 -187t-91 -174t-122.5 -151.5t-149 -120t-169.5 -79t-184.5 -28.5t-174.5 28.5t-141.5 79t-106.5 120t-69 151.5t-29.5 174
t12 187zM116 750q-14 -80 -11 -158.5t23.5 -149t56.5 -130.5t87.5 -103.5t118 -68t147.5 -24.5q80 0 155.5 24.5t142.5 68t124 103.5t102 130.5t76 148.5t45 159q14 80 10.5 158.5t-23.5 149t-56 130t-88 103t-118.5 68t-146.5 24.5q-81 0 -156 -24.5t-142 -68t-124.5 -103
t-102 -130t-75.5 -149t-45 -158.5zM388 300l17 96h147l102 580l58 136l-101 -112l-147 -113l-52 73l320 252l81 -12l-141 -804h147l-17 -96h-414z" />
    <glyph glyph-name="whitecircledtwo" unicode="&#x2781;" 
d="M10 750q17 95 54 187t91 174t122.5 151.5t148.5 120t169.5 79t184.5 28.5t174.5 -28.5t142 -79t106.5 -120t69 -151.5t30 -174t-12 -187t-54.5 -187t-91 -174t-122.5 -151.5t-149 -120t-169.5 -79t-184.5 -28.5t-174.5 28.5t-141.5 79t-106.5 120t-69 151.5t-29.5 174
t12 187zM116 750q-14 -80 -11 -158.5t23.5 -149t56.5 -130.5t87.5 -103.5t118 -68t147.5 -24.5q80 0 155.5 24.5t142.5 68t124 103.5t102 130.5t76 148.5t45 159q14 80 10.5 158.5t-23.5 149t-56 130t-88 103t-118.5 68t-146.5 24.5q-81 0 -156 -24.5t-142 -68t-124.5 -103
t-102 -130t-75.5 -149t-45 -158.5zM285 300l17 101q41 59 84 107.5t86.5 90t86 77t82.5 67.5q36 29 68.5 57t57 56t39 57t14.5 61t-8.5 58t-27.5 43.5t-49 26.5t-74 9q-28 0 -52.5 -10t-45 -26t-37 -36.5t-28.5 -42.5l-78 36q39 85 110 131.5t163 46.5h24q54 -4 94 -25
t66 -53.5t38.5 -72.5t12.5 -82v-15q-3 -47 -25.5 -88t-54.5 -77.5t-70.5 -69t-72.5 -63.5q-43 -39 -81.5 -73t-72 -66.5t-61 -64t-48.5 -64.5h402l-17 -96h-542z" />
    <glyph glyph-name="whitecircledthree" unicode="&#x2782;" 
d="M10 750q17 95 54 187t91 174t122.5 151.5t148.5 120t169.5 79t184.5 28.5t174.5 -28.5t142 -79t106.5 -120t69 -151.5t30 -174t-12 -187t-54.5 -187t-91 -174t-122.5 -151.5t-149 -120t-169.5 -79t-184.5 -28.5t-174.5 28.5t-141.5 79t-106.5 120t-69 151.5t-29.5 174
t12 187zM116 750q-14 -80 -11 -158.5t23.5 -149t56.5 -130.5t87.5 -103.5t118 -68t147.5 -24.5q80 0 155.5 24.5t142.5 68t124 103.5t102 130.5t76 148.5t45 159q14 80 10.5 158.5t-23.5 149t-56 130t-88 103t-118.5 68t-146.5 24.5q-81 0 -156 -24.5t-142 -68t-124.5 -103
t-102 -130t-75.5 -149t-45 -158.5zM458 1104l25 96h438l-15 -84q-11 -24 -32.5 -50t-49.5 -52.5t-60 -52.5t-63 -50l-87 -42h42q40 0 79.5 -15t70.5 -42.5t50.5 -66.5t19.5 -87q0 -67 -24.5 -120t-66 -92.5t-97.5 -67.5t-119 -45t-130.5 -25t-131.5 -8l17 96q47 1 97 8
t98 20.5t90 33t74.5 44.5t51 56t18.5 68q0 38 -14 66t-39 46.5t-60 27.5t-77 9q-27 0 -53 -1t-51 -2l16 92q28 18 61 41t67 47.5t66.5 50t60 49t46.5 43.5t27 33l-96 -24h-249z" />
    <glyph glyph-name="whitecircledfour" unicode="&#x2783;" 
d="M10 750q17 95 54 187t91 174t122.5 151.5t148.5 120t169.5 79t184.5 28.5t174.5 -28.5t142 -79t106.5 -120t69 -151.5t30 -174t-12 -187t-54.5 -187t-91 -174t-122.5 -151.5t-149 -120t-169.5 -79t-184.5 -28.5t-174.5 28.5t-141.5 79t-106.5 120t-69 151.5t-29.5 174
t12 187zM116 750q-14 -80 -11 -158.5t23.5 -149t56.5 -130.5t87.5 -103.5t118 -68t147.5 -24.5q80 0 155.5 24.5t142.5 68t124 103.5t102 130.5t76 148.5t45 159q14 80 10.5 158.5t-23.5 149t-56 130t-88 103t-118.5 68t-146.5 24.5q-81 0 -156 -24.5t-142 -68t-124.5 -103
t-102 -130t-75.5 -149t-45 -158.5zM877 480h-108l-31 -180h-120l31 180h-357l19 103l401 629l111 -12l-344 -540l-70 -84h258l42 244l118 -10l-40 -234h117z" />
    <glyph glyph-name="whitecircledfive" unicode="&#x2784;" 
d="M10 750q17 95 54 187t91 174t122.5 151.5t148.5 120t169.5 79t184.5 28.5t174.5 -28.5t142 -79t106.5 -120t69 -151.5t30 -174t-12 -187t-54.5 -187t-91 -174t-122.5 -151.5t-149 -120t-169.5 -79t-184.5 -28.5t-174.5 28.5t-141.5 79t-106.5 120t-69 151.5t-29.5 174
t12 187zM116 750q-14 -80 -11 -158.5t23.5 -149t56.5 -130.5t87.5 -103.5t118 -68t147.5 -24.5q80 0 155.5 24.5t142.5 68t124 103.5t102 130.5t76 148.5t45 159q14 80 10.5 158.5t-23.5 149t-56 130t-88 103t-118.5 68t-146.5 24.5q-81 0 -156 -24.5t-142 -68t-124.5 -103
t-102 -130t-75.5 -149t-45 -158.5zM552 889q5 3 16 8t25 10.5t30.5 9.5t33.5 4q61 0 106 -17.5t73.5 -48t42.5 -72t14 -90.5q0 -70 -22.5 -125.5t-62 -99.5t-93 -75.5t-116 -52t-131.5 -30.5t-138 -10l16 96q58 0 112 9.5t101.5 26t87 40.5t67.5 54.5t44 67t16 77.5
q0 30 -10.5 56.5t-29.5 47t-46 33t-60 12.5q-49 0 -83 -10.5t-62 -29.5h-69l74 420h446l-17 -96h-327z" />
    <glyph glyph-name="whitecircledsix" unicode="&#x2785;" 
d="M10 750q17 95 54 187t91 174t122.5 151.5t148.5 120t169.5 79t184.5 28.5t174.5 -28.5t142 -79t106.5 -120t69 -151.5t30 -174t-12 -187t-54.5 -187t-91 -174t-122.5 -151.5t-149 -120t-169.5 -79t-184.5 -28.5t-174.5 28.5t-141.5 79t-106.5 120t-69 151.5t-29.5 174
t12 187zM116 750q-14 -80 -11 -158.5t23.5 -149t56.5 -130.5t87.5 -103.5t118 -68t147.5 -24.5q80 0 155.5 24.5t142.5 68t124 103.5t102 130.5t76 148.5t45 159q14 80 10.5 158.5t-23.5 149t-56 130t-88 103t-118.5 68t-146.5 24.5q-81 0 -156 -24.5t-142 -68t-124.5 -103
t-102 -130t-75.5 -149t-45 -158.5zM851 1106q-4 2 -12 2h-14q-53 0 -99.5 -13.5t-87 -38t-74 -58.5t-61 -75.5t-48 -88t-34.5 -96.5l62 70q16 9 35.5 18t41.5 15.5t43.5 11t41.5 4.5q52 0 95 -13.5t73.5 -41.5t47.5 -72t17 -105q0 -68 -26 -128.5t-70 -107t-104 -73.5
t-127 -27h-13q-6 0 -12 1q-47 3 -82.5 19.5t-61.5 41.5t-43 57t-27.5 67.5t-14.5 72t-4 70.5q0 77 19 150.5t54 139.5t85 121.5t111.5 95.5t133.5 62.5t152 22.5h20q11 0 16 -2zM409 658q-4 -23 -5 -41t-1 -36q0 -37 9 -69.5t27 -57.5t44.5 -41t61.5 -21q13 -2 25 -2
q37 0 71.5 17t60.5 47.5t41.5 72.5t15.5 91q0 36 -13 62t-34.5 42.5t-50 24.5t-58.5 8q-59 0 -108.5 -24t-85.5 -73z" />
    <glyph glyph-name="whitecircledseven" unicode="&#x2786;" 
d="M10 750q17 95 54 187t91 174t122.5 151.5t148.5 120t169.5 79t184.5 28.5t174.5 -28.5t142 -79t106.5 -120t69 -151.5t30 -174t-12 -187t-54.5 -187t-91 -174t-122.5 -151.5t-149 -120t-169.5 -79t-184.5 -28.5t-174.5 28.5t-141.5 79t-106.5 120t-69 151.5t-29.5 174
t12 187zM116 750q-14 -80 -11 -158.5t23.5 -149t56.5 -130.5t87.5 -103.5t118 -68t147.5 -24.5q80 0 155.5 24.5t142.5 68t124 103.5t102 130.5t76 148.5t45 159q14 80 10.5 158.5t-23.5 149t-56 130t-88 103t-118.5 68t-146.5 24.5q-81 0 -156 -24.5t-142 -68t-124.5 -103
t-102 -130t-75.5 -149t-45 -158.5zM461 1200h536l-14 -78q-4 -25 -30.5 -62.5t-64.5 -84.5t-84 -102.5t-88.5 -117t-78 -126.5t-53.5 -132q-6 -24 -12.5 -50.5t-12 -52t-10 -50t-7.5 -44.5h-119q3 18 9 48t13.5 63.5t16 66.5t16.5 57q21 66 54.5 128.5t72.5 120t79.5 107.5
t75.5 91.5t60 72.5t32 49h-407z" />
    <glyph glyph-name="whitecircledeight" unicode="&#x2787;" 
d="M10 750q17 95 54 187t91 174t122.5 151.5t148.5 120t169.5 79t184.5 28.5t174.5 -28.5t142 -79t106.5 -120t69 -151.5t30 -174t-12 -187t-54.5 -187t-91 -174t-122.5 -151.5t-149 -120t-169.5 -79t-184.5 -28.5t-174.5 28.5t-141.5 79t-106.5 120t-69 151.5t-29.5 174
t12 187zM116 750q-14 -80 -11 -158.5t23.5 -149t56.5 -130.5t87.5 -103.5t118 -68t147.5 -24.5q80 0 155.5 24.5t142.5 68t124 103.5t102 130.5t76 148.5t45 159q14 80 10.5 158.5t-23.5 149t-56 130t-88 103t-118.5 68t-146.5 24.5q-81 0 -156 -24.5t-142 -68t-124.5 -103
t-102 -130t-75.5 -149t-45 -158.5zM705 1210q48 -2 87.5 -15.5t67 -37.5t42 -58.5t14.5 -79.5q0 -43 -13 -75t-34.5 -56.5t-50.5 -44t-60 -35.5q31 -14 56.5 -40t43.5 -58.5t28 -67.5t10 -67q0 -78 -26 -132.5t-70 -88.5t-102 -49t-122 -15q-57 0 -106.5 13.5t-86 42t-58 72
t-21.5 103.5q0 53 17 98t46.5 81t70 63t87.5 47q-45 32 -72 75.5t-27 93.5q0 42 11 75t30 58.5t44.5 44t55 30.5t61.5 17.5t64 5.5h13zM618 756q-40 -16 -76.5 -35.5t-64.5 -44t-44 -56t-16 -72.5t13 -71.5t36 -50.5t54.5 -29.5t66.5 -9.5q36 0 70.5 11.5t62.5 33t45 51
t17 66.5q0 42 -13 74t-35.5 56.5t-52.5 42.5t-63 34zM660 854q30 12 56.5 26.5t46.5 32t31.5 39t11.5 46.5q0 33 -11 55.5t-28.5 37t-39.5 21t-43 6.5q-26 0 -52 -10t-46 -26.5t-33 -38t-13 -43.5q0 -28 8.5 -49.5t24.5 -38.5t38 -31t49 -27z" />
    <glyph glyph-name="whitecirclednine" unicode="&#x2788;" 
d="M10 750q17 95 54 187t91 174t122.5 151.5t148.5 120t169.5 79t184.5 28.5t174.5 -28.5t142 -79t106.5 -120t69 -151.5t30 -174t-12 -187t-54.5 -187t-91 -174t-122.5 -151.5t-149 -120t-169.5 -79t-184.5 -28.5t-174.5 28.5t-141.5 79t-106.5 120t-69 151.5t-29.5 174
t12 187zM116 750q-14 -80 -11 -158.5t23.5 -149t56.5 -130.5t87.5 -103.5t118 -68t147.5 -24.5q80 0 155.5 24.5t142.5 68t124 103.5t102 130.5t76 148.5t45 159q14 80 10.5 158.5t-23.5 149t-56 130t-88 103t-118.5 68t-146.5 24.5q-81 0 -156 -24.5t-142 -68t-124.5 -103
t-102 -130t-75.5 -149t-45 -158.5zM802 698q-19 -13 -37 -23.5t-36.5 -17t-37.5 -10t-41 -3.5q-53 0 -96 17.5t-73.5 50.5t-47.5 81.5t-17 111.5q0 67 24.5 123t66.5 96.5t97.5 63t117.5 22.5q54 0 95 -12t70.5 -34t49.5 -51t31.5 -62.5t16.5 -70.5t5 -73q0 -86 -19 -164.5
t-54 -147t-84.5 -125t-111.5 -96.5t-134.5 -62t-152.5 -22v100q75 2 146 29t129.5 76.5t99 118.5t54.5 154zM874 872q1 8 1 15v15q0 44 -7.5 81.5t-25 65.5t-47 44t-74.5 16t-80 -17t-59 -46.5t-37 -68.5t-13 -83q0 -34 9.5 -61.5t28 -47t47 -30t67.5 -10.5q29 0 57.5 9.5
t53.5 26t45.5 40t33.5 51.5z" />
    <glyph glyph-name="whitecircledzero" unicode="&#x2789;" 
d="M10 750q17 95 54 187t91 174t122.5 151.5t148.5 120t169.5 79t184.5 28.5t174.5 -28.5t142 -79t106.5 -120t69 -151.5t30 -174t-12 -187t-54.5 -187t-91 -174t-122.5 -151.5t-149 -120t-169.5 -79t-184.5 -28.5t-174.5 28.5t-141.5 79t-106.5 120t-69 151.5t-29.5 174
t12 187zM116 750q-14 -80 -11 -158.5t23.5 -149t56.5 -130.5t87.5 -103.5t118 -68t147.5 -24.5q80 0 155.5 24.5t142.5 68t124 103.5t102 130.5t76 148.5t45 159q14 80 10.5 158.5t-23.5 149t-56 130t-88 103t-118.5 68t-146.5 24.5q-81 0 -156 -24.5t-142 -68t-124.5 -103
t-102 -130t-75.5 -149t-45 -158.5zM559 290q-51 6 -88 28t-63 55.5t-42 76.5t-23.5 92t-8 102t4.5 106q5 55 20 112t39 109.5t57 99t74 79.5t89 49.5t103 10.5q50 -5 87.5 -26.5t64 -55t42.5 -77.5t24.5 -93.5t8.5 -102.5t-6 -105q-7 -55 -23 -112t-41 -110.5t-58 -99.5
t-73.5 -79t-87.5 -49.5t-100 -9.5zM463 776q-5 -35 -9 -75.5t-4.5 -81.5t5 -79.5t20.5 -69.5t40.5 -51t66.5 -24q35 -4 65.5 8.5t55.5 36.5t45 57.5t34.5 71.5t23 77.5t11.5 77.5q3 35 6 76t3 82t-5 79.5t-19 69t-39 50t-65 24.5q-37 3 -67 -9t-54 -36t-43.5 -57.5
t-33 -71.5t-23 -77.5t-14.5 -77.5z" />
    <glyph glyph-name="blackcircledone" unicode="&#x278a;" 
d="M10 750q17 95 54 187t91 174t122.5 151.5t148.5 120t169.5 79t184.5 28.5t174.5 -28.5t142 -79t106.5 -120t69 -151.5t30 -174t-12 -187t-54.5 -187t-91 -174t-122.5 -151.5t-149 -120t-169.5 -79t-184.5 -28.5t-174.5 28.5t-141.5 79t-106.5 120t-69 151.5t-29.5 174
t12 187zM785 300l17 96h-147l141 804l-81 12l-320 -252l52 -73l147 113l101 112l-58 -136l-102 -580h-147l-17 -96h414z" />
    <glyph glyph-name="blackcircledtwo" unicode="&#x278b;" 
d="M10 750q17 95 54 187t91 174t122.5 151.5t148.5 120t169.5 79t184.5 28.5t174.5 -28.5t142 -79t106.5 -120t69 -151.5t30 -174t-12 -187t-54.5 -187t-91 -174t-122.5 -151.5t-149 -120t-169.5 -79t-184.5 -28.5t-174.5 28.5t-141.5 79t-106.5 120t-69 151.5t-29.5 174
t12 187zM828 300l17 96h-402q21 33 48.5 64.5t61 64t72 66.5t81.5 73q34 31 72.5 63.5t70.5 69t54.5 77.5t25.5 88v15q0 42 -12.5 82t-38.5 72.5t-66 53.5t-94 25h-24q-92 0 -163 -46.5t-110 -131.5l78 -36q12 22 28.5 42.5t37 36.5t45 26t52.5 10q44 0 74 -9t49 -26.5
t27.5 -43.5t8.5 -58t-14.5 -61t-39 -57t-57 -56t-68.5 -57q-40 -32 -82.5 -67.5t-86 -77t-86.5 -90t-84 -107.5l-17 -101h542z" />
    <glyph glyph-name="blackcircledthree" unicode="&#x278c;" 
d="M10 750q17 95 54 187t91 174t122.5 151.5t148.5 120t169.5 79t184.5 28.5t174.5 -28.5t142 -79t106.5 -120t69 -151.5t30 -174t-12 -187t-54.5 -187t-91 -174t-122.5 -151.5t-149 -120t-169.5 -79t-184.5 -28.5t-174.5 28.5t-141.5 79t-106.5 120t-69 151.5t-29.5 174
t12 187zM727 1104l96 24q-8 -13 -27 -33t-46.5 -43.5t-60 -49t-66.5 -50t-67 -47.5t-61 -41l-16 -92q25 1 51 2t53 1q42 0 77 -9t60 -27.5t39 -46.5t14 -66q0 -37 -18.5 -68t-51 -56t-74.5 -44.5t-90 -33t-98 -20.5t-97 -8l-17 -96q64 0 131.5 8t130.5 25t119 45t97.5 67.5
t66 92.5t24.5 120q0 48 -19.5 87t-50.5 66.5t-70.5 42.5t-79.5 15h-42l87 42q31 24 63 50t60 52.5t49.5 52.5t32.5 50l15 84h-438l-25 -96h249z" />
    <glyph glyph-name="blackcircledfour" unicode="&#x278d;" 
d="M10 750q17 95 54 187t91 174t122.5 151.5t148.5 120t169.5 79t184.5 28.5t174.5 -28.5t142 -79t106.5 -120t69 -151.5t30 -174t-12 -187t-54.5 -187t-91 -174t-122.5 -151.5t-149 -120t-169.5 -79t-184.5 -28.5t-174.5 28.5t-141.5 79t-106.5 120t-69 151.5t-29.5 174
t12 187zM902 576h-117l40 234l-118 10l-42 -244h-258l70 84l344 540l-111 12l-401 -629l-19 -103h357l-31 -180h120l31 180h108z" />
    <glyph glyph-name="blackcircledfive" unicode="&#x278e;" 
d="M10 750q17 95 54 187t91 174t122.5 151.5t148.5 120t169.5 79t184.5 28.5t174.5 -28.5t142 -79t106.5 -120t69 -151.5t30 -174t-12 -187t-54.5 -187t-91 -174t-122.5 -151.5t-149 -120t-169.5 -79t-184.5 -28.5t-174.5 28.5t-141.5 79t-106.5 120t-69 151.5t-29.5 174
t12 187zM592 1104h327l17 96h-446l-74 -420h69q28 19 62 29.5t83 10.5q33 0 60 -12.5t46 -33t29.5 -47t10.5 -56.5q0 -41 -16 -77.5t-44 -67t-67.5 -54.5t-87 -40.5t-101.5 -26t-112 -9.5l-16 -96q69 0 138 10t131.5 30.5t116 52t93 75.5t62 99.5t22.5 125.5q0 49 -14 90.5
t-42.5 72t-73.5 48t-106 17.5q-17 0 -33.5 -4t-30.5 -9.5t-25 -10.5t-16 -8z" />
    <glyph glyph-name="blackcircledsix" unicode="&#x278f;" 
d="M10 750q17 95 54 187t91 174t122.5 151.5t148.5 120t169.5 79t184.5 28.5t174.5 -28.5t142 -79t106.5 -120t69 -151.5t30 -174t-12 -187t-54.5 -187t-91 -174t-122.5 -151.5t-149 -120t-169.5 -79t-184.5 -28.5t-174.5 28.5t-141.5 79t-106.5 120t-69 151.5t-29.5 174
t12 187zM868 1208q-5 2 -16 2h-20q-80 0 -152 -22.5t-133.5 -62.5t-111.5 -95.5t-85 -121.5t-54 -139.5t-19 -150.5q0 -34 4 -70.5t14.5 -72t27.5 -67.5t43 -57t61.5 -41.5t82.5 -19.5q6 -1 12 -1h13q67 0 127 27t104 73.5t70 107t26 128.5q0 61 -17 105t-47.5 72
t-73.5 41.5t-95 13.5q-20 0 -41.5 -4.5t-43.5 -11t-41.5 -15.5t-35.5 -18l-62 -70q14 50 34.5 96.5t48 88t61 75.5t74 58.5t87 38t99.5 13.5h14q8 0 12 -2zM393 658q36 49 85.5 73t108.5 24q30 0 58.5 -8t50 -24.5t34.5 -42.5t13 -62q0 -49 -15.5 -91t-41.5 -72.5
t-60.5 -47.5t-71.5 -17q-12 0 -25 2q-35 5 -61.5 21t-44.5 41t-27 57.5t-9 69.5q0 18 1 36t5 41z" />
    <glyph glyph-name="blackcircledseven" unicode="&#x2790;" 
d="M10 750q17 95 54 187t91 174t122.5 151.5t148.5 120t169.5 79t184.5 28.5t174.5 -28.5t142 -79t106.5 -120t69 -151.5t30 -174t-12 -187t-54.5 -187t-91 -174t-122.5 -151.5t-149 -120t-169.5 -79t-184.5 -28.5t-174.5 28.5t-141.5 79t-106.5 120t-69 151.5t-29.5 174
t12 187zM426 1104h407q-7 -18 -32 -49t-60 -72.5t-75.5 -91.5t-79.5 -107.5t-72.5 -120t-54.5 -128.5q-8 -24 -16.5 -57t-16 -66.5t-13.5 -63.5t-9 -48h119q3 20 7.5 44.5t10 50t12 52t12.5 50.5q18 67 53.5 132t78 126.5t88.5 117t84 102.5t64.5 84.5t30.5 62.5l14 78h-536
z" />
    <glyph glyph-name="blackcircledeight" unicode="&#x2791;" 
d="M10 750q17 95 54 187t91 174t122.5 151.5t148.5 120t169.5 79t184.5 28.5t174.5 -28.5t142 -79t106.5 -120t69 -151.5t30 -174t-12 -187t-54.5 -187t-91 -174t-122.5 -151.5t-149 -120t-169.5 -79t-184.5 -28.5t-174.5 28.5t-141.5 79t-106.5 120t-69 151.5t-29.5 174
t12 187zM689 1210q-32 0 -64 -5.5t-61.5 -17.5t-55 -30.5t-44.5 -44t-30 -58.5t-11 -75q0 -50 27 -93.5t72 -75.5q-47 -20 -87.5 -47t-70 -63t-46.5 -81t-17 -98q0 -60 21.5 -103.5t58 -72t86 -42t106.5 -13.5q64 0 122 15t102 49t70 88.5t26 132.5q0 32 -10 67t-28 67.5
t-43.5 58.5t-56.5 40q31 16 60 35.5t50.5 44t34.5 56.5t13 75q0 45 -14.5 79.5t-42 58.5t-67 37.5t-87.5 15.5h-13zM615 756q33 -16 63 -34t52.5 -42.5t35.5 -56.5t13 -74q0 -37 -17 -66.5t-45 -51t-62.5 -33t-70.5 -11.5q-35 0 -66.5 9.5t-54.5 29.5t-36 50.5t-13 71.5
t16 72.5t44 56t64.5 44t76.5 35.5zM657 854q-27 13 -49 27t-38 31t-24.5 38.5t-8.5 49.5q0 22 13 43.5t33 38t46 26.5t52 10q21 0 43 -6.5t39.5 -21t28.5 -37t11 -55.5q0 -25 -11.5 -46.5t-31.5 -39t-46.5 -32t-56.5 -26.5z" />
    <glyph glyph-name="blackcirclednine" unicode="&#x2792;" 
d="M10 750q17 95 54 187t91 174t122.5 151.5t148.5 120t169.5 79t184.5 28.5t174.5 -28.5t142 -79t106.5 -120t69 -151.5t30 -174t-12 -187t-54.5 -187t-91 -174t-122.5 -151.5t-149 -120t-169.5 -79t-184.5 -28.5t-174.5 28.5t-141.5 79t-106.5 120t-69 151.5t-29.5 174
t12 187zM859 768q-14 -85 -54.5 -154t-99 -118.5t-129.5 -76.5t-146 -29v-100q80 0 152.5 22t134.5 62t111.5 96.5t84.5 125t54 147t19 164.5q0 36 -5 73t-16.5 70.5t-31.5 62.5t-49.5 51t-70.5 34t-95 12q-62 0 -117.5 -22.5t-97.5 -63t-66.5 -96.5t-24.5 -123
q0 -63 17 -111.5t47.5 -81.5t73.5 -50.5t96 -17.5q22 0 41 3.5t37.5 10t36.5 17t37 23.5zM870 872q-13 -28 -33.5 -51.5t-45.5 -40t-53.5 -26t-57.5 -9.5q-39 0 -67.5 10.5t-47 30t-28 47t-9.5 61.5q0 44 13 83t37 68.5t59 46.5t80 17t74.5 -16t47 -44t25 -65.5t7.5 -81.5
v-15q0 -7 -1 -15z" />
    <glyph glyph-name="blackcircledzero" unicode="&#x2793;" 
d="M10 750q17 95 54 187t91 174t122.5 151.5t148.5 120t169.5 79t184.5 28.5t174.5 -28.5t142 -79t106.5 -120t69 -151.5t30 -174t-12 -187t-54.5 -187t-91 -174t-122.5 -151.5t-149 -120t-169.5 -79t-184.5 -28.5t-174.5 28.5t-141.5 79t-106.5 120t-69 151.5t-29.5 174
t12 187zM551 290q53 -7 100 9.5t87.5 49.5t73.5 79t58 99.5t41 110.5t23 112q6 52 6 105t-8.5 102.5t-24.5 93.5t-42.5 77.5t-64 55t-87.5 26.5q-55 6 -103 -10.5t-89 -49.5t-74 -79.5t-57 -99t-39 -109.5t-20 -112q-5 -53 -4.5 -106t8 -102t23.5 -92t42 -76.5t63 -55.5
t88 -28zM455 776q5 38 14.5 77.5t23 77.5t33 71.5t43.5 57.5t54 36t67 9q40 -5 65 -24.5t39 -50t19 -69t5 -79.5t-3 -82t-6 -76q-3 -38 -11.5 -77.5t-23 -77.5t-34.5 -71.5t-45 -57.5t-55.5 -36.5t-65.5 -8.5q-41 4 -66.5 24t-40.5 51t-20.5 69.5t-5 79.5t4.5 81.5t9 75.5z
" />
    <glyph glyph-name="widerightwardsarrow" unicode="&#x2794;" 
d="M1300 600l-290 -220l-320 -281h-270l282 265l198 150l-218 -14h-682l30 200h652l218 -14l-198 146l-282 267h270l320 -279z" />
    <glyph glyph-name="takeoff" unicode="&#xe000;" horiz-adv-x="2600" 
d="M1495 1138l556 240q39 14 82.5 21.5t87.5 7.5q43 0 92.5 -10.5t91.5 -34t69.5 -60.5t27.5 -91q0 -44 -22 -87.5t-56.5 -81t-77.5 -67t-85 -47.5l-1048 -429q-5 0 -12 0.5t-15 0.5q-38 0 -98.5 -3.5t-131 -8.5t-144 -12t-136.5 -14t-109 -14t-61 -12l-48 132l-338 199
l224 82l334 -81l335 139l-451 359l335 122zM80 -200l20 200h1800v-200h-1820zM2000 -200v200h200v-200h-200zM2300 -200v200h100v-200h-100z" />
    <glyph glyph-name="climb" unicode="&#xe001;" horiz-adv-x="2600" 
d="M1495 1138l556 240q39 14 82.5 21.5t87.5 7.5q43 0 92.5 -10.5t91.5 -34t69.5 -60.5t27.5 -91q0 -44 -22 -87.5t-56.5 -81t-77.5 -67t-85 -47.5l-1048 -429q-5 0 -12 0.5t-15 0.5q-38 0 -98.5 -3.5t-131 -8.5t-144 -12t-136.5 -14t-109 -14t-61 -12l-48 132l-338 199
l224 82l334 -81l335 139l-451 359l335 122z" />
    </font>
</defs>
</svg>
